<svg xmlns="http://www.w3.org/2000/svg" xmlns:xlink="http://www.w3.org/1999/xlink" width="1920" zoomAndPan="magnify" viewBox="0 0 1440 809.999993" height="1080" preserveAspectRatio="xMidYMid meet" version="1.0"><defs><g/><clipPath id="61cc9e4389"><path d="M 0 81 L 1440 81 L 1440 473.351562 L 0 473.351562 Z M 0 81 " clip-rule="nonzero"/></clipPath><clipPath id="5f4cc6d9fa"><path d="M 751 127.539062 L 909 127.539062 L 909 329.289062 L 751 329.289062 Z M 751 127.539062 " clip-rule="nonzero"/></clipPath><clipPath id="ac3b3da95c"><path d="M 1024 159.097656 L 1057 159.097656 L 1057 183 L 1024 183 Z M 1024 159.097656 " clip-rule="nonzero"/></clipPath><clipPath id="6e27446170"><path d="M 1187.058594 181.214844 L 1388.808594 181.214844 L 1388.808594 321.464844 L 1187.058594 321.464844 Z M 1187.058594 181.214844 " clip-rule="nonzero"/></clipPath><clipPath id="782fa33a72"><path d="M 529.117188 163.667969 L 685.117188 163.667969 L 685.117188 338.417969 L 529.117188 338.417969 Z M 529.117188 163.667969 " clip-rule="nonzero"/></clipPath><clipPath id="bdaead1e5a"><path d="M 299.710938 157.351562 L 467.710938 157.351562 L 467.710938 344.851562 L 299.710938 344.851562 Z M 299.710938 157.351562 " clip-rule="nonzero"/></clipPath><clipPath id="ebf1a5e7b9"><path d="M 58.761719 161.433594 L 238.011719 161.433594 L 238.011719 340.683594 L 58.761719 340.683594 Z M 58.761719 161.433594 " clip-rule="nonzero"/></clipPath></defs><g clip-path="url(#61cc9e4389)"><path fill="#ffffff" d="M 0 81 L 1440.660156 81 L 1440.660156 473.351562 L 0 473.351562 Z M 0 81 " fill-opacity="1" fill-rule="nonzero"/></g><g clip-path="url(#5f4cc6d9fa)"><path fill="#000000" d="M 853.425781 290.71875 C 853.425781 292.773438 852.675781 294.671875 851.367188 296.097656 L 781.394531 296.097656 C 776.761719 291.113281 780.601562 282.410156 787.488281 282.566406 C 787.488281 282.566406 845.273438 282.566406 845.273438 282.566406 C 849.785156 282.566406 853.425781 286.207031 853.425781 290.71875 Z M 781.394531 301.59375 C 776.761719 306.578125 780.601562 315.28125 787.488281 315.125 L 845.273438 315.125 C 852.160156 315.28125 856 306.539062 851.328125 301.59375 Z M 804.386719 329.285156 L 828.414062 329.285156 C 833.558594 329.285156 837.792969 325.527344 838.625 320.625 L 794.175781 320.625 C 795.007812 325.527344 799.242188 329.285156 804.386719 329.285156 Z M 856.355469 248.273438 C 847.886719 255.628906 842.699219 265.992188 841.632812 277.070312 L 824.097656 277.070312 L 824.097656 166.308594 C 824.097656 163.972656 826.078125 162.113281 828.414062 162.3125 C 871.710938 166.148438 888.613281 220.460938 856.355469 248.273438 Z M 864.035156 211.246094 C 864.152344 194.632812 853.230469 179.046875 837.476562 173.625 C 835.855469 173.03125 833.992188 173.902344 833.4375 175.5625 C 832.84375 177.226562 833.675781 179.003906 835.339844 179.597656 C 848.558594 184.148438 857.78125 197.242188 857.660156 211.246094 C 857.742188 215.398438 863.996094 215.398438 864.035156 211.246094 Z M 783.492188 258.238281 C 785.546875 256.105469 790.21875 253.335938 791.960938 257.25 C 792.59375 258.875 791.761719 260.730469 790.101562 261.363281 C 782.976562 264.609375 786.65625 274.222656 791.089844 277.070312 L 805.296875 277.070312 C 808.347656 274.855469 810.324219 271.292969 810.324219 267.257812 L 810.324219 177.582031 C 810.246094 164.644531 792.515625 160.847656 787.210938 172.597656 C 791.484375 173.429688 804.109375 184.1875 795.046875 186.207031 C 792.039062 186.085938 791.367188 182.089844 788.992188 180.746094 C 777.078125 171.332031 760.136719 184.226562 765.285156 197.953125 C 770.667969 196.964844 777.75 199.617188 781.351562 204.164062 C 783.132812 206.101562 781.511719 209.464844 778.9375 209.386719 C 778.027344 209.386719 777.15625 208.992188 776.523438 208.238281 C 775.691406 207.25 773.832031 205.429688 770.902344 204.597656 C 768.847656 203.925781 765.996094 204.085938 764.332031 204.640625 C 747.910156 209.425781 746.5625 232.765625 762.234375 239.449219 C 764.375 236.007812 776.878906 226.476562 779.136719 233.160156 C 779.570312 234.863281 778.503906 236.601562 776.839844 236.996094 C 758.792969 241.46875 761.285156 266.785156 779.886719 267.300781 C 779.929688 264.214844 780.917969 260.8125 783.492188 258.238281 Z M 866.726562 172.28125 C 867.558594 172.28125 868.347656 171.964844 868.980469 171.371094 L 883.664062 156.695312 C 886.554688 153.6875 882.160156 149.296875 879.191406 152.226562 C 879.191406 152.226562 864.507812 166.902344 864.507812 166.902344 C 862.449219 168.761719 863.996094 172.359375 866.726562 172.28125 Z M 905.117188 208.515625 L 884.378906 208.515625 C 880.183594 208.59375 880.222656 214.804688 884.378906 214.84375 L 905.117188 214.84375 C 909.3125 214.804688 909.273438 208.59375 905.117188 208.515625 Z M 868.941406 252.070312 C 865.933594 249.179688 861.539062 253.574219 864.46875 256.539062 L 879.152344 271.214844 C 882.121094 274.140625 886.554688 269.671875 883.625 266.746094 C 883.625 266.707031 868.941406 252.070312 868.941406 252.070312 Z M 824.097656 154.636719 C 825.839844 154.636719 827.265625 153.214844 827.265625 151.472656 L 827.265625 130.707031 C 827.265625 128.964844 825.839844 127.539062 824.097656 127.539062 C 822.355469 127.539062 820.933594 128.964844 820.933594 130.707031 L 820.933594 151.433594 C 820.933594 153.214844 822.355469 154.636719 824.097656 154.636719 Z M 824.097656 154.636719 " fill-opacity="1" fill-rule="nonzero"/></g><path fill="#000000" d="M 1013.671875 213 C 1013.699219 213.71875 1013.65625 214.4375 1013.542969 215.148438 C 1013.429688 215.859375 1013.25 216.554688 1013 217.230469 C 1012.75 217.910156 1012.4375 218.554688 1012.058594 219.167969 C 1011.679688 219.785156 1011.246094 220.355469 1010.757812 220.886719 C 1010.269531 221.414062 1009.730469 221.890625 1009.148438 222.3125 C 1008.566406 222.738281 1007.945312 223.101562 1007.292969 223.402344 C 1006.636719 223.703125 1005.960938 223.9375 1005.257812 224.105469 C 1004.558594 224.273438 1003.847656 224.371094 1003.128906 224.398438 C 1002.40625 224.425781 1001.691406 224.382812 1000.980469 224.269531 C 1000.269531 224.15625 999.574219 223.972656 998.898438 223.722656 C 998.222656 223.472656 997.578125 223.15625 996.964844 222.78125 C 996.351562 222.402344 995.78125 221.96875 995.25 221.476562 C 994.722656 220.988281 994.246094 220.449219 993.824219 219.867188 C 993.402344 219.28125 993.039062 218.664062 992.738281 218.007812 C 992.4375 217.351562 992.203125 216.671875 992.035156 215.972656 C 991.867188 215.269531 991.769531 214.558594 991.742188 213.839844 C 991.714844 213.117188 991.757812 212.398438 991.871094 211.6875 C 991.984375 210.976562 992.167969 210.28125 992.417969 209.605469 C 992.667969 208.929688 992.980469 208.28125 993.359375 207.667969 C 993.734375 207.054688 994.167969 206.480469 994.660156 205.953125 C 995.148438 205.421875 995.683594 204.945312 996.269531 204.523438 C 996.851562 204.097656 997.46875 203.738281 998.125 203.433594 C 998.78125 203.132812 999.457031 202.898438 1000.160156 202.730469 C 1000.859375 202.5625 1001.570312 202.464844 1002.289062 202.4375 C 1003.007812 202.410156 1003.726562 202.453125 1004.4375 202.566406 C 1005.148438 202.683594 1005.839844 202.863281 1006.515625 203.113281 C 1007.191406 203.363281 1007.839844 203.679688 1008.453125 204.054688 C 1009.066406 204.433594 1009.636719 204.867188 1010.164062 205.359375 C 1010.695312 205.847656 1011.167969 206.386719 1011.59375 206.96875 C 1012.015625 207.554688 1012.378906 208.171875 1012.679688 208.828125 C 1012.980469 209.484375 1013.214844 210.164062 1013.382812 210.863281 C 1013.546875 211.566406 1013.644531 212.277344 1013.671875 213 Z M 1013.671875 213 " fill-opacity="1" fill-rule="nonzero"/><path fill="#000000" d="M 1033.796875 298.476562 L 1026.101562 261.816406 C 1026.085938 261.691406 1026.066406 261.5625 1026.039062 261.4375 L 1019.457031 230.078125 L 1025.945312 214.871094 L 1024.023438 213.253906 C 1022.21875 211.734375 1021.613281 209.160156 1022.554688 206.996094 L 1034.152344 180.332031 C 1034.59375 179.324219 1035.316406 178.5 1036.210938 177.9375 C 1035.5 177.203125 1034.507812 176.742188 1033.40625 176.742188 C 1031.25 176.742188 1029.503906 178.492188 1029.503906 180.648438 L 1029.503906 186.652344 L 1012.589844 226.285156 L 996.277344 229.71875 C 995.0625 229.972656 994.117188 230.785156 993.632812 231.828125 L 971.921875 268.992188 C 970.832031 270.855469 971.457031 273.25 973.316406 274.339844 C 973.9375 274.699219 974.613281 274.875 975.285156 274.875 C 976.625 274.875 977.929688 274.179688 978.65625 272.9375 L 995.460938 244.175781 L 999.789062 264.789062 L 995.277344 312.792969 C 994.964844 316.113281 997.402344 319.054688 1000.71875 319.367188 C 1004.03125 319.679688 1006.972656 317.242188 1007.285156 313.921875 L 1011.566406 268.339844 L 1014.996094 267.617188 L 1024.898438 314.789062 C 1025.585938 318.050781 1028.78125 320.140625 1032.039062 319.453125 C 1033.171875 319.214844 1034.15625 318.667969 1034.9375 317.925781 C 1034.21875 316.777344 1033.796875 315.421875 1033.796875 313.964844 Z M 1033.796875 298.476562 " fill-opacity="1" fill-rule="nonzero"/><path fill="#000000" d="M 1038.953125 196.203125 L 1047.589844 203.066406 C 1048.914062 200.699219 1050.96875 198.824219 1053.425781 197.730469 L 1045.121094 191.128906 L 1045.121094 185.488281 C 1045.121094 184.636719 1044.84375 183.847656 1044.382812 183.207031 C 1044.316406 183.683594 1044.191406 184.160156 1043.992188 184.621094 Z M 1038.953125 196.203125 " fill-opacity="1" fill-rule="nonzero"/><path fill="#000000" d="M 1108.332031 207.980469 C 1108.582031 208.65625 1108.765625 209.351562 1108.878906 210.0625 C 1108.996094 210.773438 1109.039062 211.492188 1109.011719 212.210938 C 1108.988281 212.933594 1108.890625 213.644531 1108.726562 214.347656 C 1108.558594 215.046875 1108.324219 215.726562 1108.027344 216.382812 C 1107.726562 217.039062 1107.367188 217.660156 1106.945312 218.246094 C 1106.523438 218.828125 1106.046875 219.367188 1105.519531 219.859375 C 1104.992188 220.351562 1104.421875 220.785156 1103.808594 221.164062 C 1103.195312 221.542969 1102.550781 221.859375 1101.875 222.109375 C 1101.199219 222.363281 1100.507812 222.542969 1099.796875 222.660156 C 1099.085938 222.773438 1098.371094 222.820312 1097.648438 222.792969 C 1096.929688 222.765625 1096.21875 222.671875 1095.519531 222.503906 C 1094.816406 222.335938 1094.136719 222.105469 1093.484375 221.804688 C 1092.828125 221.503906 1092.207031 221.144531 1091.625 220.722656 C 1091.039062 220.296875 1090.503906 219.824219 1090.011719 219.292969 C 1089.519531 218.765625 1089.085938 218.195312 1088.707031 217.582031 C 1088.332031 216.96875 1088.015625 216.320312 1087.765625 215.644531 C 1087.511719 214.96875 1087.328125 214.277344 1087.214844 213.5625 C 1087.101562 212.851562 1087.054688 212.136719 1087.082031 211.414062 C 1087.109375 210.691406 1087.203125 209.980469 1087.371094 209.28125 C 1087.535156 208.578125 1087.769531 207.898438 1088.070312 207.242188 C 1088.367188 206.585938 1088.730469 205.964844 1089.152344 205.382812 C 1089.574219 204.796875 1090.046875 204.257812 1090.574219 203.765625 C 1091.101562 203.277344 1091.671875 202.839844 1092.285156 202.460938 C 1092.898438 202.082031 1093.542969 201.769531 1094.21875 201.515625 C 1094.894531 201.265625 1095.589844 201.082031 1096.300781 200.964844 C 1097.011719 200.851562 1097.726562 200.808594 1098.445312 200.832031 C 1099.167969 200.859375 1099.875 200.957031 1100.578125 201.121094 C 1101.277344 201.289062 1101.957031 201.519531 1102.613281 201.820312 C 1103.265625 202.121094 1103.886719 202.484375 1104.472656 202.90625 C 1105.054688 203.328125 1105.59375 203.804688 1106.082031 204.332031 C 1106.574219 204.859375 1107.007812 205.429688 1107.386719 206.042969 C 1107.765625 206.660156 1108.078125 207.304688 1108.332031 207.980469 Z M 1108.332031 207.980469 " fill-opacity="1" fill-rule="nonzero"/><path fill="#000000" d="M 1089.082031 266.71875 L 1097.871094 315.617188 C 1098.460938 318.902344 1101.597656 321.082031 1104.871094 320.492188 C 1108.148438 319.898438 1110.328125 316.761719 1109.738281 313.480469 L 1100.824219 263.871094 L 1104.957031 244.175781 L 1117.355469 270.996094 C 1118.015625 272.421875 1119.425781 273.261719 1120.898438 273.261719 C 1121.449219 273.261719 1122.003906 273.144531 1122.535156 272.898438 C 1124.492188 271.992188 1125.34375 269.671875 1124.4375 267.710938 L 1107.234375 230.503906 C 1106.800781 229.328125 1105.792969 228.394531 1104.480469 228.117188 L 1087.035156 224.445312 L 1070.664062 211.433594 C 1070.652344 211.484375 1070.644531 211.535156 1070.636719 211.585938 C 1070.09375 214.257812 1068.703125 216.585938 1066.785156 218.324219 L 1081.050781 229.664062 L 1075.289062 257.097656 L 1063.101562 293.429688 L 1063.101562 313.964844 C 1063.101562 315.984375 1062.300781 317.816406 1061 319.167969 C 1061.5625 319.335938 1062.132812 319.421875 1062.695312 319.421875 C 1065.191406 319.421875 1067.519531 317.839844 1068.359375 315.339844 L 1084.957031 265.847656 Z M 1089.082031 266.71875 " fill-opacity="1" fill-rule="nonzero"/><path fill="#000000" d="M 1061.640625 259.878906 L 1063.132812 252.496094 L 1064.886719 254.382812 C 1065.644531 255.195312 1066.683594 255.628906 1067.746094 255.628906 C 1068.324219 255.628906 1068.90625 255.5 1069.449219 255.234375 C 1070.996094 254.480469 1071.863281 252.808594 1071.597656 251.109375 L 1067.972656 228.1875 C 1067.976562 226.421875 1066.742188 224.84375 1064.953125 224.480469 L 1047.566406 220.957031 L 1032.214844 208.03125 L 1042.648438 184.039062 C 1043.507812 182.058594 1042.605469 179.757812 1040.628906 178.894531 C 1038.65625 178.035156 1036.355469 178.9375 1035.496094 180.917969 L 1023.898438 207.582031 C 1023.207031 209.167969 1023.640625 211.019531 1024.964844 212.132812 L 1041.554688 226.101562 L 1035.425781 256.421875 C 1035.386719 256.605469 1035.367188 256.785156 1035.359375 256.96875 C 1035.296875 257.3125 1035.261719 257.667969 1035.261719 258.027344 L 1035.261719 313.964844 C 1035.261719 317.300781 1037.960938 320.003906 1041.289062 320.003906 C 1044.621094 320.003906 1047.320312 317.300781 1047.320312 313.964844 L 1047.320312 262.683594 L 1049.582031 263.140625 L 1049.582031 313.964844 C 1049.582031 317.300781 1052.28125 320.003906 1055.609375 320.003906 C 1058.941406 320.003906 1061.640625 317.300781 1061.640625 313.964844 Z M 1061.640625 259.878906 " fill-opacity="1" fill-rule="nonzero"/><path fill="#000000" d="M 1069.203125 211.292969 C 1070.402344 205.34375 1066.566406 199.546875 1060.625 198.34375 C 1054.683594 197.140625 1048.894531 200.984375 1047.691406 206.933594 C 1046.488281 212.878906 1050.328125 218.675781 1056.269531 219.882812 C 1062.210938 221.085938 1068 217.242188 1069.203125 211.292969 Z M 1069.203125 211.292969 " fill-opacity="1" fill-rule="nonzero"/><g clip-path="url(#ac3b3da95c)"><path fill="#000000" d="M 1048.199219 171.808594 L 1050.160156 163.027344 L 1043.382812 168.222656 L 1040.585938 159.109375 L 1037.421875 168.246094 L 1031.945312 163.097656 L 1032.597656 169.761719 L 1024.585938 166.539062 L 1029.457031 174.199219 L 1030.691406 173.410156 L 1028.265625 169.597656 L 1034.289062 172.019531 L 1033.78125 166.832031 L 1038.066406 170.859375 L 1040.503906 163.824219 L 1042.605469 170.664062 L 1047.851562 166.640625 L 1046.273438 173.707031 L 1052.488281 172.402344 L 1047.496094 178.269531 L 1051.792969 180.398438 L 1048.195312 181.570312 L 1048.648438 182.964844 L 1055.660156 180.683594 L 1049.828125 177.789062 L 1056.375 170.089844 Z M 1048.199219 171.808594 " fill-opacity="1" fill-rule="nonzero"/></g><g clip-path="url(#6e27446170)"><path fill="#000002" d="M 1334.605469 321.464844 L 1290.582031 310.023438 C 1289.171875 309.550781 1288.347656 308.132812 1288.699219 306.71875 L 1293.054688 290.207031 C 1293.878906 286.902344 1297.527344 288.554688 1299.644531 289.144531 C 1300 287.257812 1300.351562 285.367188 1300.589844 283.480469 C 1303.53125 266.261719 1306.238281 250.101562 1328.601562 244.085938 C 1329.660156 243.375 1342.609375 226.507812 1354.027344 223.796875 C 1355.910156 215.539062 1358.617188 200.324219 1369.683594 201.03125 C 1372.980469 193.246094 1378.511719 187.820312 1386.867188 191.359375 C 1388.046875 191.949219 1388.753906 193.128906 1388.515625 194.308594 C 1386.988281 202.5625 1385.925781 209.878906 1384.867188 216.484375 C 1380.277344 247.859375 1377.804688 265.199219 1338.84375 287.964844 L 1336.136719 298.699219 C 1338.492188 299.289062 1342.375 299.757812 1341.433594 302.945312 L 1337.195312 319.457031 C 1336.84375 320.636719 1335.78125 321.464844 1334.605469 321.464844 Z M 1288.109375 253.402344 C 1287.523438 253.402344 1286.933594 253.167969 1286.34375 252.695312 C 1267.039062 235.945312 1247.03125 218.488281 1247.03125 200.558594 C 1247.03125 189.941406 1256.800781 181.214844 1268.925781 181.214844 C 1278.457031 181.214844 1283.753906 185.105469 1288.109375 191.359375 C 1292.464844 185.105469 1297.878906 181.214844 1307.414062 181.214844 C 1319.539062 181.214844 1329.308594 189.941406 1329.308594 200.558594 C 1329.308594 218.488281 1309.296875 235.945312 1289.875 252.695312 C 1289.40625 253.167969 1288.816406 253.402344 1288.109375 253.402344 Z M 1268.925781 186.523438 C 1259.742188 186.523438 1252.328125 192.890625 1252.328125 200.558594 C 1252.328125 215.539062 1270.21875 231.582031 1288.109375 247.152344 C 1306.003906 231.582031 1324.011719 215.539062 1324.011719 200.558594 C 1324.011719 192.890625 1316.480469 186.523438 1307.414062 186.523438 C 1292.113281 186.523438 1292.820312 199.144531 1288.109375 199.144531 C 1283.519531 199.144531 1284.226562 186.523438 1268.925781 186.523438 Z M 1240.203125 298.699219 L 1237.378906 287.964844 C 1198.535156 265.199219 1195.945312 247.859375 1191.355469 216.484375 C 1190.410156 209.878906 1189.351562 202.5625 1187.824219 194.308594 C 1187.117188 190.296875 1195.121094 189.234375 1199.242188 191.59375 C 1202.417969 193.363281 1204.773438 196.785156 1206.65625 201.03125 C 1217.71875 200.324219 1220.308594 215.539062 1222.195312 223.796875 C 1233.730469 226.507812 1246.558594 243.375 1247.738281 244.085938 C 1269.984375 250.101562 1272.808594 266.261719 1275.632812 283.480469 C 1275.988281 285.367188 1276.339844 287.257812 1276.691406 289.144531 C 1278.929688 288.554688 1282.460938 287.019531 1283.285156 290.207031 L 1287.640625 306.71875 C 1287.992188 308.132812 1287.167969 309.550781 1285.640625 310.023438 L 1241.734375 321.464844 C 1240.554688 321.464844 1239.496094 320.636719 1239.144531 319.457031 L 1234.789062 302.945312 C 1233.964844 299.640625 1238.085938 299.289062 1240.203125 298.699219 Z M 1208.539062 206.457031 C 1210.421875 212.707031 1211.363281 219.078125 1212.304688 225.09375 C 1213.71875 224.269531 1215.132812 223.796875 1216.660156 223.441406 C 1215.484375 218.015625 1213.367188 207.988281 1208.539062 206.457031 Z M 1275.398438 295.042969 C 1275.28125 295.042969 1275.28125 295.042969 1275.164062 295.042969 L 1240.675781 304.125 L 1243.617188 315.449219 L 1281.753906 305.421875 L 1278.8125 294.097656 Z M 1271.515625 290.558594 C 1267.984375 271.566406 1267.863281 254.699219 1245.734375 249.039062 C 1242.203125 248.210938 1225.253906 222.5 1214.425781 230.046875 L 1233.257812 249.15625 C 1235.730469 251.632812 1231.964844 255.40625 1229.492188 252.929688 C 1227.136719 250.453125 1208.65625 232.171875 1208.1875 231.226562 C 1206.539062 227.6875 1204.539062 194.070312 1193.472656 195.722656 C 1194.886719 203.035156 1195.828125 209.757812 1196.652344 215.65625 C 1201.359375 247.621094 1203.476562 262.132812 1241.027344 283.953125 C 1241.734375 284.308594 1242.085938 284.898438 1242.320312 285.605469 L 1245.382812 297.402344 Z M 1304.824219 290.558594 L 1330.957031 297.402344 L 1334.015625 285.605469 C 1334.136719 284.898438 1334.605469 284.308594 1335.195312 283.953125 C 1372.863281 262.132812 1374.980469 247.621094 1379.570312 215.65625 C 1380.511719 209.757812 1381.453125 203.035156 1382.75 195.722656 C 1371.332031 193.953125 1370.273438 229.222656 1367.566406 231.933594 L 1346.847656 252.929688 C 1344.375 255.40625 1340.609375 251.632812 1343.082031 249.15625 L 1361.796875 230.046875 C 1351.085938 222.5 1334.015625 248.210938 1330.605469 249.039062 C 1308.355469 254.699219 1308.355469 271.6875 1304.824219 290.558594 Z M 1359.558594 223.441406 C 1361.089844 223.796875 1362.621094 224.269531 1363.914062 225.09375 C 1364.976562 219.195312 1365.917969 212.589844 1367.800781 206.457031 C 1362.855469 207.988281 1360.855469 218.015625 1359.558594 223.441406 Z M 1294.585938 305.421875 L 1332.722656 315.449219 L 1335.664062 304.125 L 1297.527344 294.097656 Z M 1294.585938 305.421875 " fill-opacity="1" fill-rule="evenodd"/></g><g clip-path="url(#782fa33a72)"><path fill="#000000" d="M 684.257812 165.121094 C 683.539062 164.335938 682.523438 163.886719 681.457031 163.886719 L 533.15625 163.886719 C 532.089844 163.886719 531.074219 164.335938 530.355469 165.121094 C 529.632812 165.90625 529.28125 166.957031 529.375 168.015625 L 542.734375 317.417969 C 542.875 318.980469 543.964844 320.292969 545.476562 320.726562 L 606.25 338.054688 C 606.585938 338.148438 606.933594 338.199219 607.289062 338.199219 C 607.640625 338.199219 607.992188 338.148438 608.328125 338.054688 L 669.148438 320.726562 C 670.660156 320.292969 671.75 318.980469 671.890625 317.417969 L 685.242188 168.015625 C 685.332031 166.953125 684.976562 165.90625 684.257812 165.121094 Z M 652.273438 216.632812 L 580.875 216.632812 L 582.570312 235.921875 L 650.554688 235.921875 L 645.457031 292.914062 L 607.285156 304.4375 L 606.910156 304.324219 L 569.171875 292.910156 L 567.117188 269.679688 L 585.597656 269.679688 L 586.410156 278.699219 L 607.496094 283.109375 L 628.210938 278.691406 L 630.414062 254.304688 L 565.726562 254.304688 L 560.710938 198.199219 L 653.929688 198.199219 Z M 652.273438 216.632812 " fill-opacity="1" fill-rule="nonzero"/></g><g clip-path="url(#bdaead1e5a)"><path fill="#000000" d="M 467.683594 157.351562 L 452.867188 325.117188 L 383.710938 344.851562 L 314.554688 325.117188 L 299.734375 157.351562 Z M 343.207031 265.90625 L 362.964844 265.90625 L 363.449219 278.242188 L 383.710938 285.140625 L 403.96875 278.242188 L 405.4375 256.035156 L 361.980469 256.035156 L 360.980469 236.300781 L 406.441406 236.300781 L 407.90625 216.5625 L 339.753906 216.5625 L 338.265625 196.824219 L 428.667969 196.824219 L 426.199219 236.300781 L 422.726562 293.042969 L 383.710938 305.878906 L 344.691406 293.042969 Z M 343.207031 265.90625 " fill-opacity="1" fill-rule="evenodd"/></g><g clip-path="url(#ebf1a5e7b9)"><path fill="#000000" d="M 58.761719 161.433594 L 58.761719 340.683594 L 238.011719 340.683594 L 238.011719 161.433594 Z M 75.058594 177.726562 L 221.714844 177.726562 L 221.714844 324.386719 L 75.058594 324.386719 Z M 182.96875 242.910156 C 171.355469 242.910156 163.855469 250.339844 163.855469 260.175781 C 163.855469 270.855469 170.117188 275.964844 179.5625 279.988281 L 182.824219 281.386719 C 188.789062 284.019531 192.339844 285.554688 192.339844 290.046875 C 192.339844 293.832031 188.863281 296.554688 183.445312 296.554688 C 177.023438 296.554688 173.371094 293.152344 170.585938 288.582031 L 159.910156 294.691406 C 163.695312 302.277344 171.589844 308.089844 183.746094 308.089844 C 196.132812 308.089844 205.421875 301.667969 205.421875 289.902344 C 205.421875 278.910156 199.148438 274.027344 187.996094 269.308594 L 184.75 267.910156 C 179.101562 265.433594 176.695312 263.808594 176.695312 259.9375 C 176.695312 256.757812 179.097656 254.289062 182.96875 254.289062 C 186.765625 254.289062 189.152344 255.910156 191.402344 259.9375 L 201.632812 253.363281 C 197.300781 245.777344 191.328125 242.910156 182.96875 242.910156 Z M 135.304688 243.6875 L 135.304688 288.199219 C 135.304688 294.699219 132.515625 296.394531 128.257812 296.394531 C 123.765625 296.394531 121.835938 293.304688 119.820312 289.664062 L 109.144531 296.09375 C 112.238281 302.675781 118.34375 308.089844 128.796875 308.089844 C 140.40625 308.089844 148.386719 301.890625 148.386719 288.34375 L 148.386719 243.6875 Z M 135.304688 243.6875 " fill-opacity="1" fill-rule="nonzero"/></g><g fill="#000000" fill-opacity="1"><g transform="translate(990.296215, 374.381339)"><g><path d="M 9.78125 0.09375 C 9.300781 0.03125 8.066406 0 6.078125 0 L 5.59375 0 L 5.59375 -16.578125 L 2.625 -16.578125 C 1.738281 -16.578125 1.21875 -16.53125 1.0625 -16.4375 C 0.90625 -16.351562 0.78125 -16.273438 0.6875 -16.203125 L 0.640625 -16.21875 L 0.640625 -20.0625 L 0.6875 -20.109375 C 1.019531 -19.992188 1.910156 -19.9375 3.359375 -19.9375 L 12.765625 -19.9375 C 13.640625 -19.9375 14.15625 -19.976562 14.3125 -20.0625 C 14.476562 -20.15625 14.601562 -20.238281 14.6875 -20.3125 L 14.734375 -20.296875 L 14.734375 -16.46875 L 14.6875 -16.421875 C 14.363281 -16.523438 13.472656 -16.578125 12.015625 -16.578125 L 9.78125 -16.578125 Z M 9.78125 0.09375 "/></g></g></g><g fill="#000000" fill-opacity="1"><g transform="translate(1005.67189, 374.381339)"><g><path d="M 9.03125 -7.75 C 8.726562 -7.726562 8.40625 -7.71875 8.0625 -7.71875 C 7.726562 -7.71875 7.222656 -7.742188 6.546875 -7.796875 L 6.546875 0 L 2.578125 0 L 2.578125 -20.046875 C 3.972656 -20.222656 5.691406 -20.3125 7.734375 -20.3125 C 10.515625 -20.3125 12.585938 -19.796875 13.953125 -18.765625 C 15.316406 -17.742188 16 -16.164062 16 -14.03125 C 16 -12.375 15.375 -10.957031 14.125 -9.78125 C 13.707031 -9.394531 13.238281 -9.0625 12.71875 -8.78125 L 15.765625 -2.34375 C 16.367188 -1.007812 16.832031 -0.21875 17.15625 0.03125 L 17.078125 0.109375 C 16.109375 -0.0546875 14.582031 -0.0507812 12.5 0.125 Z M 8.015625 -16.78125 C 7.503906 -16.78125 7.015625 -16.753906 6.546875 -16.703125 L 6.546875 -10.96875 C 7.035156 -10.90625 7.609375 -10.875 8.265625 -10.875 C 8.929688 -10.875 9.488281 -10.929688 9.9375 -11.046875 C 10.382812 -11.160156 10.773438 -11.335938 11.109375 -11.578125 C 11.816406 -12.109375 12.171875 -12.898438 12.171875 -13.953125 C 12.171875 -15.015625 11.800781 -15.757812 11.0625 -16.1875 C 10.375 -16.582031 9.359375 -16.78125 8.015625 -16.78125 Z M 8.015625 -16.78125 "/></g></g></g><g fill="#000000" fill-opacity="1"><g transform="translate(1023.550238, 374.381339)"><g><path d="M 4.03125 0.125 C 3.175781 0.0390625 2.171875 0 1.015625 0 L -0.171875 0 L 6.359375 -18.28125 C 6.648438 -19.09375 6.796875 -19.566406 6.796875 -19.703125 C 6.796875 -19.835938 6.789062 -19.921875 6.78125 -19.953125 L 6.796875 -19.984375 C 7.441406 -19.953125 8.128906 -19.9375 8.859375 -19.9375 C 9.460938 -19.9375 10.179688 -19.945312 11.015625 -19.96875 L 11.03125 -19.9375 C 11.007812 -19.894531 11 -19.84375 11 -19.78125 C 11 -19.582031 11.148438 -19.078125 11.453125 -18.265625 L 18.109375 0.046875 C 17.910156 0.0351562 17.675781 0.03125 17.40625 0.03125 C 17.40625 0.03125 17.144531 0.0195312 16.625 0 C 16.375 0 16.148438 0 15.953125 0 L 13.625 0 L 12.21875 -4.3125 L 5.4375 -4.3125 Z M 11.046875 -7.921875 L 8.78125 -14.890625 L 6.578125 -7.921875 Z M 11.046875 -7.921875 "/></g></g></g><g fill="#000000" fill-opacity="1"><g transform="translate(1041.488531, 374.381339)"><g><path d="M 15.171875 -1.453125 C 14.441406 -0.867188 13.488281 -0.414062 12.3125 -0.09375 C 11.144531 0.21875 9.707031 0.375 8 0.375 C 6.300781 0.375 4.492188 0.21875 2.578125 -0.09375 L 2.578125 -19.84375 C 4.515625 -20.15625 6.195312 -20.3125 7.625 -20.3125 C 9.050781 -20.3125 10.21875 -20.175781 11.125 -19.90625 C 12.039062 -19.632812 12.789062 -19.269531 13.375 -18.8125 C 14.507812 -17.925781 15.078125 -16.773438 15.078125 -15.359375 C 15.078125 -13.941406 14.5625 -12.769531 13.53125 -11.84375 C 14.75 -11.46875 15.695312 -10.75 16.375 -9.6875 C 16.976562 -8.738281 17.28125 -7.6875 17.28125 -6.53125 C 17.28125 -5.375 17.113281 -4.382812 16.78125 -3.5625 C 16.445312 -2.75 15.910156 -2.046875 15.171875 -1.453125 Z M 6.546875 -12.390625 C 6.972656 -12.328125 7.5 -12.296875 8.125 -12.296875 C 8.75 -12.296875 9.265625 -12.375 9.671875 -12.53125 C 10.078125 -12.695312 10.390625 -12.90625 10.609375 -13.15625 C 10.972656 -13.570312 11.15625 -14.144531 11.15625 -14.875 C 11.15625 -16.40625 10.253906 -17.171875 8.453125 -17.171875 C 7.691406 -17.171875 7.054688 -17.140625 6.546875 -17.078125 Z M 8.765625 -9.1875 C 7.929688 -9.1875 7.191406 -9.132812 6.546875 -9.03125 L 6.546875 -3.140625 C 7.242188 -2.953125 7.976562 -2.859375 8.75 -2.859375 C 9.519531 -2.859375 10.195312 -2.953125 10.78125 -3.140625 C 11.363281 -3.328125 11.859375 -3.578125 12.265625 -3.890625 C 13.078125 -4.554688 13.484375 -5.398438 13.484375 -6.421875 C 13.484375 -8.265625 11.910156 -9.1875 8.765625 -9.1875 Z M 8.765625 -9.1875 "/></g></g></g><g fill="#000000" fill-opacity="1"><g transform="translate(1059.426824, 374.381339)"><g><path d="M 4.03125 0.125 C 3.175781 0.0390625 2.171875 0 1.015625 0 L -0.171875 0 L 6.359375 -18.28125 C 6.648438 -19.09375 6.796875 -19.566406 6.796875 -19.703125 C 6.796875 -19.835938 6.789062 -19.921875 6.78125 -19.953125 L 6.796875 -19.984375 C 7.441406 -19.953125 8.128906 -19.9375 8.859375 -19.9375 C 9.460938 -19.9375 10.179688 -19.945312 11.015625 -19.96875 L 11.03125 -19.9375 C 11.007812 -19.894531 11 -19.84375 11 -19.78125 C 11 -19.582031 11.148438 -19.078125 11.453125 -18.265625 L 18.109375 0.046875 C 17.910156 0.0351562 17.675781 0.03125 17.40625 0.03125 C 17.40625 0.03125 17.144531 0.0195312 16.625 0 C 16.375 0 16.148438 0 15.953125 0 L 13.625 0 L 12.21875 -4.3125 L 5.4375 -4.3125 Z M 11.046875 -7.921875 L 8.78125 -14.890625 L 6.578125 -7.921875 Z M 11.046875 -7.921875 "/></g></g></g><g fill="#000000" fill-opacity="1"><g transform="translate(1077.365117, 374.381339)"><g><path d="M 5.5 0 C 4.03125 0 3.054688 0.03125 2.578125 0.09375 L 2.578125 -20.03125 C 2.816406 -19.96875 3.3125 -19.9375 4.0625 -19.9375 C 4.820312 -19.9375 5.703125 -19.957031 6.703125 -20 L 6.703125 -3.59375 L 9.796875 -3.59375 C 10.703125 -3.59375 11.425781 -3.625 11.96875 -3.6875 C 11.894531 -1.351562 11.859375 -0.140625 11.859375 -0.046875 L 11.859375 0.109375 C 10.878906 0.0351562 9.234375 0 6.921875 0 Z M 5.5 0 "/></g></g></g><g fill="#000000" fill-opacity="1"><g transform="translate(1090.178184, 374.381339)"><g><path d="M 6.625 0.09375 C 5.664062 0.03125 4.523438 0 3.203125 0 L 2.734375 0 L 2.734375 -20.015625 C 3.347656 -19.960938 3.785156 -19.9375 4.046875 -19.9375 L 4.65625 -19.9375 C 5.445312 -19.9375 6.101562 -19.976562 6.625 -20.0625 L 6.625 -12.0625 L 13.671875 -12.0625 L 13.671875 -20.015625 C 14.503906 -19.960938 15.3125 -19.9375 16.09375 -19.9375 C 16.875 -19.9375 17.367188 -19.976562 17.578125 -20.0625 L 17.578125 0.09375 C 17.085938 0.03125 16.132812 0 14.71875 0 L 13.671875 0 L 13.671875 -8.46875 L 6.625 -8.46875 Z M 6.625 0.09375 "/></g></g></g><g fill="#000000" fill-opacity="1"><g transform="translate(1110.619139, 374.381339)"><g><path d="M 4.203125 -2.359375 C 3.296875 -3.234375 2.582031 -4.28125 2.0625 -5.5 C 1.539062 -6.71875 1.28125 -8.050781 1.28125 -9.5 C 1.28125 -10.957031 1.523438 -12.335938 2.015625 -13.640625 C 2.503906 -14.941406 3.203125 -16.085938 4.109375 -17.078125 C 5.015625 -18.066406 6.113281 -18.851562 7.40625 -19.4375 C 8.695312 -20.019531 10.140625 -20.3125 11.734375 -20.3125 C 14.492188 -20.3125 16.816406 -19.441406 18.703125 -17.703125 C 20.722656 -15.847656 21.734375 -13.335938 21.734375 -10.171875 C 21.734375 -7.117188 20.695312 -4.578125 18.625 -2.546875 C 17.34375 -1.296875 15.816406 -0.4375 14.046875 0.03125 C 13.179688 0.257812 12.164062 0.375 11 0.375 C 9.832031 0.375 8.632812 0.132812 7.40625 -0.34375 C 6.1875 -0.820312 5.117188 -1.492188 4.203125 -2.359375 Z M 5.4375 -9.71875 C 5.4375 -8.789062 5.59375 -7.9375 5.90625 -7.15625 C 6.21875 -6.375 6.648438 -5.703125 7.203125 -5.140625 C 8.367188 -3.960938 9.867188 -3.375 11.703125 -3.375 C 13.453125 -3.375 14.859375 -3.9375 15.921875 -5.0625 C 17.003906 -6.238281 17.546875 -7.832031 17.546875 -9.84375 C 17.546875 -11.75 17.03125 -13.335938 16 -14.609375 C 14.882812 -15.960938 13.363281 -16.640625 11.4375 -16.640625 C 9.570312 -16.640625 8.085938 -15.953125 6.984375 -14.578125 C 5.953125 -13.285156 5.4375 -11.664062 5.4375 -9.71875 Z M 5.4375 -9.71875 "/></g></g></g><g fill="#000000" fill-opacity="1"><g transform="translate(987.718091, 417.131337)"><g><path d="M 12.609375 -3.59375 C 13.222656 -3.59375 13.648438 -3.65625 13.890625 -3.78125 L 13.953125 -3.765625 L 13.8125 0 L 2.578125 0 L 2.578125 -20.046875 C 2.847656 -20.023438 3.148438 -20.007812 3.484375 -20 L 4.53125 -19.96875 C 5.226562 -19.945312 5.988281 -19.9375 6.8125 -19.9375 C 9.09375 -19.9375 11.351562 -19.976562 13.59375 -20.0625 C 13.488281 -19.175781 13.4375 -18 13.4375 -16.53125 C 13.4375 -16.375 13.445312 -16.253906 13.46875 -16.171875 L 13.4375 -16.125 C 12.914062 -16.28125 12.175781 -16.359375 11.21875 -16.359375 L 6.484375 -16.359375 L 6.484375 -12.53125 L 10.046875 -12.53125 C 11.140625 -12.53125 11.796875 -12.5625 12.015625 -12.625 L 12.0625 -8.921875 C 11.582031 -8.972656 10.960938 -9 10.203125 -9 L 6.484375 -9 L 6.484375 -3.59375 Z M 12.609375 -3.59375 "/></g></g></g><g fill="#000000" fill-opacity="1"><g transform="translate(1003.093765, 417.131337)"><g><path d="M 6.625 0.09375 C 6.144531 0.03125 5.222656 0 3.859375 0 L 2.65625 0 L 2.65625 -20 C 3.289062 -19.957031 3.992188 -19.9375 4.765625 -19.9375 C 5.535156 -19.9375 6.082031 -19.976562 6.40625 -20.0625 L 11.4375 -11.5 L 16.28125 -20.0625 C 16.601562 -19.976562 17.210938 -19.9375 18.109375 -19.9375 C 19.003906 -19.9375 19.773438 -19.957031 20.421875 -20 L 20.421875 0 L 19.21875 0 C 17.851562 0 16.929688 0.03125 16.453125 0.09375 L 16.453125 -13.34375 L 11.546875 -4.578125 L 6.625 -12.640625 Z M 6.625 0.09375 "/></g></g></g><g fill="#000000" fill-opacity="1"><g transform="translate(1026.157282, 417.131337)"><g/></g></g><g fill="#000000" fill-opacity="1"><g transform="translate(1036.332807, 417.131337)"><g><path d="M 12.609375 -3.59375 C 13.222656 -3.59375 13.648438 -3.65625 13.890625 -3.78125 L 13.953125 -3.765625 L 13.8125 0 L 2.578125 0 L 2.578125 -20.046875 C 2.847656 -20.023438 3.148438 -20.007812 3.484375 -20 L 4.53125 -19.96875 C 5.226562 -19.945312 5.988281 -19.9375 6.8125 -19.9375 C 9.09375 -19.9375 11.351562 -19.976562 13.59375 -20.0625 C 13.488281 -19.175781 13.4375 -18 13.4375 -16.53125 C 13.4375 -16.375 13.445312 -16.253906 13.46875 -16.171875 L 13.4375 -16.125 C 12.914062 -16.28125 12.175781 -16.359375 11.21875 -16.359375 L 6.484375 -16.359375 L 6.484375 -12.53125 L 10.046875 -12.53125 C 11.140625 -12.53125 11.796875 -12.5625 12.015625 -12.625 L 12.0625 -8.921875 C 11.582031 -8.972656 10.960938 -9 10.203125 -9 L 6.484375 -9 L 6.484375 -3.59375 Z M 12.609375 -3.59375 "/></g></g></g><g fill="#000000" fill-opacity="1"><g transform="translate(1051.708482, 417.131337)"><g><path d="M 13.765625 0.09375 C 12.921875 0.28125 11.945312 0.375 10.84375 0.375 C 9.75 0.375 8.585938 0.132812 7.359375 -0.34375 C 6.140625 -0.820312 5.078125 -1.5 4.171875 -2.375 C 2.210938 -4.238281 1.234375 -6.628906 1.234375 -9.546875 C 1.234375 -12.503906 2.179688 -15.015625 4.078125 -17.078125 C 6.078125 -19.234375 8.625 -20.3125 11.71875 -20.3125 C 14.539062 -20.3125 16.878906 -19.421875 18.734375 -17.640625 C 20.703125 -15.742188 21.6875 -13.253906 21.6875 -10.171875 C 21.6875 -7.703125 20.988281 -5.546875 19.59375 -3.703125 C 19.15625 -3.117188 18.664062 -2.597656 18.125 -2.140625 C 18.488281 -2.046875 18.921875 -1.882812 19.421875 -1.65625 C 20.515625 -1.144531 21.546875 -0.878906 22.515625 -0.859375 L 22.8125 -0.859375 C 23.332031 -0.859375 23.679688 -0.925781 23.859375 -1.0625 L 23.90625 -1.015625 L 22.765625 1.84375 C 22.628906 2.269531 22.367188 2.484375 21.984375 2.484375 C 21.410156 2.484375 20.828125 2.363281 20.234375 2.125 C 19.648438 1.882812 19.125 1.660156 18.65625 1.453125 C 18.1875 1.242188 17.742188 1.054688 17.328125 0.890625 C 16.910156 0.734375 16.507812 0.601562 16.125 0.5 C 15.476562 0.3125 14.691406 0.175781 13.765625 0.09375 Z M 5.25 -9.71875 C 5.25 -8.789062 5.410156 -7.925781 5.734375 -7.125 C 6.054688 -6.332031 6.503906 -5.644531 7.078125 -5.0625 C 8.296875 -3.832031 9.820312 -3.21875 11.65625 -3.21875 C 13.414062 -3.21875 14.851562 -3.8125 15.96875 -5 C 17.113281 -6.226562 17.6875 -7.84375 17.6875 -9.84375 C 17.6875 -11.75 17.148438 -13.335938 16.078125 -14.609375 C 14.898438 -15.960938 13.347656 -16.640625 11.421875 -16.640625 C 9.546875 -16.640625 8.023438 -15.953125 6.859375 -14.578125 C 5.785156 -13.273438 5.25 -11.65625 5.25 -9.71875 Z M 5.25 -9.71875 "/></g></g></g><g fill="#000000" fill-opacity="1"><g transform="translate(1074.712054, 417.131337)"><g><path d="M 13.9375 -20.015625 C 14.5625 -19.960938 15.078125 -19.9375 15.484375 -19.9375 L 16.734375 -19.9375 C 17.148438 -19.9375 17.585938 -19.976562 18.046875 -20.0625 L 18.046875 -7.65625 C 18.046875 -5.195312 17.300781 -3.222656 15.8125 -1.734375 C 14.40625 -0.328125 12.640625 0.375 10.515625 0.375 C 8.179688 0.375 6.296875 -0.226562 4.859375 -1.4375 C 3.242188 -2.800781 2.4375 -4.757812 2.4375 -7.3125 L 2.4375 -20.015625 C 3.269531 -19.960938 4.050781 -19.9375 4.78125 -19.9375 C 5.519531 -19.9375 6.128906 -19.976562 6.609375 -20.0625 L 6.609375 -7.125 C 6.609375 -5.863281 6.992188 -4.882812 7.765625 -4.1875 C 8.484375 -3.539062 9.382812 -3.21875 10.46875 -3.21875 C 12.0625 -3.21875 13.125 -4.039062 13.65625 -5.6875 C 13.84375 -6.269531 13.9375 -7 13.9375 -7.875 Z M 13.9375 -20.015625 "/></g></g></g><g fill="#000000" fill-opacity="1"><g transform="translate(1095.212954, 417.131337)"><g><path d="M 3.046875 -20 C 4.046875 -19.957031 4.648438 -19.9375 4.859375 -19.9375 L 5.9375 -19.9375 C 6.46875 -19.9375 6.894531 -19.976562 7.21875 -20.0625 L 7.203125 0 L 3.046875 0 Z M 3.046875 -20 "/></g></g></g><g fill="#000000" fill-opacity="1"><g transform="translate(1105.463403, 417.131337)"><g><path d="M 2.296875 -20.046875 C 3.679688 -20.222656 5.101562 -20.3125 6.5625 -20.3125 C 9.28125 -20.3125 11.347656 -19.671875 12.765625 -18.390625 C 14.179688 -17.117188 14.890625 -15.21875 14.890625 -12.6875 C 14.890625 -10.414062 14.113281 -8.617188 12.5625 -7.296875 C 11.113281 -6.054688 9.25 -5.4375 6.96875 -5.4375 C 6.707031 -5.4375 6.421875 -5.453125 6.109375 -5.484375 L 6.109375 0 L 2.296875 0 Z M 7.015625 -16.703125 C 6.710938 -16.703125 6.410156 -16.691406 6.109375 -16.671875 L 6.109375 -8.78125 C 6.429688 -8.738281 6.820312 -8.71875 7.28125 -8.71875 C 7.738281 -8.71875 8.21875 -8.816406 8.71875 -9.015625 C 9.21875 -9.210938 9.640625 -9.484375 9.984375 -9.828125 C 10.691406 -10.554688 11.046875 -11.519531 11.046875 -12.71875 C 11.046875 -15.375 9.703125 -16.703125 7.015625 -16.703125 Z M 7.015625 -16.703125 "/></g></g></g><g fill="#000000" fill-opacity="1"><g transform="translate(1120.839078, 417.131337)"><g><path d="M 12.609375 -3.59375 C 13.222656 -3.59375 13.648438 -3.65625 13.890625 -3.78125 L 13.953125 -3.765625 L 13.8125 0 L 2.578125 0 L 2.578125 -20.046875 C 2.847656 -20.023438 3.148438 -20.007812 3.484375 -20 L 4.53125 -19.96875 C 5.226562 -19.945312 5.988281 -19.9375 6.8125 -19.9375 C 9.09375 -19.9375 11.351562 -19.976562 13.59375 -20.0625 C 13.488281 -19.175781 13.4375 -18 13.4375 -16.53125 C 13.4375 -16.375 13.445312 -16.253906 13.46875 -16.171875 L 13.4375 -16.125 C 12.914062 -16.28125 12.175781 -16.359375 11.21875 -16.359375 L 6.484375 -16.359375 L 6.484375 -12.53125 L 10.046875 -12.53125 C 11.140625 -12.53125 11.796875 -12.5625 12.015625 -12.625 L 12.0625 -8.921875 C 11.582031 -8.972656 10.960938 -9 10.203125 -9 L 6.484375 -9 L 6.484375 -3.59375 Z M 12.609375 -3.59375 "/></g></g></g><g fill="#000000" fill-opacity="1"><g transform="translate(1180.294646, 377.453615)"><g><path d="M 14.625 -18.84375 L 14.34375 -14.421875 L 14.234375 -14.40625 C 13.492188 -15.507812 12.234375 -16.226562 10.453125 -16.5625 C 9.890625 -16.664062 9.347656 -16.71875 8.828125 -16.71875 C 8.316406 -16.71875 7.878906 -16.671875 7.515625 -16.578125 C 7.148438 -16.492188 6.835938 -16.367188 6.578125 -16.203125 C 6.035156 -15.835938 5.765625 -15.367188 5.765625 -14.796875 C 5.765625 -14.035156 6.003906 -13.460938 6.484375 -13.078125 C 7.078125 -12.617188 8.066406 -12.296875 9.453125 -12.109375 C 10.847656 -11.921875 11.960938 -11.664062 12.796875 -11.34375 C 13.640625 -11.03125 14.332031 -10.628906 14.875 -10.140625 C 15.894531 -9.222656 16.40625 -7.921875 16.40625 -6.234375 C 16.40625 -4.035156 15.578125 -2.34375 13.921875 -1.15625 C 12.503906 -0.132812 10.710938 0.375 8.546875 0.375 C 6.804688 0.375 5.085938 0.046875 3.390625 -0.609375 C 2.828125 -0.828125 2.335938 -1.082031 1.921875 -1.375 L 2.078125 -6.390625 L 2.140625 -6.4375 C 3.378906 -4.289062 5.414062 -3.21875 8.25 -3.21875 C 10.257812 -3.21875 11.585938 -3.707031 12.234375 -4.6875 C 12.453125 -5.007812 12.5625 -5.375 12.5625 -5.78125 C 12.5625 -6.1875 12.492188 -6.519531 12.359375 -6.78125 C 12.234375 -7.050781 12.023438 -7.28125 11.734375 -7.46875 C 11.148438 -7.851562 10.171875 -8.109375 8.796875 -8.234375 C 7.429688 -8.359375 6.3125 -8.601562 5.4375 -8.96875 C 4.570312 -9.332031 3.878906 -9.773438 3.359375 -10.296875 C 2.421875 -11.265625 1.953125 -12.609375 1.953125 -14.328125 C 1.953125 -16.109375 2.578125 -17.546875 3.828125 -18.640625 C 5.097656 -19.765625 6.804688 -20.328125 8.953125 -20.328125 C 11.109375 -20.328125 13 -19.832031 14.625 -18.84375 Z M 14.625 -18.84375 "/></g></g></g><g fill="#000000" fill-opacity="1"><g transform="translate(1198.186648, 377.453615)"><g><path d="M 4.203125 -2.359375 C 3.296875 -3.234375 2.582031 -4.28125 2.0625 -5.5 C 1.539062 -6.71875 1.28125 -8.054688 1.28125 -9.515625 C 1.28125 -10.972656 1.523438 -12.347656 2.015625 -13.640625 C 2.503906 -14.941406 3.203125 -16.085938 4.109375 -17.078125 C 5.015625 -18.066406 6.113281 -18.851562 7.40625 -19.4375 C 8.695312 -20.03125 10.144531 -20.328125 11.75 -20.328125 C 14.507812 -20.328125 16.832031 -19.457031 18.71875 -17.71875 C 20.738281 -15.851562 21.75 -13.34375 21.75 -10.1875 C 21.75 -7.125 20.707031 -4.578125 18.625 -2.546875 C 17.34375 -1.296875 15.816406 -0.4375 14.046875 0.03125 C 13.179688 0.257812 12.164062 0.375 11 0.375 C 9.832031 0.375 8.632812 0.132812 7.40625 -0.34375 C 6.1875 -0.820312 5.117188 -1.492188 4.203125 -2.359375 Z M 5.4375 -9.71875 C 5.4375 -8.789062 5.59375 -7.9375 5.90625 -7.15625 C 6.21875 -6.375 6.648438 -5.703125 7.203125 -5.140625 C 8.367188 -3.960938 9.875 -3.375 11.71875 -3.375 C 13.46875 -3.375 14.867188 -3.9375 15.921875 -5.0625 C 17.003906 -6.238281 17.546875 -7.835938 17.546875 -9.859375 C 17.546875 -11.753906 17.03125 -13.335938 16 -14.609375 C 14.894531 -15.972656 13.375 -16.65625 11.4375 -16.65625 C 9.570312 -16.65625 8.085938 -15.960938 6.984375 -14.578125 C 5.953125 -13.285156 5.4375 -11.664062 5.4375 -9.71875 Z M 5.4375 -9.71875 "/></g></g></g><g fill="#000000" fill-opacity="1"><g transform="translate(1221.207788, 377.453615)"><g><path d="M 5.5 0 C 4.03125 0 3.054688 0.03125 2.578125 0.09375 L 2.578125 -20.046875 C 2.816406 -19.984375 3.3125 -19.953125 4.0625 -19.953125 C 4.820312 -19.953125 5.703125 -19.972656 6.703125 -20.015625 L 6.703125 -3.59375 L 9.8125 -3.59375 C 10.707031 -3.59375 11.425781 -3.625 11.96875 -3.6875 C 11.894531 -1.351562 11.859375 -0.140625 11.859375 -0.046875 L 11.859375 0.109375 C 10.878906 0.0351562 9.238281 0 6.9375 0 Z M 5.5 0 "/></g></g></g><g fill="#000000" fill-opacity="1"><g transform="translate(1234.03064, 377.453615)"><g><path d="M 3.046875 -20.015625 C 4.046875 -19.972656 4.648438 -19.953125 4.859375 -19.953125 L 5.9375 -19.953125 C 6.46875 -19.953125 6.894531 -19.988281 7.21875 -20.0625 L 7.203125 0 L 3.046875 0 Z M 3.046875 -20.015625 "/></g></g></g><g fill="#000000" fill-opacity="1"><g transform="translate(1244.288917, 377.453615)"><g><path d="M 7.4375 0.375 C 5.820312 0.375 4.296875 0.242188 2.859375 -0.015625 L 2.859375 -20.078125 C 4.179688 -20.242188 5.710938 -20.328125 7.453125 -20.328125 C 9.203125 -20.328125 10.785156 -20.085938 12.203125 -19.609375 C 13.617188 -19.140625 14.800781 -18.460938 15.75 -17.578125 C 17.664062 -15.816406 18.625 -13.351562 18.625 -10.1875 C 18.625 -6.632812 17.554688 -3.9375 15.421875 -2.09375 C 13.503906 -0.445312 10.84375 0.375 7.4375 0.375 Z M 6.765625 -3.28125 C 7.410156 -3.164062 8.054688 -3.109375 8.703125 -3.109375 C 9.359375 -3.109375 10.0625 -3.234375 10.8125 -3.484375 C 11.5625 -3.742188 12.210938 -4.144531 12.765625 -4.6875 C 13.941406 -5.820312 14.53125 -7.476562 14.53125 -9.65625 C 14.53125 -13.238281 13.226562 -15.441406 10.625 -16.265625 C 9.757812 -16.535156 8.765625 -16.671875 7.640625 -16.671875 L 7.234375 -16.671875 C 7.078125 -16.671875 6.921875 -16.664062 6.765625 -16.65625 Z M 6.765625 -3.28125 "/></g></g></g><g fill="#000000" fill-opacity="1"><g transform="translate(1264.745482, 377.453615)"><g><path d="M 4.03125 0.125 C 3.175781 0.0390625 2.171875 0 1.015625 0 L -0.171875 0 L 6.359375 -18.28125 C 6.648438 -19.101562 6.796875 -19.582031 6.796875 -19.71875 C 6.796875 -19.851562 6.789062 -19.9375 6.78125 -19.96875 L 6.796875 -20 C 7.441406 -19.96875 8.128906 -19.953125 8.859375 -19.953125 C 9.460938 -19.953125 10.1875 -19.960938 11.03125 -19.984375 L 11.046875 -19.953125 C 11.023438 -19.910156 11.015625 -19.851562 11.015625 -19.78125 C 11.015625 -19.59375 11.160156 -19.085938 11.453125 -18.265625 L 18.125 0.046875 C 17.914062 0.0351562 17.679688 0.03125 17.421875 0.03125 C 17.421875 0.03125 17.160156 0.0195312 16.640625 0 C 16.390625 0 16.160156 0 15.953125 0 L 13.640625 0 L 12.21875 -4.3125 L 5.4375 -4.3125 Z M 11.046875 -7.921875 L 8.796875 -14.890625 L 6.578125 -7.921875 Z M 11.046875 -7.921875 "/></g></g></g><g fill="#000000" fill-opacity="1"><g transform="translate(1282.697473, 377.453615)"><g><path d="M 9.03125 -7.75 C 8.726562 -7.726562 8.40625 -7.71875 8.0625 -7.71875 C 7.726562 -7.71875 7.226562 -7.742188 6.5625 -7.796875 L 6.5625 0 L 2.578125 0 L 2.578125 -20.046875 C 3.984375 -20.234375 5.703125 -20.328125 7.734375 -20.328125 C 10.515625 -20.328125 12.585938 -19.8125 13.953125 -18.78125 C 15.316406 -17.757812 16 -16.179688 16 -14.046875 C 16 -12.378906 15.375 -10.957031 14.125 -9.78125 C 13.71875 -9.394531 13.25 -9.066406 12.71875 -8.796875 L 15.78125 -2.34375 C 16.375 -1.007812 16.832031 -0.21875 17.15625 0.03125 L 17.078125 0.109375 C 16.109375 -0.0546875 14.585938 -0.0507812 12.515625 0.125 Z M 8.03125 -16.78125 C 7.519531 -16.78125 7.03125 -16.753906 6.5625 -16.703125 L 6.5625 -10.984375 C 7.050781 -10.910156 7.625 -10.875 8.28125 -10.875 C 8.9375 -10.875 9.488281 -10.929688 9.9375 -11.046875 C 10.394531 -11.160156 10.785156 -11.335938 11.109375 -11.578125 C 11.816406 -12.109375 12.171875 -12.898438 12.171875 -13.953125 C 12.171875 -15.015625 11.800781 -15.765625 11.0625 -16.203125 C 10.375 -16.585938 9.363281 -16.78125 8.03125 -16.78125 Z M 8.03125 -16.78125 "/></g></g></g><g fill="#000000" fill-opacity="1"><g transform="translate(1300.589474, 377.453615)"><g><path d="M 3.046875 -20.015625 C 4.046875 -19.972656 4.648438 -19.953125 4.859375 -19.953125 L 5.9375 -19.953125 C 6.46875 -19.953125 6.894531 -19.988281 7.21875 -20.0625 L 7.203125 0 L 3.046875 0 Z M 3.046875 -20.015625 "/></g></g></g><g fill="#000000" fill-opacity="1"><g transform="translate(1310.847752, 377.453615)"><g><path d="M 12.609375 -3.59375 C 13.234375 -3.59375 13.664062 -3.65625 13.90625 -3.78125 L 13.96875 -3.765625 L 13.8125 0 L 2.578125 0 L 2.578125 -20.046875 C 2.847656 -20.035156 3.148438 -20.023438 3.484375 -20.015625 L 4.53125 -19.984375 C 5.226562 -19.960938 5.988281 -19.953125 6.8125 -19.953125 C 9.101562 -19.953125 11.367188 -19.988281 13.609375 -20.0625 C 13.492188 -19.1875 13.4375 -18.015625 13.4375 -16.546875 C 13.4375 -16.378906 13.445312 -16.257812 13.46875 -16.1875 L 13.4375 -16.140625 C 12.914062 -16.285156 12.175781 -16.359375 11.21875 -16.359375 L 6.5 -16.359375 L 6.5 -12.546875 L 10.046875 -12.546875 C 11.148438 -12.546875 11.8125 -12.570312 12.03125 -12.625 L 12.078125 -8.921875 C 11.597656 -8.972656 10.976562 -9 10.21875 -9 L 6.5 -9 L 6.5 -3.59375 Z M 12.609375 -3.59375 "/></g></g></g><g fill="#000000" fill-opacity="1"><g transform="translate(1326.235168, 377.453615)"><g><path d="M 7.4375 0.375 C 5.820312 0.375 4.296875 0.242188 2.859375 -0.015625 L 2.859375 -20.078125 C 4.179688 -20.242188 5.710938 -20.328125 7.453125 -20.328125 C 9.203125 -20.328125 10.785156 -20.085938 12.203125 -19.609375 C 13.617188 -19.140625 14.800781 -18.460938 15.75 -17.578125 C 17.664062 -15.816406 18.625 -13.351562 18.625 -10.1875 C 18.625 -6.632812 17.554688 -3.9375 15.421875 -2.09375 C 13.503906 -0.445312 10.84375 0.375 7.4375 0.375 Z M 6.765625 -3.28125 C 7.410156 -3.164062 8.054688 -3.109375 8.703125 -3.109375 C 9.359375 -3.109375 10.0625 -3.234375 10.8125 -3.484375 C 11.5625 -3.742188 12.210938 -4.144531 12.765625 -4.6875 C 13.941406 -5.820312 14.53125 -7.476562 14.53125 -9.65625 C 14.53125 -13.238281 13.226562 -15.441406 10.625 -16.265625 C 9.757812 -16.535156 8.765625 -16.671875 7.640625 -16.671875 L 7.234375 -16.671875 C 7.078125 -16.671875 6.921875 -16.664062 6.765625 -16.65625 Z M 6.765625 -3.28125 "/></g></g></g><g fill="#000000" fill-opacity="1"><g transform="translate(1346.691733, 377.453615)"><g><path d="M 4.03125 0.125 C 3.175781 0.0390625 2.171875 0 1.015625 0 L -0.171875 0 L 6.359375 -18.28125 C 6.648438 -19.101562 6.796875 -19.582031 6.796875 -19.71875 C 6.796875 -19.851562 6.789062 -19.9375 6.78125 -19.96875 L 6.796875 -20 C 7.441406 -19.96875 8.128906 -19.953125 8.859375 -19.953125 C 9.460938 -19.953125 10.1875 -19.960938 11.03125 -19.984375 L 11.046875 -19.953125 C 11.023438 -19.910156 11.015625 -19.851562 11.015625 -19.78125 C 11.015625 -19.59375 11.160156 -19.085938 11.453125 -18.265625 L 18.125 0.046875 C 17.914062 0.0351562 17.679688 0.03125 17.421875 0.03125 C 17.421875 0.03125 17.160156 0.0195312 16.640625 0 C 16.390625 0 16.160156 0 15.953125 0 L 13.640625 0 L 12.21875 -4.3125 L 5.4375 -4.3125 Z M 11.046875 -7.921875 L 8.796875 -14.890625 L 6.578125 -7.921875 Z M 11.046875 -7.921875 "/></g></g></g><g fill="#000000" fill-opacity="1"><g transform="translate(1364.643723, 377.453615)"><g><path d="M 7.4375 0.375 C 5.820312 0.375 4.296875 0.242188 2.859375 -0.015625 L 2.859375 -20.078125 C 4.179688 -20.242188 5.710938 -20.328125 7.453125 -20.328125 C 9.203125 -20.328125 10.785156 -20.085938 12.203125 -19.609375 C 13.617188 -19.140625 14.800781 -18.460938 15.75 -17.578125 C 17.664062 -15.816406 18.625 -13.351562 18.625 -10.1875 C 18.625 -6.632812 17.554688 -3.9375 15.421875 -2.09375 C 13.503906 -0.445312 10.84375 0.375 7.4375 0.375 Z M 6.765625 -3.28125 C 7.410156 -3.164062 8.054688 -3.109375 8.703125 -3.109375 C 9.359375 -3.109375 10.0625 -3.234375 10.8125 -3.484375 C 11.5625 -3.742188 12.210938 -4.144531 12.765625 -4.6875 C 13.941406 -5.820312 14.53125 -7.476562 14.53125 -9.65625 C 14.53125 -13.238281 13.226562 -15.441406 10.625 -16.265625 C 9.757812 -16.535156 8.765625 -16.671875 7.640625 -16.671875 L 7.234375 -16.671875 C 7.078125 -16.671875 6.921875 -16.664062 6.765625 -16.65625 Z M 6.765625 -3.28125 "/></g></g></g><g fill="#000000" fill-opacity="1"><g transform="translate(1385.100299, 377.453615)"><g><path d="M 12.609375 -3.59375 C 13.234375 -3.59375 13.664062 -3.65625 13.90625 -3.78125 L 13.96875 -3.765625 L 13.8125 0 L 2.578125 0 L 2.578125 -20.046875 C 2.847656 -20.035156 3.148438 -20.023438 3.484375 -20.015625 L 4.53125 -19.984375 C 5.226562 -19.960938 5.988281 -19.953125 6.8125 -19.953125 C 9.101562 -19.953125 11.367188 -19.988281 13.609375 -20.0625 C 13.492188 -19.1875 13.4375 -18.015625 13.4375 -16.546875 C 13.4375 -16.378906 13.445312 -16.257812 13.46875 -16.1875 L 13.4375 -16.140625 C 12.914062 -16.285156 12.175781 -16.359375 11.21875 -16.359375 L 6.5 -16.359375 L 6.5 -12.546875 L 10.046875 -12.546875 C 11.148438 -12.546875 11.8125 -12.570312 12.03125 -12.625 L 12.078125 -8.921875 C 11.597656 -8.972656 10.976562 -9 10.21875 -9 L 6.5 -9 L 6.5 -3.59375 Z M 12.609375 -3.59375 "/></g></g></g><g fill="#000000" fill-opacity="1"><g transform="translate(735.542258, 395.756338)"><g><path d="M 14.625 -18.84375 L 14.34375 -14.421875 L 14.234375 -14.40625 C 13.492188 -15.507812 12.234375 -16.226562 10.453125 -16.5625 C 9.890625 -16.664062 9.347656 -16.71875 8.828125 -16.71875 C 8.316406 -16.71875 7.878906 -16.671875 7.515625 -16.578125 C 7.148438 -16.492188 6.835938 -16.367188 6.578125 -16.203125 C 6.035156 -15.835938 5.765625 -15.367188 5.765625 -14.796875 C 5.765625 -14.035156 6.003906 -13.460938 6.484375 -13.078125 C 7.078125 -12.617188 8.066406 -12.296875 9.453125 -12.109375 C 10.847656 -11.921875 11.960938 -11.664062 12.796875 -11.34375 C 13.640625 -11.03125 14.332031 -10.628906 14.875 -10.140625 C 15.894531 -9.222656 16.40625 -7.921875 16.40625 -6.234375 C 16.40625 -4.035156 15.578125 -2.34375 13.921875 -1.15625 C 12.503906 -0.132812 10.710938 0.375 8.546875 0.375 C 6.804688 0.375 5.085938 0.046875 3.390625 -0.609375 C 2.828125 -0.828125 2.335938 -1.082031 1.921875 -1.375 L 2.078125 -6.390625 L 2.140625 -6.4375 C 3.378906 -4.289062 5.414062 -3.21875 8.25 -3.21875 C 10.257812 -3.21875 11.585938 -3.707031 12.234375 -4.6875 C 12.453125 -5.007812 12.5625 -5.375 12.5625 -5.78125 C 12.5625 -6.1875 12.492188 -6.519531 12.359375 -6.78125 C 12.234375 -7.050781 12.023438 -7.28125 11.734375 -7.46875 C 11.148438 -7.851562 10.171875 -8.109375 8.796875 -8.234375 C 7.429688 -8.359375 6.3125 -8.601562 5.4375 -8.96875 C 4.570312 -9.332031 3.878906 -9.773438 3.359375 -10.296875 C 2.421875 -11.265625 1.953125 -12.609375 1.953125 -14.328125 C 1.953125 -16.109375 2.578125 -17.546875 3.828125 -18.640625 C 5.097656 -19.765625 6.804688 -20.328125 8.953125 -20.328125 C 11.109375 -20.328125 13 -19.832031 14.625 -18.84375 Z M 14.625 -18.84375 "/></g></g></g><g fill="#000000" fill-opacity="1"><g transform="translate(753.43426, 395.756338)"><g><path d="M 4.203125 -2.359375 C 3.296875 -3.234375 2.582031 -4.28125 2.0625 -5.5 C 1.539062 -6.71875 1.28125 -8.054688 1.28125 -9.515625 C 1.28125 -10.972656 1.523438 -12.347656 2.015625 -13.640625 C 2.503906 -14.941406 3.203125 -16.085938 4.109375 -17.078125 C 5.015625 -18.066406 6.113281 -18.851562 7.40625 -19.4375 C 8.695312 -20.03125 10.144531 -20.328125 11.75 -20.328125 C 14.507812 -20.328125 16.832031 -19.457031 18.71875 -17.71875 C 20.738281 -15.851562 21.75 -13.34375 21.75 -10.1875 C 21.75 -7.125 20.707031 -4.578125 18.625 -2.546875 C 17.34375 -1.296875 15.816406 -0.4375 14.046875 0.03125 C 13.179688 0.257812 12.164062 0.375 11 0.375 C 9.832031 0.375 8.632812 0.132812 7.40625 -0.34375 C 6.1875 -0.820312 5.117188 -1.492188 4.203125 -2.359375 Z M 5.4375 -9.71875 C 5.4375 -8.789062 5.59375 -7.9375 5.90625 -7.15625 C 6.21875 -6.375 6.648438 -5.703125 7.203125 -5.140625 C 8.367188 -3.960938 9.875 -3.375 11.71875 -3.375 C 13.46875 -3.375 14.867188 -3.9375 15.921875 -5.0625 C 17.003906 -6.238281 17.546875 -7.835938 17.546875 -9.859375 C 17.546875 -11.753906 17.03125 -13.335938 16 -14.609375 C 14.894531 -15.972656 13.375 -16.65625 11.4375 -16.65625 C 9.570312 -16.65625 8.085938 -15.960938 6.984375 -14.578125 C 5.953125 -13.285156 5.4375 -11.664062 5.4375 -9.71875 Z M 5.4375 -9.71875 "/></g></g></g><g fill="#000000" fill-opacity="1"><g transform="translate(776.4554, 395.756338)"><g><path d="M 13.09375 -8.625 C 12.613281 -8.675781 11.992188 -8.703125 11.234375 -8.703125 L 6.6875 -8.703125 L 6.6875 0 L 2.578125 0 L 2.578125 -20.046875 C 2.847656 -20.035156 3.160156 -20.023438 3.515625 -20.015625 L 4.625 -19.984375 C 5.382812 -19.960938 6.171875 -19.953125 6.984375 -19.953125 C 9.441406 -19.953125 11.796875 -19.988281 14.046875 -20.0625 C 13.929688 -19.1875 13.875 -18.015625 13.875 -16.546875 C 13.875 -16.378906 13.882812 -16.257812 13.90625 -16.1875 L 13.875 -16.140625 C 13.34375 -16.285156 12.601562 -16.359375 11.65625 -16.359375 L 6.6875 -16.359375 L 6.6875 -12.234375 L 11.0625 -12.234375 C 12.164062 -12.234375 12.828125 -12.265625 13.046875 -12.328125 Z M 13.09375 -8.625 "/></g></g></g><g fill="#000000" fill-opacity="1"><g transform="translate(791.782826, 395.756338)"><g><path d="M 9.78125 0.09375 C 9.300781 0.03125 8.066406 0 6.078125 0 L 5.59375 0 L 5.59375 -16.59375 L 2.625 -16.59375 C 1.75 -16.59375 1.226562 -16.546875 1.0625 -16.453125 C 0.90625 -16.359375 0.78125 -16.28125 0.6875 -16.21875 L 0.640625 -16.234375 L 0.640625 -20.0625 L 0.6875 -20.109375 C 1.019531 -20.003906 1.910156 -19.953125 3.359375 -19.953125 L 12.765625 -19.953125 C 13.640625 -19.953125 14.15625 -19.992188 14.3125 -20.078125 C 14.476562 -20.171875 14.609375 -20.253906 14.703125 -20.328125 L 14.75 -20.3125 L 14.75 -16.46875 L 14.703125 -16.421875 C 14.367188 -16.535156 13.476562 -16.59375 12.03125 -16.59375 L 9.78125 -16.59375 Z M 9.78125 0.09375 "/></g></g></g><g fill="#000000" fill-opacity="1"><g transform="translate(807.170242, 395.756338)"><g/></g></g><g fill="#000000" fill-opacity="1"><g transform="translate(817.353538, 395.756338)"><g><path d="M 14.625 -18.84375 L 14.34375 -14.421875 L 14.234375 -14.40625 C 13.492188 -15.507812 12.234375 -16.226562 10.453125 -16.5625 C 9.890625 -16.664062 9.347656 -16.71875 8.828125 -16.71875 C 8.316406 -16.71875 7.878906 -16.671875 7.515625 -16.578125 C 7.148438 -16.492188 6.835938 -16.367188 6.578125 -16.203125 C 6.035156 -15.835938 5.765625 -15.367188 5.765625 -14.796875 C 5.765625 -14.035156 6.003906 -13.460938 6.484375 -13.078125 C 7.078125 -12.617188 8.066406 -12.296875 9.453125 -12.109375 C 10.847656 -11.921875 11.960938 -11.664062 12.796875 -11.34375 C 13.640625 -11.03125 14.332031 -10.628906 14.875 -10.140625 C 15.894531 -9.222656 16.40625 -7.921875 16.40625 -6.234375 C 16.40625 -4.035156 15.578125 -2.34375 13.921875 -1.15625 C 12.503906 -0.132812 10.710938 0.375 8.546875 0.375 C 6.804688 0.375 5.085938 0.046875 3.390625 -0.609375 C 2.828125 -0.828125 2.335938 -1.082031 1.921875 -1.375 L 2.078125 -6.390625 L 2.140625 -6.4375 C 3.378906 -4.289062 5.414062 -3.21875 8.25 -3.21875 C 10.257812 -3.21875 11.585938 -3.707031 12.234375 -4.6875 C 12.453125 -5.007812 12.5625 -5.375 12.5625 -5.78125 C 12.5625 -6.1875 12.492188 -6.519531 12.359375 -6.78125 C 12.234375 -7.050781 12.023438 -7.28125 11.734375 -7.46875 C 11.148438 -7.851562 10.171875 -8.109375 8.796875 -8.234375 C 7.429688 -8.359375 6.3125 -8.601562 5.4375 -8.96875 C 4.570312 -9.332031 3.878906 -9.773438 3.359375 -10.296875 C 2.421875 -11.265625 1.953125 -12.609375 1.953125 -14.328125 C 1.953125 -16.109375 2.578125 -17.546875 3.828125 -18.640625 C 5.097656 -19.765625 6.804688 -20.328125 8.953125 -20.328125 C 11.109375 -20.328125 13 -19.832031 14.625 -18.84375 Z M 14.625 -18.84375 "/></g></g></g><g fill="#000000" fill-opacity="1"><g transform="translate(835.245539, 395.756338)"><g><path d="M 6.40625 0.09375 C 5.71875 0.03125 4.835938 0 3.765625 0 L 2.578125 0 L 2.578125 -20.015625 L 3.1875 -19.984375 C 3.601562 -19.960938 3.914062 -19.953125 4.125 -19.953125 L 4.5625 -19.953125 C 5.4375 -19.953125 6.050781 -19.988281 6.40625 -20.0625 L 6.40625 -11.59375 L 12.484375 -20.015625 C 13.117188 -19.972656 13.65625 -19.953125 14.09375 -19.953125 L 14.921875 -19.953125 C 15.953125 -19.953125 16.6875 -19.988281 17.125 -20.0625 L 11.34375 -12.515625 L 17.046875 -1.203125 C 17.285156 -0.648438 17.507812 -0.25 17.71875 0 L 16.796875 0 C 14.691406 0 13.378906 0.0390625 12.859375 0.125 C 12.742188 -0.550781 12.59375 -1.140625 12.40625 -1.640625 L 8.578125 -8.921875 L 6.40625 -6.078125 Z M 6.40625 0.09375 "/></g></g></g><g fill="#000000" fill-opacity="1"><g transform="translate(853.13754, 395.756338)"><g><path d="M 3.046875 -20.015625 C 4.046875 -19.972656 4.648438 -19.953125 4.859375 -19.953125 L 5.9375 -19.953125 C 6.46875 -19.953125 6.894531 -19.988281 7.21875 -20.0625 L 7.203125 0 L 3.046875 0 Z M 3.046875 -20.015625 "/></g></g></g><g fill="#000000" fill-opacity="1"><g transform="translate(863.395818, 395.756338)"><g><path d="M 5.5 0 C 4.03125 0 3.054688 0.03125 2.578125 0.09375 L 2.578125 -20.046875 C 2.816406 -19.984375 3.3125 -19.953125 4.0625 -19.953125 C 4.820312 -19.953125 5.703125 -19.972656 6.703125 -20.015625 L 6.703125 -3.59375 L 9.8125 -3.59375 C 10.707031 -3.59375 11.425781 -3.625 11.96875 -3.6875 C 11.894531 -1.351562 11.859375 -0.140625 11.859375 -0.046875 L 11.859375 0.109375 C 10.878906 0.0351562 9.238281 0 6.9375 0 Z M 5.5 0 "/></g></g></g><g fill="#000000" fill-opacity="1"><g transform="translate(876.21867, 395.756338)"><g><path d="M 5.5 0 C 4.03125 0 3.054688 0.03125 2.578125 0.09375 L 2.578125 -20.046875 C 2.816406 -19.984375 3.3125 -19.953125 4.0625 -19.953125 C 4.820312 -19.953125 5.703125 -19.972656 6.703125 -20.015625 L 6.703125 -3.59375 L 9.8125 -3.59375 C 10.707031 -3.59375 11.425781 -3.625 11.96875 -3.6875 C 11.894531 -1.351562 11.859375 -0.140625 11.859375 -0.046875 L 11.859375 0.109375 C 10.878906 0.0351562 9.238281 0 6.9375 0 Z M 5.5 0 "/></g></g></g><g fill="#000000" fill-opacity="1"><g transform="translate(889.041522, 395.756338)"><g><path d="M 14.625 -18.84375 L 14.34375 -14.421875 L 14.234375 -14.40625 C 13.492188 -15.507812 12.234375 -16.226562 10.453125 -16.5625 C 9.890625 -16.664062 9.347656 -16.71875 8.828125 -16.71875 C 8.316406 -16.71875 7.878906 -16.671875 7.515625 -16.578125 C 7.148438 -16.492188 6.835938 -16.367188 6.578125 -16.203125 C 6.035156 -15.835938 5.765625 -15.367188 5.765625 -14.796875 C 5.765625 -14.035156 6.003906 -13.460938 6.484375 -13.078125 C 7.078125 -12.617188 8.066406 -12.296875 9.453125 -12.109375 C 10.847656 -11.921875 11.960938 -11.664062 12.796875 -11.34375 C 13.640625 -11.03125 14.332031 -10.628906 14.875 -10.140625 C 15.894531 -9.222656 16.40625 -7.921875 16.40625 -6.234375 C 16.40625 -4.035156 15.578125 -2.34375 13.921875 -1.15625 C 12.503906 -0.132812 10.710938 0.375 8.546875 0.375 C 6.804688 0.375 5.085938 0.046875 3.390625 -0.609375 C 2.828125 -0.828125 2.335938 -1.082031 1.921875 -1.375 L 2.078125 -6.390625 L 2.140625 -6.4375 C 3.378906 -4.289062 5.414062 -3.21875 8.25 -3.21875 C 10.257812 -3.21875 11.585938 -3.707031 12.234375 -4.6875 C 12.453125 -5.007812 12.5625 -5.375 12.5625 -5.78125 C 12.5625 -6.1875 12.492188 -6.519531 12.359375 -6.78125 C 12.234375 -7.050781 12.023438 -7.28125 11.734375 -7.46875 C 11.148438 -7.851562 10.171875 -8.109375 8.796875 -8.234375 C 7.429688 -8.359375 6.3125 -8.601562 5.4375 -8.96875 C 4.570312 -9.332031 3.878906 -9.773438 3.359375 -10.296875 C 2.421875 -11.265625 1.953125 -12.609375 1.953125 -14.328125 C 1.953125 -16.109375 2.578125 -17.546875 3.828125 -18.640625 C 5.097656 -19.765625 6.804688 -20.328125 8.953125 -20.328125 C 11.109375 -20.328125 13 -19.832031 14.625 -18.84375 Z M 14.625 -18.84375 "/></g></g></g><g fill="#000000" fill-opacity="1"><g transform="translate(67.816451, 394.572276)"><g><path d="M 6.71875 -20.03125 C 7.34375 -19.976562 7.789062 -19.953125 8.0625 -19.953125 L 9.234375 -19.953125 C 9.722656 -19.953125 10.207031 -19.988281 10.6875 -20.0625 L 10.6875 -6.625 C 10.6875 -4.425781 10.101562 -2.695312 8.9375 -1.4375 C 7.832031 -0.226562 6.332031 0.375 4.4375 0.375 C 3.132812 0.375 2.046875 0.113281 1.171875 -0.40625 C 0.835938 -0.59375 0.507812 -0.820312 0.1875 -1.09375 L 0.1875 -5.4375 L 0.28125 -5.453125 C 0.707031 -4.796875 1.203125 -4.253906 1.765625 -3.828125 C 2.328125 -3.410156 3.03125 -3.203125 3.875 -3.203125 C 5.769531 -3.203125 6.71875 -4.304688 6.71875 -6.515625 Z M 6.71875 -20.03125 "/></g></g></g><g fill="#000000" fill-opacity="1"><g transform="translate(80.714285, 394.572276)"><g><path d="M 4.03125 0.125 C 3.175781 0.0390625 2.171875 0 1.015625 0 L -0.171875 0 L 6.359375 -18.28125 C 6.648438 -19.101562 6.796875 -19.582031 6.796875 -19.71875 C 6.796875 -19.851562 6.789062 -19.9375 6.78125 -19.96875 L 6.796875 -20 C 7.441406 -19.96875 8.128906 -19.953125 8.859375 -19.953125 C 9.460938 -19.953125 10.1875 -19.960938 11.03125 -19.984375 L 11.046875 -19.953125 C 11.023438 -19.910156 11.015625 -19.851562 11.015625 -19.78125 C 11.015625 -19.59375 11.160156 -19.085938 11.453125 -18.265625 L 18.125 0.046875 C 17.914062 0.0351562 17.679688 0.03125 17.421875 0.03125 C 17.421875 0.03125 17.160156 0.0195312 16.640625 0 C 16.390625 0 16.160156 0 15.953125 0 L 13.640625 0 L 12.21875 -4.3125 L 5.4375 -4.3125 Z M 11.046875 -7.921875 L 8.796875 -14.890625 L 6.578125 -7.921875 Z M 11.046875 -7.921875 "/></g></g></g><g fill="#000000" fill-opacity="1"><g transform="translate(98.666276, 394.572276)"><g><path d="M 11.109375 0.0625 C 10.796875 0.0195312 10.273438 0 9.546875 0 L 7.890625 0 C 7.617188 0 7.375 0.0078125 7.15625 0.03125 L 7.140625 0 C 7.179688 -0.0703125 7.203125 -0.148438 7.203125 -0.234375 C 7.203125 -0.328125 7.191406 -0.421875 7.171875 -0.515625 C 7.160156 -0.617188 7.117188 -0.800781 7.046875 -1.0625 C 6.972656 -1.320312 6.863281 -1.695312 6.71875 -2.1875 L 6.09375 -4.203125 L 0.515625 -20.015625 C 1.128906 -19.972656 1.914062 -19.953125 2.875 -19.953125 C 3.832031 -19.953125 4.445312 -19.988281 4.71875 -20.0625 L 9.234375 -6.4375 L 13.203125 -20.015625 C 13.796875 -19.972656 14.535156 -19.953125 15.421875 -19.953125 C 16.617188 -19.953125 17.316406 -19.988281 17.515625 -20.0625 L 12.046875 -4.25 C 12.046875 -4.25 11.867188 -3.660156 11.515625 -2.484375 C 11.222656 -1.484375 11.078125 -0.835938 11.078125 -0.546875 C 11.078125 -0.253906 11.097656 -0.0664062 11.140625 0.015625 Z M 11.109375 0.0625 "/></g></g></g><g fill="#000000" fill-opacity="1"><g transform="translate(116.558278, 394.572276)"><g><path d="M 4.03125 0.125 C 3.175781 0.0390625 2.171875 0 1.015625 0 L -0.171875 0 L 6.359375 -18.28125 C 6.648438 -19.101562 6.796875 -19.582031 6.796875 -19.71875 C 6.796875 -19.851562 6.789062 -19.9375 6.78125 -19.96875 L 6.796875 -20 C 7.441406 -19.96875 8.128906 -19.953125 8.859375 -19.953125 C 9.460938 -19.953125 10.1875 -19.960938 11.03125 -19.984375 L 11.046875 -19.953125 C 11.023438 -19.910156 11.015625 -19.851562 11.015625 -19.78125 C 11.015625 -19.59375 11.160156 -19.085938 11.453125 -18.265625 L 18.125 0.046875 C 17.914062 0.0351562 17.679688 0.03125 17.421875 0.03125 C 17.421875 0.03125 17.160156 0.0195312 16.640625 0 C 16.390625 0 16.160156 0 15.953125 0 L 13.640625 0 L 12.21875 -4.3125 L 5.4375 -4.3125 Z M 11.046875 -7.921875 L 8.796875 -14.890625 L 6.578125 -7.921875 Z M 11.046875 -7.921875 "/></g></g></g><g fill="#000000" fill-opacity="1"><g transform="translate(134.510268, 394.572276)"><g><path d="M 14.625 -18.84375 L 14.34375 -14.421875 L 14.234375 -14.40625 C 13.492188 -15.507812 12.234375 -16.226562 10.453125 -16.5625 C 9.890625 -16.664062 9.347656 -16.71875 8.828125 -16.71875 C 8.316406 -16.71875 7.878906 -16.671875 7.515625 -16.578125 C 7.148438 -16.492188 6.835938 -16.367188 6.578125 -16.203125 C 6.035156 -15.835938 5.765625 -15.367188 5.765625 -14.796875 C 5.765625 -14.035156 6.003906 -13.460938 6.484375 -13.078125 C 7.078125 -12.617188 8.066406 -12.296875 9.453125 -12.109375 C 10.847656 -11.921875 11.960938 -11.664062 12.796875 -11.34375 C 13.640625 -11.03125 14.332031 -10.628906 14.875 -10.140625 C 15.894531 -9.222656 16.40625 -7.921875 16.40625 -6.234375 C 16.40625 -4.035156 15.578125 -2.34375 13.921875 -1.15625 C 12.503906 -0.132812 10.710938 0.375 8.546875 0.375 C 6.804688 0.375 5.085938 0.046875 3.390625 -0.609375 C 2.828125 -0.828125 2.335938 -1.082031 1.921875 -1.375 L 2.078125 -6.390625 L 2.140625 -6.4375 C 3.378906 -4.289062 5.414062 -3.21875 8.25 -3.21875 C 10.257812 -3.21875 11.585938 -3.707031 12.234375 -4.6875 C 12.453125 -5.007812 12.5625 -5.375 12.5625 -5.78125 C 12.5625 -6.1875 12.492188 -6.519531 12.359375 -6.78125 C 12.234375 -7.050781 12.023438 -7.28125 11.734375 -7.46875 C 11.148438 -7.851562 10.171875 -8.109375 8.796875 -8.234375 C 7.429688 -8.359375 6.3125 -8.601562 5.4375 -8.96875 C 4.570312 -9.332031 3.878906 -9.773438 3.359375 -10.296875 C 2.421875 -11.265625 1.953125 -12.609375 1.953125 -14.328125 C 1.953125 -16.109375 2.578125 -17.546875 3.828125 -18.640625 C 5.097656 -19.765625 6.804688 -20.328125 8.953125 -20.328125 C 11.109375 -20.328125 13 -19.832031 14.625 -18.84375 Z M 14.625 -18.84375 "/></g></g></g><g fill="#000000" fill-opacity="1"><g transform="translate(152.40227, 394.572276)"><g><path d="M 11.515625 -20.328125 C 13.390625 -20.328125 14.984375 -20 16.296875 -19.34375 L 16.296875 -14.765625 L 16.28125 -14.734375 C 15.71875 -15.585938 14.535156 -16.15625 12.734375 -16.4375 C 12.203125 -16.53125 11.53125 -16.578125 10.71875 -16.578125 C 9.914062 -16.578125 9.125 -16.421875 8.34375 -16.109375 C 7.5625 -15.804688 6.921875 -15.375 6.421875 -14.8125 C 5.453125 -13.726562 4.96875 -12.175781 4.96875 -10.15625 C 4.96875 -7.800781 5.582031 -6.050781 6.8125 -4.90625 C 7.832031 -3.945312 9.179688 -3.46875 10.859375 -3.46875 C 12.753906 -3.46875 14.296875 -3.875 15.484375 -4.6875 C 15.910156 -4.96875 16.273438 -5.328125 16.578125 -5.765625 L 16.625 -5.734375 L 16.625 -1.53125 C 15.09375 -0.257812 13.03125 0.375 10.4375 0.375 C 7.382812 0.375 4.992188 -0.59375 3.265625 -2.53125 C 1.609375 -4.382812 0.78125 -6.835938 0.78125 -9.890625 C 0.78125 -13.117188 1.691406 -15.660156 3.515625 -17.515625 C 5.347656 -19.390625 8.015625 -20.328125 11.515625 -20.328125 Z M 11.515625 -20.328125 "/></g></g></g><g fill="#000000" fill-opacity="1"><g transform="translate(170.219278, 394.572276)"><g><path d="M 9.03125 -7.75 C 8.726562 -7.726562 8.40625 -7.71875 8.0625 -7.71875 C 7.726562 -7.71875 7.226562 -7.742188 6.5625 -7.796875 L 6.5625 0 L 2.578125 0 L 2.578125 -20.046875 C 3.984375 -20.234375 5.703125 -20.328125 7.734375 -20.328125 C 10.515625 -20.328125 12.585938 -19.8125 13.953125 -18.78125 C 15.316406 -17.757812 16 -16.179688 16 -14.046875 C 16 -12.378906 15.375 -10.957031 14.125 -9.78125 C 13.71875 -9.394531 13.25 -9.066406 12.71875 -8.796875 L 15.78125 -2.34375 C 16.375 -1.007812 16.832031 -0.21875 17.15625 0.03125 L 17.078125 0.109375 C 16.109375 -0.0546875 14.585938 -0.0507812 12.515625 0.125 Z M 8.03125 -16.78125 C 7.519531 -16.78125 7.03125 -16.753906 6.5625 -16.703125 L 6.5625 -10.984375 C 7.050781 -10.910156 7.625 -10.875 8.28125 -10.875 C 8.9375 -10.875 9.488281 -10.929688 9.9375 -11.046875 C 10.394531 -11.160156 10.785156 -11.335938 11.109375 -11.578125 C 11.816406 -12.109375 12.171875 -12.898438 12.171875 -13.953125 C 12.171875 -15.015625 11.800781 -15.765625 11.0625 -16.203125 C 10.375 -16.585938 9.363281 -16.78125 8.03125 -16.78125 Z M 8.03125 -16.78125 "/></g></g></g><g fill="#000000" fill-opacity="1"><g transform="translate(188.111279, 394.572276)"><g><path d="M 3.046875 -20.015625 C 4.046875 -19.972656 4.648438 -19.953125 4.859375 -19.953125 L 5.9375 -19.953125 C 6.46875 -19.953125 6.894531 -19.988281 7.21875 -20.0625 L 7.203125 0 L 3.046875 0 Z M 3.046875 -20.015625 "/></g></g></g><g fill="#000000" fill-opacity="1"><g transform="translate(198.369557, 394.572276)"><g><path d="M 2.296875 -20.046875 C 3.679688 -20.234375 5.101562 -20.328125 6.5625 -20.328125 C 9.289062 -20.328125 11.359375 -19.6875 12.765625 -18.40625 C 14.179688 -17.132812 14.890625 -15.226562 14.890625 -12.6875 C 14.890625 -10.414062 14.113281 -8.625 12.5625 -7.3125 C 11.113281 -6.0625 9.25 -5.4375 6.96875 -5.4375 C 6.707031 -5.4375 6.425781 -5.453125 6.125 -5.484375 L 6.125 0 L 2.296875 0 Z M 7.015625 -16.703125 C 6.710938 -16.703125 6.414062 -16.691406 6.125 -16.671875 L 6.125 -8.796875 C 6.4375 -8.753906 6.820312 -8.734375 7.28125 -8.734375 C 7.75 -8.734375 8.234375 -8.828125 8.734375 -9.015625 C 9.234375 -9.210938 9.648438 -9.488281 9.984375 -9.84375 C 10.691406 -10.570312 11.046875 -11.53125 11.046875 -12.71875 C 11.046875 -15.375 9.703125 -16.703125 7.015625 -16.703125 Z M 7.015625 -16.703125 "/></g></g></g><g fill="#000000" fill-opacity="1"><g transform="translate(213.756973, 394.572276)"><g><path d="M 9.78125 0.09375 C 9.300781 0.03125 8.066406 0 6.078125 0 L 5.59375 0 L 5.59375 -16.59375 L 2.625 -16.59375 C 1.75 -16.59375 1.226562 -16.546875 1.0625 -16.453125 C 0.90625 -16.359375 0.78125 -16.28125 0.6875 -16.21875 L 0.640625 -16.234375 L 0.640625 -20.0625 L 0.6875 -20.109375 C 1.019531 -20.003906 1.910156 -19.953125 3.359375 -19.953125 L 12.765625 -19.953125 C 13.640625 -19.953125 14.15625 -19.992188 14.3125 -20.078125 C 14.476562 -20.171875 14.609375 -20.253906 14.703125 -20.328125 L 14.75 -20.3125 L 14.75 -16.46875 L 14.703125 -16.421875 C 14.367188 -16.535156 13.476562 -16.59375 12.03125 -16.59375 L 9.78125 -16.59375 Z M 9.78125 0.09375 "/></g></g></g><g fill="#000000" fill-opacity="1"><g transform="translate(356.853652, 394.572276)"><g><path d="M 11.515625 -20.328125 C 13.390625 -20.328125 14.984375 -20 16.296875 -19.34375 L 16.296875 -14.765625 L 16.28125 -14.734375 C 15.71875 -15.585938 14.535156 -16.15625 12.734375 -16.4375 C 12.203125 -16.53125 11.53125 -16.578125 10.71875 -16.578125 C 9.914062 -16.578125 9.125 -16.421875 8.34375 -16.109375 C 7.5625 -15.804688 6.921875 -15.375 6.421875 -14.8125 C 5.453125 -13.726562 4.96875 -12.175781 4.96875 -10.15625 C 4.96875 -7.800781 5.582031 -6.050781 6.8125 -4.90625 C 7.832031 -3.945312 9.179688 -3.46875 10.859375 -3.46875 C 12.753906 -3.46875 14.296875 -3.875 15.484375 -4.6875 C 15.910156 -4.96875 16.273438 -5.328125 16.578125 -5.765625 L 16.625 -5.734375 L 16.625 -1.53125 C 15.09375 -0.257812 13.03125 0.375 10.4375 0.375 C 7.382812 0.375 4.992188 -0.59375 3.265625 -2.53125 C 1.609375 -4.382812 0.78125 -6.835938 0.78125 -9.890625 C 0.78125 -13.117188 1.691406 -15.660156 3.515625 -17.515625 C 5.347656 -19.390625 8.015625 -20.328125 11.515625 -20.328125 Z M 11.515625 -20.328125 "/></g></g></g><g fill="#000000" fill-opacity="1"><g transform="translate(374.67066, 394.572276)"><g><path d="M 14.625 -18.84375 L 14.34375 -14.421875 L 14.234375 -14.40625 C 13.492188 -15.507812 12.234375 -16.226562 10.453125 -16.5625 C 9.890625 -16.664062 9.347656 -16.71875 8.828125 -16.71875 C 8.316406 -16.71875 7.878906 -16.671875 7.515625 -16.578125 C 7.148438 -16.492188 6.835938 -16.367188 6.578125 -16.203125 C 6.035156 -15.835938 5.765625 -15.367188 5.765625 -14.796875 C 5.765625 -14.035156 6.003906 -13.460938 6.484375 -13.078125 C 7.078125 -12.617188 8.066406 -12.296875 9.453125 -12.109375 C 10.847656 -11.921875 11.960938 -11.664062 12.796875 -11.34375 C 13.640625 -11.03125 14.332031 -10.628906 14.875 -10.140625 C 15.894531 -9.222656 16.40625 -7.921875 16.40625 -6.234375 C 16.40625 -4.035156 15.578125 -2.34375 13.921875 -1.15625 C 12.503906 -0.132812 10.710938 0.375 8.546875 0.375 C 6.804688 0.375 5.085938 0.046875 3.390625 -0.609375 C 2.828125 -0.828125 2.335938 -1.082031 1.921875 -1.375 L 2.078125 -6.390625 L 2.140625 -6.4375 C 3.378906 -4.289062 5.414062 -3.21875 8.25 -3.21875 C 10.257812 -3.21875 11.585938 -3.707031 12.234375 -4.6875 C 12.453125 -5.007812 12.5625 -5.375 12.5625 -5.78125 C 12.5625 -6.1875 12.492188 -6.519531 12.359375 -6.78125 C 12.234375 -7.050781 12.023438 -7.28125 11.734375 -7.46875 C 11.148438 -7.851562 10.171875 -8.109375 8.796875 -8.234375 C 7.429688 -8.359375 6.3125 -8.601562 5.4375 -8.96875 C 4.570312 -9.332031 3.878906 -9.773438 3.359375 -10.296875 C 2.421875 -11.265625 1.953125 -12.609375 1.953125 -14.328125 C 1.953125 -16.109375 2.578125 -17.546875 3.828125 -18.640625 C 5.097656 -19.765625 6.804688 -20.328125 8.953125 -20.328125 C 11.109375 -20.328125 13 -19.832031 14.625 -18.84375 Z M 14.625 -18.84375 "/></g></g></g><g fill="#000000" fill-opacity="1"><g transform="translate(392.562661, 394.572276)"><g><path d="M 14.625 -18.84375 L 14.34375 -14.421875 L 14.234375 -14.40625 C 13.492188 -15.507812 12.234375 -16.226562 10.453125 -16.5625 C 9.890625 -16.664062 9.347656 -16.71875 8.828125 -16.71875 C 8.316406 -16.71875 7.878906 -16.671875 7.515625 -16.578125 C 7.148438 -16.492188 6.835938 -16.367188 6.578125 -16.203125 C 6.035156 -15.835938 5.765625 -15.367188 5.765625 -14.796875 C 5.765625 -14.035156 6.003906 -13.460938 6.484375 -13.078125 C 7.078125 -12.617188 8.066406 -12.296875 9.453125 -12.109375 C 10.847656 -11.921875 11.960938 -11.664062 12.796875 -11.34375 C 13.640625 -11.03125 14.332031 -10.628906 14.875 -10.140625 C 15.894531 -9.222656 16.40625 -7.921875 16.40625 -6.234375 C 16.40625 -4.035156 15.578125 -2.34375 13.921875 -1.15625 C 12.503906 -0.132812 10.710938 0.375 8.546875 0.375 C 6.804688 0.375 5.085938 0.046875 3.390625 -0.609375 C 2.828125 -0.828125 2.335938 -1.082031 1.921875 -1.375 L 2.078125 -6.390625 L 2.140625 -6.4375 C 3.378906 -4.289062 5.414062 -3.21875 8.25 -3.21875 C 10.257812 -3.21875 11.585938 -3.707031 12.234375 -4.6875 C 12.453125 -5.007812 12.5625 -5.375 12.5625 -5.78125 C 12.5625 -6.1875 12.492188 -6.519531 12.359375 -6.78125 C 12.234375 -7.050781 12.023438 -7.28125 11.734375 -7.46875 C 11.148438 -7.851562 10.171875 -8.109375 8.796875 -8.234375 C 7.429688 -8.359375 6.3125 -8.601562 5.4375 -8.96875 C 4.570312 -9.332031 3.878906 -9.773438 3.359375 -10.296875 C 2.421875 -11.265625 1.953125 -12.609375 1.953125 -14.328125 C 1.953125 -16.109375 2.578125 -17.546875 3.828125 -18.640625 C 5.097656 -19.765625 6.804688 -20.328125 8.953125 -20.328125 C 11.109375 -20.328125 13 -19.832031 14.625 -18.84375 Z M 14.625 -18.84375 "/></g></g></g><g fill="#000000" fill-opacity="1"><g transform="translate(571.210111, 394.572276)"><g><path d="M 6.625 0.09375 C 5.664062 0.03125 4.523438 0 3.203125 0 L 2.734375 0 L 2.734375 -20.03125 C 3.347656 -19.976562 3.785156 -19.953125 4.046875 -19.953125 L 4.671875 -19.953125 C 5.453125 -19.953125 6.101562 -19.988281 6.625 -20.0625 L 6.625 -12.078125 L 13.671875 -12.078125 L 13.671875 -20.03125 C 14.503906 -19.976562 15.3125 -19.953125 16.09375 -19.953125 C 16.882812 -19.953125 17.378906 -19.988281 17.578125 -20.0625 L 17.578125 0.09375 C 17.097656 0.03125 16.148438 0 14.734375 0 L 13.671875 0 L 13.671875 -8.46875 L 6.625 -8.46875 Z M 6.625 0.09375 "/></g></g></g><g fill="#000000" fill-opacity="1"><g transform="translate(591.666676, 394.572276)"><g><path d="M 9.78125 0.09375 C 9.300781 0.03125 8.066406 0 6.078125 0 L 5.59375 0 L 5.59375 -16.59375 L 2.625 -16.59375 C 1.75 -16.59375 1.226562 -16.546875 1.0625 -16.453125 C 0.90625 -16.359375 0.78125 -16.28125 0.6875 -16.21875 L 0.640625 -16.234375 L 0.640625 -20.0625 L 0.6875 -20.109375 C 1.019531 -20.003906 1.910156 -19.953125 3.359375 -19.953125 L 12.765625 -19.953125 C 13.640625 -19.953125 14.15625 -19.992188 14.3125 -20.078125 C 14.476562 -20.171875 14.609375 -20.253906 14.703125 -20.328125 L 14.75 -20.3125 L 14.75 -16.46875 L 14.703125 -16.421875 C 14.367188 -16.535156 13.476562 -16.59375 12.03125 -16.59375 L 9.78125 -16.59375 Z M 9.78125 0.09375 "/></g></g></g><g fill="#000000" fill-opacity="1"><g transform="translate(607.054092, 394.572276)"><g><path d="M 6.625 0.09375 C 6.144531 0.03125 5.222656 0 3.859375 0 L 2.65625 0 L 2.65625 -20.015625 C 3.289062 -19.972656 3.992188 -19.953125 4.765625 -19.953125 C 5.535156 -19.953125 6.082031 -19.988281 6.40625 -20.0625 L 11.4375 -11.5 L 16.296875 -20.0625 C 16.609375 -19.988281 17.210938 -19.953125 18.109375 -19.953125 C 19.015625 -19.953125 19.785156 -19.972656 20.421875 -20.015625 L 20.421875 0 L 19.234375 0 C 17.859375 0 16.929688 0.03125 16.453125 0.09375 L 16.453125 -13.34375 L 11.546875 -4.578125 L 6.625 -12.640625 Z M 6.625 0.09375 "/></g></g></g><g fill="#000000" fill-opacity="1"><g transform="translate(630.135222, 394.572276)"><g><path d="M 5.5 0 C 4.03125 0 3.054688 0.03125 2.578125 0.09375 L 2.578125 -20.046875 C 2.816406 -19.984375 3.3125 -19.953125 4.0625 -19.953125 C 4.820312 -19.953125 5.703125 -19.972656 6.703125 -20.015625 L 6.703125 -3.59375 L 9.8125 -3.59375 C 10.707031 -3.59375 11.425781 -3.625 11.96875 -3.6875 C 11.894531 -1.351562 11.859375 -0.140625 11.859375 -0.046875 L 11.859375 0.109375 C 10.878906 0.0351562 9.238281 0 6.9375 0 Z M 5.5 0 "/></g></g></g></svg>