<svg xmlns="http://www.w3.org/2000/svg" xmlns:xlink="http://www.w3.org/1999/xlink" width="1920" zoomAndPan="magnify" viewBox="0 0 1440 809.999993" height="1080" preserveAspectRatio="xMidYMid meet" version="1.0"><defs><g/><clipPath id="436a31ff0b"><path d="M 341.96875 92.109375 L 1098 92.109375 L 1098 484.460938 L 341.96875 484.460938 Z M 341.96875 92.109375 " clip-rule="nonzero"/></clipPath><clipPath id="4f934d3289"><path d="M 400.667969 162 L 567.167969 162 L 567.167969 348.613281 L 400.667969 348.613281 Z M 400.667969 162 " clip-rule="nonzero"/></clipPath><clipPath id="4eff56816c"><path d="M 630.238281 161.863281 L 797.488281 161.863281 L 797.488281 348.613281 L 630.238281 348.613281 Z M 630.238281 161.863281 " clip-rule="nonzero"/></clipPath><clipPath id="7dfd744090"><path d="M 860.640625 161.863281 L 1039.140625 161.863281 L 1039.140625 340.363281 L 860.640625 340.363281 Z M 860.640625 161.863281 " clip-rule="nonzero"/></clipPath></defs><g clip-path="url(#436a31ff0b)"><path fill="#ffffff" d="M 341.96875 92.109375 L 1097.550781 92.109375 L 1097.550781 484.460938 L 341.96875 484.460938 Z M 341.96875 92.109375 " fill-opacity="1" fill-rule="nonzero"/></g><g clip-path="url(#4f934d3289)"><path fill="#000000" d="M 566.253906 163.40625 C 565.484375 162.566406 564.402344 162.089844 563.261719 162.089844 L 404.980469 162.089844 C 403.839844 162.089844 402.757812 162.566406 401.988281 163.40625 C 401.21875 164.246094 400.84375 165.371094 400.945312 166.5 L 415.203125 326.171875 C 415.355469 327.84375 416.515625 329.246094 418.128906 329.710938 L 482.992188 348.230469 C 483.351562 348.332031 483.722656 348.382812 484.101562 348.382812 C 484.476562 348.382812 484.851562 348.332031 485.210938 348.230469 L 550.125 329.710938 C 551.738281 329.246094 552.902344 327.84375 553.050781 326.171875 L 567.300781 166.5 C 567.398438 165.367188 567.019531 164.246094 566.253906 163.40625 Z M 532.113281 218.460938 L 455.910156 218.460938 L 457.71875 239.074219 L 530.28125 239.074219 L 524.839844 299.984375 L 484.097656 312.300781 L 483.695312 312.175781 L 443.421875 299.980469 L 441.222656 275.152344 L 460.949219 275.152344 L 461.816406 284.792969 L 484.324219 289.507812 L 506.429688 284.785156 L 508.785156 258.722656 L 439.742188 258.722656 L 434.390625 198.757812 L 533.882812 198.757812 Z M 532.113281 218.460938 " fill-opacity="1" fill-rule="nonzero"/></g><g clip-path="url(#4eff56816c)"><path fill="#000000" d="M 797.457031 161.863281 L 782.703125 328.953125 L 713.863281 348.613281 L 645.019531 328.953125 L 630.265625 161.863281 Z M 673.542969 269.980469 L 693.210938 269.980469 L 693.691406 282.265625 L 713.863281 289.140625 L 734.03125 282.265625 L 735.492188 260.152344 L 692.234375 260.152344 L 691.234375 240.492188 L 736.488281 240.492188 L 737.949219 220.835938 L 670.105469 220.835938 L 668.625 201.175781 L 758.617188 201.175781 L 756.160156 240.492188 L 752.703125 297.007812 L 713.863281 309.796875 L 675.023438 297.007812 Z M 673.542969 269.980469 " fill-opacity="1" fill-rule="evenodd"/></g><g clip-path="url(#7dfd744090)"><path fill="#000000" d="M 860.640625 161.863281 L 860.640625 340.363281 L 1039.140625 340.363281 L 1039.140625 161.863281 Z M 876.867188 178.089844 L 1022.910156 178.089844 L 1022.910156 324.132812 L 876.867188 324.132812 Z M 984.324219 243 C 972.761719 243 965.292969 250.398438 965.292969 260.191406 C 965.292969 270.828125 971.53125 275.914062 980.933594 279.921875 L 984.183594 281.316406 C 990.121094 283.9375 993.65625 285.464844 993.65625 289.9375 C 993.65625 293.710938 990.195312 296.417969 984.800781 296.417969 C 978.40625 296.417969 974.769531 293.03125 971.996094 288.480469 L 961.363281 294.5625 C 965.136719 302.117188 972.996094 307.90625 985.101562 307.90625 C 997.433594 307.90625 1006.683594 301.511719 1006.683594 289.792969 C 1006.683594 278.847656 1000.441406 273.984375 989.332031 269.289062 L 986.097656 267.894531 C 980.476562 265.425781 978.082031 263.808594 978.082031 259.953125 C 978.082031 256.789062 980.46875 254.328125 984.324219 254.328125 C 988.105469 254.328125 990.484375 255.945312 992.722656 259.953125 L 1002.914062 253.410156 C 998.597656 245.855469 992.648438 243 984.324219 243 Z M 936.863281 243.773438 L 936.863281 288.097656 C 936.863281 294.574219 934.085938 296.257812 929.84375 296.257812 C 925.371094 296.257812 923.449219 293.183594 921.445312 289.554688 L 910.808594 295.957031 C 913.894531 302.515625 919.972656 307.90625 930.382812 307.90625 C 941.941406 307.90625 949.890625 301.734375 949.890625 288.242188 L 949.890625 243.773438 Z M 936.863281 243.773438 " fill-opacity="1" fill-rule="nonzero"/></g><g fill="#000000" fill-opacity="1"><g transform="translate(436.453553, 416.121187)"><g><path d="M 8.78125 0.125 C 7.507812 0.0390625 6 0 4.25 0 L 3.625 0 L 3.625 -26.546875 C 4.4375 -26.472656 5.019531 -26.4375 5.375 -26.4375 L 6.1875 -26.4375 C 7.226562 -26.4375 8.09375 -26.492188 8.78125 -26.609375 L 8.78125 -16 L 18.125 -16 L 18.125 -26.546875 C 19.226562 -26.472656 20.300781 -26.4375 21.34375 -26.4375 C 22.382812 -26.4375 23.035156 -26.492188 23.296875 -26.609375 L 23.296875 0.125 C 22.660156 0.0390625 21.40625 0 19.53125 0 L 18.125 0 L 18.125 -11.234375 L 8.78125 -11.234375 Z M 8.78125 0.125 "/></g></g></g><g fill="#000000" fill-opacity="1"><g transform="translate(463.572956, 416.121187)"><g><path d="M 12.96875 0.125 C 12.332031 0.0390625 10.691406 0 8.046875 0 L 7.421875 0 L 7.421875 -21.984375 L 3.484375 -21.984375 C 2.316406 -21.984375 1.625 -21.921875 1.40625 -21.796875 C 1.195312 -21.679688 1.035156 -21.582031 0.921875 -21.5 L 0.859375 -21.515625 L 0.859375 -26.609375 L 0.921875 -26.65625 C 1.359375 -26.507812 2.535156 -26.4375 4.453125 -26.4375 L 16.921875 -26.4375 C 18.085938 -26.4375 18.773438 -26.492188 18.984375 -26.609375 C 19.203125 -26.734375 19.367188 -26.84375 19.484375 -26.9375 L 19.546875 -26.921875 L 19.546875 -21.828125 L 19.484375 -21.765625 C 19.046875 -21.910156 17.867188 -21.984375 15.953125 -21.984375 L 12.96875 -21.984375 Z M 12.96875 0.125 "/></g></g></g><g fill="#000000" fill-opacity="1"><g transform="translate(483.972155, 416.121187)"><g><path d="M 8.78125 0.125 C 8.144531 0.0390625 6.921875 0 5.109375 0 L 3.515625 0 L 3.515625 -26.515625 C 4.367188 -26.460938 5.304688 -26.4375 6.328125 -26.4375 C 7.347656 -26.4375 8.066406 -26.492188 8.484375 -26.609375 L 15.171875 -15.25 L 21.59375 -26.609375 C 22.019531 -26.492188 22.828125 -26.4375 24.015625 -26.4375 C 25.210938 -26.4375 26.234375 -26.460938 27.078125 -26.515625 L 27.078125 0 L 25.484375 0 C 23.671875 0 22.445312 0.0390625 21.8125 0.125 L 21.8125 -17.6875 L 15.3125 -6.0625 L 8.78125 -16.765625 Z M 8.78125 0.125 "/></g></g></g><g fill="#000000" fill-opacity="1"><g transform="translate(514.570953, 416.121187)"><g><path d="M 7.296875 0 C 5.347656 0 4.054688 0.0390625 3.421875 0.125 L 3.421875 -26.5625 C 3.734375 -26.476562 4.390625 -26.4375 5.390625 -26.4375 C 6.398438 -26.4375 7.566406 -26.460938 8.890625 -26.515625 L 8.890625 -4.765625 L 13 -4.765625 C 14.195312 -4.765625 15.148438 -4.804688 15.859375 -4.890625 C 15.773438 -1.785156 15.734375 -0.175781 15.734375 -0.0625 L 15.734375 0.140625 C 14.429688 0.046875 12.25 0 9.1875 0 Z M 7.296875 0 "/></g></g></g><g fill="#000000" fill-opacity="1"><g transform="translate(678.400923, 416.121187)"><g><path d="M 15.265625 -26.9375 C 17.742188 -26.9375 19.859375 -26.503906 21.609375 -25.640625 L 21.609375 -19.5625 L 21.578125 -19.53125 C 20.828125 -20.664062 19.257812 -21.421875 16.875 -21.796875 C 16.175781 -21.910156 15.289062 -21.96875 14.21875 -21.96875 C 13.144531 -21.96875 12.085938 -21.765625 11.046875 -21.359375 C 10.015625 -20.953125 9.171875 -20.378906 8.515625 -19.640625 C 7.222656 -18.191406 6.578125 -16.128906 6.578125 -13.453125 C 6.578125 -10.335938 7.394531 -8.019531 9.03125 -6.5 C 10.375 -5.226562 12.160156 -4.59375 14.390625 -4.59375 C 16.910156 -4.59375 18.953125 -5.128906 20.515625 -6.203125 C 21.085938 -6.585938 21.570312 -7.066406 21.96875 -7.640625 L 22.03125 -7.59375 L 22.03125 -2.03125 C 20 -0.34375 17.269531 0.5 13.84375 0.5 C 9.800781 0.5 6.628906 -0.785156 4.328125 -3.359375 C 2.128906 -5.804688 1.03125 -9.054688 1.03125 -13.109375 C 1.03125 -17.390625 2.238281 -20.757812 4.65625 -23.21875 C 7.09375 -25.695312 10.628906 -26.9375 15.265625 -26.9375 Z M 15.265625 -26.9375 "/></g></g></g><g fill="#000000" fill-opacity="1"><g transform="translate(702.021048, 416.121187)"><g><path d="M 19.390625 -24.96875 L 19 -19.125 L 18.875 -19.09375 C 17.882812 -20.5625 16.210938 -21.515625 13.859375 -21.953125 C 13.117188 -22.097656 12.40625 -22.171875 11.71875 -22.171875 C 11.039062 -22.171875 10.457031 -22.109375 9.96875 -21.984375 C 9.488281 -21.867188 9.078125 -21.695312 8.734375 -21.46875 C 8.003906 -20.988281 7.640625 -20.367188 7.640625 -19.609375 C 7.640625 -18.597656 7.957031 -17.84375 8.59375 -17.34375 C 9.382812 -16.726562 10.703125 -16.296875 12.546875 -16.046875 C 14.390625 -15.804688 15.867188 -15.472656 16.984375 -15.046875 C 18.097656 -14.628906 19.007812 -14.09375 19.71875 -13.4375 C 21.070312 -12.21875 21.75 -10.492188 21.75 -8.265625 C 21.75 -5.347656 20.648438 -3.101562 18.453125 -1.53125 C 16.566406 -0.175781 14.191406 0.5 11.328125 0.5 C 9.023438 0.5 6.75 0.0625 4.5 -0.8125 C 3.75 -1.101562 3.097656 -1.441406 2.546875 -1.828125 L 2.765625 -8.46875 L 2.84375 -8.53125 C 4.488281 -5.695312 7.1875 -4.28125 10.9375 -4.28125 C 13.601562 -4.28125 15.363281 -4.921875 16.21875 -6.203125 C 16.507812 -6.640625 16.65625 -7.125 16.65625 -7.65625 C 16.65625 -8.195312 16.566406 -8.644531 16.390625 -9 C 16.222656 -9.351562 15.941406 -9.65625 15.546875 -9.90625 C 14.773438 -10.40625 13.484375 -10.738281 11.671875 -10.90625 C 9.859375 -11.082031 8.375 -11.410156 7.21875 -11.890625 C 6.0625 -12.367188 5.140625 -12.957031 4.453125 -13.65625 C 3.203125 -14.925781 2.578125 -16.703125 2.578125 -18.984375 C 2.578125 -21.347656 3.40625 -23.257812 5.0625 -24.71875 C 6.75 -26.195312 9.019531 -26.9375 11.875 -26.9375 C 14.738281 -26.9375 17.242188 -26.28125 19.390625 -24.96875 Z M 19.390625 -24.96875 "/></g></g></g><g fill="#000000" fill-opacity="1"><g transform="translate(725.740584, 416.121187)"><g><path d="M 19.390625 -24.96875 L 19 -19.125 L 18.875 -19.09375 C 17.882812 -20.5625 16.210938 -21.515625 13.859375 -21.953125 C 13.117188 -22.097656 12.40625 -22.171875 11.71875 -22.171875 C 11.039062 -22.171875 10.457031 -22.109375 9.96875 -21.984375 C 9.488281 -21.867188 9.078125 -21.695312 8.734375 -21.46875 C 8.003906 -20.988281 7.640625 -20.367188 7.640625 -19.609375 C 7.640625 -18.597656 7.957031 -17.84375 8.59375 -17.34375 C 9.382812 -16.726562 10.703125 -16.296875 12.546875 -16.046875 C 14.390625 -15.804688 15.867188 -15.472656 16.984375 -15.046875 C 18.097656 -14.628906 19.007812 -14.09375 19.71875 -13.4375 C 21.070312 -12.21875 21.75 -10.492188 21.75 -8.265625 C 21.75 -5.347656 20.648438 -3.101562 18.453125 -1.53125 C 16.566406 -0.175781 14.191406 0.5 11.328125 0.5 C 9.023438 0.5 6.75 0.0625 4.5 -0.8125 C 3.75 -1.101562 3.097656 -1.441406 2.546875 -1.828125 L 2.765625 -8.46875 L 2.84375 -8.53125 C 4.488281 -5.695312 7.1875 -4.28125 10.9375 -4.28125 C 13.601562 -4.28125 15.363281 -4.921875 16.21875 -6.203125 C 16.507812 -6.640625 16.65625 -7.125 16.65625 -7.65625 C 16.65625 -8.195312 16.566406 -8.644531 16.390625 -9 C 16.222656 -9.351562 15.941406 -9.65625 15.546875 -9.90625 C 14.773438 -10.40625 13.484375 -10.738281 11.671875 -10.90625 C 9.859375 -11.082031 8.375 -11.410156 7.21875 -11.890625 C 6.0625 -12.367188 5.140625 -12.957031 4.453125 -13.65625 C 3.203125 -14.925781 2.578125 -16.703125 2.578125 -18.984375 C 2.578125 -21.347656 3.40625 -23.257812 5.0625 -24.71875 C 6.75 -26.195312 9.019531 -26.9375 11.875 -26.9375 C 14.738281 -26.9375 17.242188 -26.28125 19.390625 -24.96875 Z M 19.390625 -24.96875 "/></g></g></g><g fill="#000000" fill-opacity="1"><g transform="translate(843.044898, 408.935162)"><g><path d="M 8.90625 -26.546875 C 9.726562 -26.472656 10.328125 -26.4375 10.703125 -26.4375 L 12.25 -26.4375 C 12.894531 -26.4375 13.535156 -26.492188 14.171875 -26.609375 L 14.171875 -8.78125 C 14.171875 -5.863281 13.394531 -3.570312 11.84375 -1.90625 C 10.375 -0.300781 8.390625 0.5 5.890625 0.5 C 4.160156 0.5 2.710938 0.15625 1.546875 -0.53125 C 1.109375 -0.789062 0.671875 -1.097656 0.234375 -1.453125 L 0.234375 -7.203125 L 0.375 -7.234375 C 0.9375 -6.359375 1.585938 -5.640625 2.328125 -5.078125 C 3.078125 -4.523438 4.007812 -4.25 5.125 -4.25 C 7.644531 -4.25 8.90625 -5.707031 8.90625 -8.625 Z M 8.90625 -26.546875 "/></g></g></g><g fill="#000000" fill-opacity="1"><g transform="translate(860.143641, 408.935162)"><g><path d="M 5.34375 0.15625 C 4.207031 0.0507812 2.878906 0 1.359375 0 L -0.21875 0 L 8.4375 -24.234375 C 8.8125 -25.316406 9 -25.945312 9 -26.125 C 9 -26.3125 8.992188 -26.425781 8.984375 -26.46875 L 9 -26.5 C 9.863281 -26.457031 10.78125 -26.4375 11.75 -26.4375 C 12.539062 -26.4375 13.492188 -26.453125 14.609375 -26.484375 L 14.640625 -26.4375 C 14.609375 -26.382812 14.59375 -26.3125 14.59375 -26.21875 C 14.59375 -25.96875 14.789062 -25.300781 15.1875 -24.21875 L 24.015625 0.0625 C 23.753906 0.0507812 23.441406 0.046875 23.078125 0.046875 C 23.078125 0.046875 22.734375 0.03125 22.046875 0 C 21.710938 0 21.414062 0 21.15625 0 L 18.078125 0 L 16.203125 -5.71875 L 7.21875 -5.71875 Z M 14.65625 -10.5 L 11.65625 -19.75 L 8.734375 -10.5 Z M 14.65625 -10.5 "/></g></g></g><g fill="#000000" fill-opacity="1"><g transform="translate(883.942706, 408.935162)"><g><path d="M 14.734375 0.078125 C 14.304688 0.0234375 13.609375 0 12.640625 0 L 10.453125 0 C 10.097656 0 9.773438 0.015625 9.484375 0.046875 L 9.46875 0 C 9.519531 -0.09375 9.546875 -0.195312 9.546875 -0.3125 C 9.546875 -0.4375 9.535156 -0.5625 9.515625 -0.6875 C 9.492188 -0.820312 9.4375 -1.0625 9.34375 -1.40625 C 9.25 -1.75 9.101562 -2.25 8.90625 -2.90625 L 8.078125 -5.5625 L 0.671875 -26.515625 C 1.492188 -26.460938 2.539062 -26.4375 3.8125 -26.4375 C 5.082031 -26.4375 5.898438 -26.492188 6.265625 -26.609375 L 12.25 -8.53125 L 17.5 -26.515625 C 18.289062 -26.460938 19.269531 -26.4375 20.4375 -26.4375 C 22.03125 -26.4375 22.957031 -26.492188 23.21875 -26.609375 L 15.96875 -5.625 C 15.96875 -5.625 15.734375 -4.847656 15.265625 -3.296875 C 14.878906 -1.972656 14.6875 -1.113281 14.6875 -0.71875 C 14.6875 -0.332031 14.710938 -0.0859375 14.765625 0.015625 Z M 14.734375 0.078125 "/></g></g></g><g fill="#000000" fill-opacity="1"><g transform="translate(907.662243, 408.935162)"><g><path d="M 5.34375 0.15625 C 4.207031 0.0507812 2.878906 0 1.359375 0 L -0.21875 0 L 8.4375 -24.234375 C 8.8125 -25.316406 9 -25.945312 9 -26.125 C 9 -26.3125 8.992188 -26.425781 8.984375 -26.46875 L 9 -26.5 C 9.863281 -26.457031 10.78125 -26.4375 11.75 -26.4375 C 12.539062 -26.4375 13.492188 -26.453125 14.609375 -26.484375 L 14.640625 -26.4375 C 14.609375 -26.382812 14.59375 -26.3125 14.59375 -26.21875 C 14.59375 -25.96875 14.789062 -25.300781 15.1875 -24.21875 L 24.015625 0.0625 C 23.753906 0.0507812 23.441406 0.046875 23.078125 0.046875 C 23.078125 0.046875 22.734375 0.03125 22.046875 0 C 21.710938 0 21.414062 0 21.15625 0 L 18.078125 0 L 16.203125 -5.71875 L 7.21875 -5.71875 Z M 14.65625 -10.5 L 11.65625 -19.75 L 8.734375 -10.5 Z M 14.65625 -10.5 "/></g></g></g><g fill="#000000" fill-opacity="1"><g transform="translate(931.461313, 408.935162)"><g><path d="M 19.390625 -24.96875 L 19 -19.125 L 18.875 -19.09375 C 17.882812 -20.5625 16.210938 -21.515625 13.859375 -21.953125 C 13.117188 -22.097656 12.40625 -22.171875 11.71875 -22.171875 C 11.039062 -22.171875 10.457031 -22.109375 9.96875 -21.984375 C 9.488281 -21.867188 9.078125 -21.695312 8.734375 -21.46875 C 8.003906 -20.988281 7.640625 -20.367188 7.640625 -19.609375 C 7.640625 -18.597656 7.957031 -17.84375 8.59375 -17.34375 C 9.382812 -16.726562 10.703125 -16.296875 12.546875 -16.046875 C 14.390625 -15.804688 15.867188 -15.472656 16.984375 -15.046875 C 18.097656 -14.628906 19.007812 -14.09375 19.71875 -13.4375 C 21.070312 -12.21875 21.75 -10.492188 21.75 -8.265625 C 21.75 -5.347656 20.648438 -3.101562 18.453125 -1.53125 C 16.566406 -0.175781 14.191406 0.5 11.328125 0.5 C 9.023438 0.5 6.75 0.0625 4.5 -0.8125 C 3.75 -1.101562 3.097656 -1.441406 2.546875 -1.828125 L 2.765625 -8.46875 L 2.84375 -8.53125 C 4.488281 -5.695312 7.1875 -4.28125 10.9375 -4.28125 C 13.601562 -4.28125 15.363281 -4.921875 16.21875 -6.203125 C 16.507812 -6.640625 16.65625 -7.125 16.65625 -7.65625 C 16.65625 -8.195312 16.566406 -8.644531 16.390625 -9 C 16.222656 -9.351562 15.941406 -9.65625 15.546875 -9.90625 C 14.773438 -10.40625 13.484375 -10.738281 11.671875 -10.90625 C 9.859375 -11.082031 8.375 -11.410156 7.21875 -11.890625 C 6.0625 -12.367188 5.140625 -12.957031 4.453125 -13.65625 C 3.203125 -14.925781 2.578125 -16.703125 2.578125 -18.984375 C 2.578125 -21.347656 3.40625 -23.257812 5.0625 -24.71875 C 6.75 -26.195312 9.019531 -26.9375 11.875 -26.9375 C 14.738281 -26.9375 17.242188 -26.28125 19.390625 -24.96875 Z M 19.390625 -24.96875 "/></g></g></g><g fill="#000000" fill-opacity="1"><g transform="translate(955.180845, 408.935162)"><g><path d="M 15.265625 -26.9375 C 17.742188 -26.9375 19.859375 -26.503906 21.609375 -25.640625 L 21.609375 -19.5625 L 21.578125 -19.53125 C 20.828125 -20.664062 19.257812 -21.421875 16.875 -21.796875 C 16.175781 -21.910156 15.289062 -21.96875 14.21875 -21.96875 C 13.144531 -21.96875 12.085938 -21.765625 11.046875 -21.359375 C 10.015625 -20.953125 9.171875 -20.378906 8.515625 -19.640625 C 7.222656 -18.191406 6.578125 -16.128906 6.578125 -13.453125 C 6.578125 -10.335938 7.394531 -8.019531 9.03125 -6.5 C 10.375 -5.226562 12.160156 -4.59375 14.390625 -4.59375 C 16.910156 -4.59375 18.953125 -5.128906 20.515625 -6.203125 C 21.085938 -6.585938 21.570312 -7.066406 21.96875 -7.640625 L 22.03125 -7.59375 L 22.03125 -2.03125 C 20 -0.34375 17.269531 0.5 13.84375 0.5 C 9.800781 0.5 6.628906 -0.785156 4.328125 -3.359375 C 2.128906 -5.804688 1.03125 -9.054688 1.03125 -13.109375 C 1.03125 -17.390625 2.238281 -20.757812 4.65625 -23.21875 C 7.09375 -25.695312 10.628906 -26.9375 15.265625 -26.9375 Z M 15.265625 -26.9375 "/></g></g></g><g fill="#000000" fill-opacity="1"><g transform="translate(978.80097, 408.935162)"><g><path d="M 11.96875 -10.28125 C 11.570312 -10.25 11.144531 -10.234375 10.6875 -10.234375 C 10.238281 -10.234375 9.570312 -10.269531 8.6875 -10.34375 L 8.6875 0 L 3.421875 0 L 3.421875 -26.578125 C 5.273438 -26.816406 7.554688 -26.9375 10.265625 -26.9375 C 13.941406 -26.9375 16.6875 -26.253906 18.5 -24.890625 C 20.3125 -23.535156 21.21875 -21.441406 21.21875 -18.609375 C 21.21875 -16.410156 20.390625 -14.53125 18.734375 -12.96875 C 18.179688 -12.457031 17.554688 -12.019531 16.859375 -11.65625 L 20.921875 -3.109375 C 21.710938 -1.335938 22.320312 -0.285156 22.75 0.046875 L 22.640625 0.140625 C 21.359375 -0.0664062 19.335938 -0.0625 16.578125 0.15625 Z M 10.640625 -22.25 C 9.960938 -22.25 9.3125 -22.21875 8.6875 -22.15625 L 8.6875 -14.546875 C 9.332031 -14.460938 10.09375 -14.421875 10.96875 -14.421875 C 11.84375 -14.421875 12.578125 -14.492188 13.171875 -14.640625 C 13.773438 -14.796875 14.296875 -15.03125 14.734375 -15.34375 C 15.671875 -16.050781 16.140625 -17.109375 16.140625 -18.515625 C 16.140625 -19.921875 15.648438 -20.90625 14.671875 -21.46875 C 13.753906 -21.988281 12.410156 -22.25 10.640625 -22.25 Z M 10.640625 -22.25 "/></g></g></g><g fill="#000000" fill-opacity="1"><g transform="translate(1002.520501, 408.935162)"><g><path d="M 4.03125 -26.515625 C 5.363281 -26.460938 6.164062 -26.4375 6.4375 -26.4375 L 7.875 -26.4375 C 8.570312 -26.4375 9.132812 -26.492188 9.5625 -26.609375 L 9.546875 0 L 4.03125 0 Z M 4.03125 -26.515625 "/></g></g></g><g fill="#000000" fill-opacity="1"><g transform="translate(1016.119967, 408.935162)"><g><path d="M 3.046875 -26.578125 C 4.890625 -26.816406 6.773438 -26.9375 8.703125 -26.9375 C 12.304688 -26.9375 15.046875 -26.09375 16.921875 -24.40625 C 18.804688 -22.71875 19.75 -20.191406 19.75 -16.828125 C 19.75 -13.816406 18.71875 -11.4375 16.65625 -9.6875 C 14.738281 -8.039062 12.269531 -7.21875 9.25 -7.21875 C 8.90625 -7.21875 8.523438 -7.238281 8.109375 -7.28125 L 8.109375 0 L 3.046875 0 Z M 9.3125 -22.15625 C 8.90625 -22.15625 8.503906 -22.140625 8.109375 -22.109375 L 8.109375 -11.65625 C 8.535156 -11.601562 9.050781 -11.578125 9.65625 -11.578125 C 10.269531 -11.578125 10.90625 -11.703125 11.5625 -11.953125 C 12.226562 -12.210938 12.785156 -12.578125 13.234375 -13.046875 C 14.179688 -14.015625 14.65625 -15.285156 14.65625 -16.859375 C 14.65625 -20.390625 12.875 -22.15625 9.3125 -22.15625 Z M 9.3125 -22.15625 "/></g></g></g><g fill="#000000" fill-opacity="1"><g transform="translate(1036.519176, 408.935162)"><g><path d="M 12.96875 0.125 C 12.332031 0.0390625 10.691406 0 8.046875 0 L 7.421875 0 L 7.421875 -21.984375 L 3.484375 -21.984375 C 2.316406 -21.984375 1.625 -21.921875 1.40625 -21.796875 C 1.195312 -21.679688 1.035156 -21.582031 0.921875 -21.5 L 0.859375 -21.515625 L 0.859375 -26.609375 L 0.921875 -26.65625 C 1.359375 -26.507812 2.535156 -26.4375 4.453125 -26.4375 L 16.921875 -26.4375 C 18.085938 -26.4375 18.773438 -26.492188 18.984375 -26.609375 C 19.203125 -26.734375 19.367188 -26.84375 19.484375 -26.9375 L 19.546875 -26.921875 L 19.546875 -21.828125 L 19.484375 -21.765625 C 19.046875 -21.910156 17.867188 -21.984375 15.953125 -21.984375 L 12.96875 -21.984375 Z M 12.96875 0.125 "/></g></g></g></svg>