<svg xmlns="http://www.w3.org/2000/svg" xmlns:xlink="http://www.w3.org/1999/xlink" width="1920" zoomAndPan="magnify" viewBox="0 0 1440 809.999993" height="1080" preserveAspectRatio="xMidYMid meet" version="1.0"><defs><g/><clipPath id="440992af4a"><path d="M 341.96875 92.109375 L 1098 92.109375 L 1098 484.460938 L 341.96875 484.460938 Z M 341.96875 92.109375 " clip-rule="nonzero"/></clipPath><clipPath id="2451873b43"><path d="M 409 138.648438 L 567 138.648438 L 567 340.398438 L 409 340.398438 Z M 409 138.648438 " clip-rule="nonzero"/></clipPath><clipPath id="dedb6b0d43"><path d="M 682 170.207031 L 715 170.207031 L 715 195 L 682 195 Z M 682 170.207031 " clip-rule="nonzero"/></clipPath><clipPath id="205aec03a0"><path d="M 845.089844 192.324219 L 1046.839844 192.324219 L 1046.839844 332.574219 L 845.089844 332.574219 Z M 845.089844 192.324219 " clip-rule="nonzero"/></clipPath></defs><g clip-path="url(#440992af4a)"><path fill="#ffffff" d="M 341.96875 92.109375 L 1097.550781 92.109375 L 1097.550781 484.460938 L 341.96875 484.460938 Z M 341.96875 92.109375 " fill-opacity="1" fill-rule="nonzero"/></g><g clip-path="url(#2451873b43)"><path fill="#000000" d="M 511.457031 301.828125 C 511.457031 303.882812 510.707031 305.78125 509.398438 307.207031 L 439.421875 307.207031 C 434.792969 302.222656 438.632812 293.519531 445.519531 293.679688 C 445.519531 293.679688 503.304688 293.679688 503.304688 293.679688 C 507.816406 293.679688 511.457031 297.316406 511.457031 301.828125 Z M 439.421875 312.707031 C 434.792969 317.691406 438.632812 326.390625 445.519531 326.234375 L 503.304688 326.234375 C 510.191406 326.390625 514.03125 317.648438 509.359375 312.707031 Z M 462.417969 340.394531 L 486.445312 340.394531 C 491.589844 340.394531 495.824219 336.636719 496.65625 331.734375 L 452.207031 331.734375 C 453.039062 336.636719 457.273438 340.394531 462.417969 340.394531 Z M 514.386719 259.382812 C 505.917969 266.738281 500.730469 277.101562 499.664062 288.179688 L 482.128906 288.179688 L 482.128906 177.417969 C 482.128906 175.082031 484.109375 173.222656 486.445312 173.421875 C 529.742188 177.257812 546.644531 231.570312 514.386719 259.382812 Z M 522.066406 222.355469 C 522.183594 205.742188 511.261719 190.15625 495.507812 184.734375 C 493.882812 184.140625 492.023438 185.011719 491.46875 186.671875 C 490.875 188.335938 491.707031 190.117188 493.371094 190.707031 C 506.589844 195.257812 515.8125 208.351562 515.691406 222.355469 C 515.773438 226.507812 522.027344 226.507812 522.066406 222.355469 Z M 441.519531 269.351562 C 443.578125 267.214844 448.25 264.445312 449.992188 268.359375 C 450.625 269.984375 449.792969 271.84375 448.132812 272.476562 C 441.007812 275.71875 444.6875 285.332031 449.121094 288.179688 L 463.328125 288.179688 C 466.378906 285.964844 468.355469 282.402344 468.355469 278.367188 L 468.355469 188.691406 C 468.277344 175.753906 450.546875 171.957031 445.242188 183.707031 C 449.515625 184.539062 462.140625 195.296875 453.078125 197.316406 C 450.070312 197.195312 449.398438 193.199219 447.023438 191.855469 C 435.109375 182.441406 418.167969 195.335938 423.316406 209.0625 C 428.699219 208.074219 435.78125 210.726562 439.382812 215.273438 C 441.164062 217.210938 439.542969 220.574219 436.96875 220.496094 C 436.058594 220.496094 435.1875 220.101562 434.554688 219.347656 C 433.722656 218.359375 431.863281 216.539062 428.933594 215.710938 C 426.878906 215.035156 424.027344 215.195312 422.363281 215.75 C 405.941406 220.535156 404.59375 243.875 420.265625 250.558594 C 422.40625 247.117188 434.910156 237.585938 437.167969 244.269531 C 437.601562 245.972656 436.535156 247.710938 434.871094 248.105469 C 416.824219 252.578125 419.316406 277.894531 437.917969 278.410156 C 437.960938 275.324219 438.949219 271.921875 441.519531 269.351562 Z M 524.757812 183.390625 C 525.585938 183.390625 526.378906 183.074219 527.011719 182.480469 L 541.695312 167.804688 C 544.585938 164.796875 540.191406 160.40625 537.222656 163.335938 C 537.222656 163.335938 522.539062 178.011719 522.539062 178.011719 C 520.480469 179.871094 522.027344 183.46875 524.757812 183.390625 Z M 563.148438 219.625 L 542.410156 219.625 C 538.214844 219.703125 538.253906 225.914062 542.410156 225.953125 L 563.148438 225.953125 C 567.34375 225.914062 567.304688 219.703125 563.148438 219.625 Z M 526.972656 263.179688 C 523.964844 260.292969 519.570312 264.683594 522.5 267.648438 L 537.183594 282.324219 C 540.152344 285.253906 544.585938 280.78125 541.65625 277.855469 C 541.65625 277.816406 526.972656 263.179688 526.972656 263.179688 Z M 482.128906 165.746094 C 483.871094 165.746094 485.296875 164.324219 485.296875 162.582031 L 485.296875 141.816406 C 485.296875 140.074219 483.871094 138.652344 482.128906 138.652344 C 480.386719 138.652344 478.964844 140.074219 478.964844 141.816406 L 478.964844 162.542969 C 478.964844 164.324219 480.386719 165.746094 482.128906 165.746094 Z M 482.128906 165.746094 " fill-opacity="1" fill-rule="nonzero"/></g><path fill="#000000" d="M 671.703125 224.109375 C 671.730469 224.828125 671.6875 225.546875 671.574219 226.257812 C 671.460938 226.972656 671.28125 227.664062 671.03125 228.339844 C 670.78125 229.019531 670.464844 229.664062 670.089844 230.277344 C 669.710938 230.894531 669.277344 231.464844 668.789062 231.996094 C 668.300781 232.523438 667.761719 233 667.179688 233.421875 C 666.597656 233.847656 665.976562 234.210938 665.324219 234.511719 C 664.667969 234.8125 663.992188 235.046875 663.289062 235.214844 C 662.589844 235.382812 661.878906 235.480469 661.160156 235.507812 C 660.4375 235.535156 659.722656 235.492188 659.011719 235.378906 C 658.300781 235.265625 657.605469 235.082031 656.929688 234.832031 C 656.253906 234.582031 655.609375 234.265625 654.996094 233.890625 C 654.382812 233.511719 653.8125 233.078125 653.28125 232.589844 C 652.753906 232.097656 652.277344 231.5625 651.855469 230.976562 C 651.433594 230.390625 651.070312 229.773438 650.769531 229.117188 C 650.46875 228.460938 650.234375 227.78125 650.066406 227.082031 C 649.898438 226.378906 649.800781 225.667969 649.773438 224.949219 C 649.746094 224.226562 649.789062 223.511719 649.902344 222.796875 C 650.015625 222.085938 650.199219 221.390625 650.449219 220.714844 C 650.699219 220.039062 651.011719 219.390625 651.390625 218.777344 C 651.765625 218.164062 652.199219 217.589844 652.691406 217.0625 C 653.179688 216.53125 653.714844 216.054688 654.300781 215.632812 C 654.882812 215.207031 655.5 214.847656 656.15625 214.546875 C 656.8125 214.242188 657.488281 214.007812 658.1875 213.839844 C 658.890625 213.675781 659.601562 213.578125 660.320312 213.546875 C 661.039062 213.519531 661.757812 213.5625 662.46875 213.679688 C 663.179688 213.792969 663.871094 213.972656 664.546875 214.222656 C 665.222656 214.472656 665.867188 214.789062 666.484375 215.164062 C 667.097656 215.542969 667.667969 215.976562 668.195312 216.46875 C 668.726562 216.957031 669.199219 217.496094 669.625 218.078125 C 670.046875 218.664062 670.410156 219.285156 670.710938 219.9375 C 671.011719 220.59375 671.246094 221.273438 671.414062 221.972656 C 671.578125 222.675781 671.675781 223.386719 671.703125 224.109375 Z M 671.703125 224.109375 " fill-opacity="1" fill-rule="nonzero"/><path fill="#000000" d="M 691.828125 309.585938 L 684.132812 272.925781 C 684.117188 272.800781 684.097656 272.671875 684.070312 272.546875 L 677.488281 241.1875 L 683.976562 225.984375 L 682.054688 224.363281 C 680.25 222.84375 679.644531 220.269531 680.585938 218.105469 L 692.183594 191.441406 C 692.625 190.433594 693.347656 189.609375 694.238281 189.046875 C 693.53125 188.3125 692.539062 187.851562 691.4375 187.851562 C 689.28125 187.851562 687.535156 189.601562 687.535156 191.757812 L 687.535156 197.761719 L 670.621094 237.394531 L 654.308594 240.828125 C 653.09375 241.082031 652.148438 241.894531 651.664062 242.941406 L 629.953125 280.101562 C 628.863281 281.964844 629.488281 284.359375 631.347656 285.449219 C 631.96875 285.8125 632.644531 285.984375 633.316406 285.984375 C 634.65625 285.984375 635.960938 285.289062 636.6875 284.050781 L 653.492188 255.285156 L 657.820312 275.898438 L 653.308594 323.902344 C 652.996094 327.222656 655.433594 330.164062 658.75 330.476562 C 662.0625 330.789062 665.003906 328.351562 665.316406 325.03125 L 669.597656 279.449219 L 673.027344 278.726562 L 682.929688 325.898438 C 683.613281 329.160156 686.8125 331.25 690.070312 330.5625 C 691.203125 330.324219 692.1875 329.777344 692.96875 329.039062 C 692.25 327.886719 691.828125 326.53125 691.828125 325.074219 Z M 691.828125 309.585938 " fill-opacity="1" fill-rule="nonzero"/><path fill="#000000" d="M 696.984375 207.3125 L 705.621094 214.175781 C 706.941406 211.808594 709 209.933594 711.457031 208.839844 L 703.152344 202.238281 L 703.152344 196.597656 C 703.152344 195.746094 702.875 194.960938 702.414062 194.316406 C 702.347656 194.792969 702.222656 195.269531 702.023438 195.730469 Z M 696.984375 207.3125 " fill-opacity="1" fill-rule="nonzero"/><path fill="#000000" d="M 766.363281 219.089844 C 766.613281 219.765625 766.796875 220.460938 766.910156 221.171875 C 767.027344 221.882812 767.070312 222.601562 767.042969 223.320312 C 767.019531 224.042969 766.921875 224.753906 766.757812 225.457031 C 766.589844 226.15625 766.355469 226.835938 766.058594 227.492188 C 765.757812 228.148438 765.398438 228.769531 764.976562 229.355469 C 764.554688 229.9375 764.078125 230.476562 763.550781 230.96875 C 763.023438 231.460938 762.453125 231.894531 761.839844 232.273438 C 761.226562 232.652344 760.582031 232.96875 759.90625 233.21875 C 759.230469 233.472656 758.539062 233.65625 757.828125 233.769531 C 757.117188 233.882812 756.398438 233.929688 755.679688 233.902344 C 754.960938 233.875 754.25 233.78125 753.546875 233.613281 C 752.847656 233.449219 752.167969 233.214844 751.515625 232.914062 C 750.859375 232.613281 750.238281 232.253906 749.65625 231.832031 C 749.070312 231.40625 748.535156 230.933594 748.042969 230.40625 C 747.550781 229.875 747.117188 229.304688 746.738281 228.691406 C 746.363281 228.078125 746.046875 227.433594 745.796875 226.757812 C 745.542969 226.078125 745.359375 225.386719 745.246094 224.671875 C 745.132812 223.960938 745.085938 223.246094 745.113281 222.523438 C 745.140625 221.800781 745.234375 221.089844 745.402344 220.390625 C 745.566406 219.6875 745.800781 219.007812 746.101562 218.351562 C 746.398438 217.695312 746.761719 217.074219 747.183594 216.492188 C 747.605469 215.90625 748.078125 215.367188 748.605469 214.875 C 749.132812 214.386719 749.703125 213.949219 750.316406 213.570312 C 750.929688 213.191406 751.574219 212.878906 752.25 212.625 C 752.925781 212.375 753.617188 212.191406 754.332031 212.074219 C 755.042969 211.960938 755.757812 211.917969 756.476562 211.941406 C 757.199219 211.96875 757.90625 212.066406 758.609375 212.230469 C 759.308594 212.398438 759.988281 212.632812 760.644531 212.929688 C 761.296875 213.230469 761.917969 213.59375 762.503906 214.015625 C 763.085938 214.4375 763.625 214.914062 764.113281 215.441406 C 764.605469 215.96875 765.039062 216.539062 765.417969 217.152344 C 765.796875 217.769531 766.109375 218.414062 766.363281 219.089844 Z M 766.363281 219.089844 " fill-opacity="1" fill-rule="nonzero"/><path fill="#000000" d="M 747.113281 277.828125 L 755.902344 326.726562 C 756.492188 330.011719 759.628906 332.191406 762.902344 331.601562 C 766.179688 331.011719 768.359375 327.871094 767.769531 324.589844 L 758.855469 274.980469 L 762.988281 255.289062 L 775.386719 282.105469 C 776.046875 283.53125 777.457031 284.371094 778.929688 284.371094 C 779.480469 284.371094 780.035156 284.253906 780.566406 284.007812 C 782.523438 283.101562 783.375 280.78125 782.46875 278.824219 L 765.265625 241.613281 C 764.832031 240.4375 763.824219 239.503906 762.511719 239.226562 L 745.066406 235.554688 L 728.695312 222.542969 C 728.683594 222.59375 728.675781 222.644531 728.667969 222.695312 C 728.125 225.367188 726.734375 227.699219 724.816406 229.4375 L 739.078125 240.773438 L 733.320312 268.207031 L 721.132812 304.539062 L 721.132812 325.074219 C 721.132812 327.09375 720.328125 328.925781 719.03125 330.277344 C 719.59375 330.445312 720.164062 330.53125 720.726562 330.53125 C 723.222656 330.53125 725.550781 328.949219 726.390625 326.449219 L 742.988281 276.960938 Z M 747.113281 277.828125 " fill-opacity="1" fill-rule="nonzero"/><path fill="#000000" d="M 719.671875 270.988281 L 721.164062 263.605469 L 722.917969 265.492188 C 723.675781 266.304688 724.714844 266.738281 725.777344 266.738281 C 726.355469 266.738281 726.9375 266.609375 727.480469 266.34375 C 729.023438 265.589844 729.894531 263.917969 729.628906 262.21875 L 726.003906 239.296875 C 726.007812 237.53125 724.773438 235.953125 722.984375 235.589844 L 705.59375 232.066406 L 690.246094 219.140625 L 700.679688 195.148438 C 701.539062 193.167969 700.636719 190.867188 698.660156 190.003906 C 696.6875 189.144531 694.386719 190.050781 693.527344 192.027344 L 681.929688 218.691406 C 681.238281 220.277344 681.671875 222.128906 682.996094 223.242188 L 699.585938 237.214844 L 693.457031 267.53125 C 693.417969 267.714844 693.398438 267.894531 693.390625 268.078125 C 693.328125 268.421875 693.292969 268.777344 693.292969 269.136719 L 693.292969 325.074219 C 693.292969 328.410156 695.992188 331.113281 699.320312 331.113281 C 702.652344 331.113281 705.351562 328.410156 705.351562 325.074219 L 705.351562 273.792969 L 707.613281 274.25 L 707.613281 325.074219 C 707.613281 328.410156 710.3125 331.113281 713.640625 331.113281 C 716.972656 331.113281 719.671875 328.410156 719.671875 325.074219 Z M 719.671875 270.988281 " fill-opacity="1" fill-rule="nonzero"/><path fill="#000000" d="M 727.234375 222.402344 C 728.433594 216.457031 724.59375 210.65625 718.65625 209.453125 C 712.714844 208.25 706.925781 212.09375 705.722656 218.042969 C 704.519531 223.988281 708.359375 229.789062 714.300781 230.992188 C 720.242188 232.195312 726.03125 228.351562 727.234375 222.402344 Z M 727.234375 222.402344 " fill-opacity="1" fill-rule="nonzero"/><g clip-path="url(#dedb6b0d43)"><path fill="#000000" d="M 706.230469 182.917969 L 708.191406 174.136719 L 701.414062 179.332031 L 698.617188 170.21875 L 695.453125 179.355469 L 689.976562 174.207031 L 690.628906 180.871094 L 682.617188 177.648438 L 687.488281 185.308594 L 688.722656 184.519531 L 686.296875 180.707031 L 692.320312 183.128906 L 691.8125 177.941406 L 696.097656 181.96875 L 698.535156 174.933594 L 700.636719 181.773438 L 705.882812 177.75 L 704.304688 184.816406 L 710.519531 183.511719 L 705.527344 189.382812 L 709.824219 191.511719 L 706.226562 192.679688 L 706.679688 194.074219 L 713.691406 191.792969 L 707.859375 188.902344 L 714.40625 181.199219 Z M 706.230469 182.917969 " fill-opacity="1" fill-rule="nonzero"/></g><g fill="#000000" fill-opacity="1"><g transform="translate(648.327289, 385.491065)"><g><path d="M 9.78125 0.09375 C 9.300781 0.03125 8.066406 0 6.078125 0 L 5.59375 0 L 5.59375 -16.578125 L 2.625 -16.578125 C 1.738281 -16.578125 1.21875 -16.53125 1.0625 -16.4375 C 0.90625 -16.351562 0.78125 -16.273438 0.6875 -16.203125 L 0.640625 -16.21875 L 0.640625 -20.0625 L 0.6875 -20.109375 C 1.019531 -19.992188 1.910156 -19.9375 3.359375 -19.9375 L 12.765625 -19.9375 C 13.640625 -19.9375 14.15625 -19.976562 14.3125 -20.0625 C 14.476562 -20.15625 14.601562 -20.238281 14.6875 -20.3125 L 14.734375 -20.296875 L 14.734375 -16.46875 L 14.6875 -16.421875 C 14.363281 -16.523438 13.472656 -16.578125 12.015625 -16.578125 L 9.78125 -16.578125 Z M 9.78125 0.09375 "/></g></g></g><g fill="#000000" fill-opacity="1"><g transform="translate(663.702963, 385.491065)"><g><path d="M 9.03125 -7.75 C 8.726562 -7.726562 8.40625 -7.71875 8.0625 -7.71875 C 7.726562 -7.71875 7.222656 -7.742188 6.546875 -7.796875 L 6.546875 0 L 2.578125 0 L 2.578125 -20.046875 C 3.972656 -20.222656 5.691406 -20.3125 7.734375 -20.3125 C 10.515625 -20.3125 12.585938 -19.796875 13.953125 -18.765625 C 15.316406 -17.742188 16 -16.164062 16 -14.03125 C 16 -12.375 15.375 -10.957031 14.125 -9.78125 C 13.707031 -9.394531 13.238281 -9.0625 12.71875 -8.78125 L 15.765625 -2.34375 C 16.367188 -1.007812 16.832031 -0.21875 17.15625 0.03125 L 17.078125 0.109375 C 16.109375 -0.0546875 14.582031 -0.0507812 12.5 0.125 Z M 8.015625 -16.78125 C 7.503906 -16.78125 7.015625 -16.753906 6.546875 -16.703125 L 6.546875 -10.96875 C 7.035156 -10.90625 7.609375 -10.875 8.265625 -10.875 C 8.929688 -10.875 9.488281 -10.929688 9.9375 -11.046875 C 10.382812 -11.160156 10.773438 -11.335938 11.109375 -11.578125 C 11.816406 -12.109375 12.171875 -12.898438 12.171875 -13.953125 C 12.171875 -15.015625 11.800781 -15.757812 11.0625 -16.1875 C 10.375 -16.582031 9.359375 -16.78125 8.015625 -16.78125 Z M 8.015625 -16.78125 "/></g></g></g><g fill="#000000" fill-opacity="1"><g transform="translate(681.581311, 385.491065)"><g><path d="M 4.03125 0.125 C 3.175781 0.0390625 2.171875 0 1.015625 0 L -0.171875 0 L 6.359375 -18.28125 C 6.648438 -19.09375 6.796875 -19.566406 6.796875 -19.703125 C 6.796875 -19.835938 6.789062 -19.921875 6.78125 -19.953125 L 6.796875 -19.984375 C 7.441406 -19.953125 8.128906 -19.9375 8.859375 -19.9375 C 9.460938 -19.9375 10.179688 -19.945312 11.015625 -19.96875 L 11.03125 -19.9375 C 11.007812 -19.894531 11 -19.84375 11 -19.78125 C 11 -19.582031 11.148438 -19.078125 11.453125 -18.265625 L 18.109375 0.046875 C 17.910156 0.0351562 17.675781 0.03125 17.40625 0.03125 C 17.40625 0.03125 17.144531 0.0195312 16.625 0 C 16.375 0 16.148438 0 15.953125 0 L 13.625 0 L 12.21875 -4.3125 L 5.4375 -4.3125 Z M 11.046875 -7.921875 L 8.78125 -14.890625 L 6.578125 -7.921875 Z M 11.046875 -7.921875 "/></g></g></g><g fill="#000000" fill-opacity="1"><g transform="translate(699.519604, 385.491065)"><g><path d="M 15.171875 -1.453125 C 14.441406 -0.867188 13.488281 -0.414062 12.3125 -0.09375 C 11.144531 0.21875 9.707031 0.375 8 0.375 C 6.300781 0.375 4.492188 0.21875 2.578125 -0.09375 L 2.578125 -19.84375 C 4.515625 -20.15625 6.195312 -20.3125 7.625 -20.3125 C 9.050781 -20.3125 10.21875 -20.175781 11.125 -19.90625 C 12.039062 -19.632812 12.789062 -19.269531 13.375 -18.8125 C 14.507812 -17.925781 15.078125 -16.773438 15.078125 -15.359375 C 15.078125 -13.941406 14.5625 -12.769531 13.53125 -11.84375 C 14.75 -11.46875 15.695312 -10.75 16.375 -9.6875 C 16.976562 -8.738281 17.28125 -7.6875 17.28125 -6.53125 C 17.28125 -5.375 17.113281 -4.382812 16.78125 -3.5625 C 16.445312 -2.75 15.910156 -2.046875 15.171875 -1.453125 Z M 6.546875 -12.390625 C 6.972656 -12.328125 7.5 -12.296875 8.125 -12.296875 C 8.75 -12.296875 9.265625 -12.375 9.671875 -12.53125 C 10.078125 -12.695312 10.390625 -12.90625 10.609375 -13.15625 C 10.972656 -13.570312 11.15625 -14.144531 11.15625 -14.875 C 11.15625 -16.40625 10.253906 -17.171875 8.453125 -17.171875 C 7.691406 -17.171875 7.054688 -17.140625 6.546875 -17.078125 Z M 8.765625 -9.1875 C 7.929688 -9.1875 7.191406 -9.132812 6.546875 -9.03125 L 6.546875 -3.140625 C 7.242188 -2.953125 7.976562 -2.859375 8.75 -2.859375 C 9.519531 -2.859375 10.195312 -2.953125 10.78125 -3.140625 C 11.363281 -3.328125 11.859375 -3.578125 12.265625 -3.890625 C 13.078125 -4.554688 13.484375 -5.398438 13.484375 -6.421875 C 13.484375 -8.265625 11.910156 -9.1875 8.765625 -9.1875 Z M 8.765625 -9.1875 "/></g></g></g><g fill="#000000" fill-opacity="1"><g transform="translate(717.457897, 385.491065)"><g><path d="M 4.03125 0.125 C 3.175781 0.0390625 2.171875 0 1.015625 0 L -0.171875 0 L 6.359375 -18.28125 C 6.648438 -19.09375 6.796875 -19.566406 6.796875 -19.703125 C 6.796875 -19.835938 6.789062 -19.921875 6.78125 -19.953125 L 6.796875 -19.984375 C 7.441406 -19.953125 8.128906 -19.9375 8.859375 -19.9375 C 9.460938 -19.9375 10.179688 -19.945312 11.015625 -19.96875 L 11.03125 -19.9375 C 11.007812 -19.894531 11 -19.84375 11 -19.78125 C 11 -19.582031 11.148438 -19.078125 11.453125 -18.265625 L 18.109375 0.046875 C 17.910156 0.0351562 17.675781 0.03125 17.40625 0.03125 C 17.40625 0.03125 17.144531 0.0195312 16.625 0 C 16.375 0 16.148438 0 15.953125 0 L 13.625 0 L 12.21875 -4.3125 L 5.4375 -4.3125 Z M 11.046875 -7.921875 L 8.78125 -14.890625 L 6.578125 -7.921875 Z M 11.046875 -7.921875 "/></g></g></g><g fill="#000000" fill-opacity="1"><g transform="translate(735.39619, 385.491065)"><g><path d="M 5.5 0 C 4.03125 0 3.054688 0.03125 2.578125 0.09375 L 2.578125 -20.03125 C 2.816406 -19.96875 3.3125 -19.9375 4.0625 -19.9375 C 4.820312 -19.9375 5.703125 -19.957031 6.703125 -20 L 6.703125 -3.59375 L 9.796875 -3.59375 C 10.703125 -3.59375 11.425781 -3.625 11.96875 -3.6875 C 11.894531 -1.351562 11.859375 -0.140625 11.859375 -0.046875 L 11.859375 0.109375 C 10.878906 0.0351562 9.234375 0 6.921875 0 Z M 5.5 0 "/></g></g></g><g fill="#000000" fill-opacity="1"><g transform="translate(748.209257, 385.491065)"><g><path d="M 6.625 0.09375 C 5.664062 0.03125 4.523438 0 3.203125 0 L 2.734375 0 L 2.734375 -20.015625 C 3.347656 -19.960938 3.785156 -19.9375 4.046875 -19.9375 L 4.65625 -19.9375 C 5.445312 -19.9375 6.101562 -19.976562 6.625 -20.0625 L 6.625 -12.0625 L 13.671875 -12.0625 L 13.671875 -20.015625 C 14.503906 -19.960938 15.3125 -19.9375 16.09375 -19.9375 C 16.875 -19.9375 17.367188 -19.976562 17.578125 -20.0625 L 17.578125 0.09375 C 17.085938 0.03125 16.132812 0 14.71875 0 L 13.671875 0 L 13.671875 -8.46875 L 6.625 -8.46875 Z M 6.625 0.09375 "/></g></g></g><g fill="#000000" fill-opacity="1"><g transform="translate(768.650212, 385.491065)"><g><path d="M 4.203125 -2.359375 C 3.296875 -3.234375 2.582031 -4.28125 2.0625 -5.5 C 1.539062 -6.71875 1.28125 -8.050781 1.28125 -9.5 C 1.28125 -10.957031 1.523438 -12.335938 2.015625 -13.640625 C 2.503906 -14.941406 3.203125 -16.085938 4.109375 -17.078125 C 5.015625 -18.066406 6.113281 -18.851562 7.40625 -19.4375 C 8.695312 -20.019531 10.140625 -20.3125 11.734375 -20.3125 C 14.492188 -20.3125 16.816406 -19.441406 18.703125 -17.703125 C 20.722656 -15.847656 21.734375 -13.335938 21.734375 -10.171875 C 21.734375 -7.117188 20.695312 -4.578125 18.625 -2.546875 C 17.34375 -1.296875 15.816406 -0.4375 14.046875 0.03125 C 13.179688 0.257812 12.164062 0.375 11 0.375 C 9.832031 0.375 8.632812 0.132812 7.40625 -0.34375 C 6.1875 -0.820312 5.117188 -1.492188 4.203125 -2.359375 Z M 5.4375 -9.71875 C 5.4375 -8.789062 5.59375 -7.9375 5.90625 -7.15625 C 6.21875 -6.375 6.648438 -5.703125 7.203125 -5.140625 C 8.367188 -3.960938 9.867188 -3.375 11.703125 -3.375 C 13.453125 -3.375 14.859375 -3.9375 15.921875 -5.0625 C 17.003906 -6.238281 17.546875 -7.832031 17.546875 -9.84375 C 17.546875 -11.75 17.03125 -13.335938 16 -14.609375 C 14.882812 -15.960938 13.363281 -16.640625 11.4375 -16.640625 C 9.570312 -16.640625 8.085938 -15.953125 6.984375 -14.578125 C 5.953125 -13.285156 5.4375 -11.664062 5.4375 -9.71875 Z M 5.4375 -9.71875 "/></g></g></g><g fill="#000000" fill-opacity="1"><g transform="translate(645.749164, 428.241063)"><g><path d="M 12.609375 -3.59375 C 13.222656 -3.59375 13.648438 -3.65625 13.890625 -3.78125 L 13.953125 -3.765625 L 13.8125 0 L 2.578125 0 L 2.578125 -20.046875 C 2.847656 -20.023438 3.148438 -20.007812 3.484375 -20 L 4.53125 -19.96875 C 5.226562 -19.945312 5.988281 -19.9375 6.8125 -19.9375 C 9.09375 -19.9375 11.351562 -19.976562 13.59375 -20.0625 C 13.488281 -19.175781 13.4375 -18 13.4375 -16.53125 C 13.4375 -16.375 13.445312 -16.253906 13.46875 -16.171875 L 13.4375 -16.125 C 12.914062 -16.28125 12.175781 -16.359375 11.21875 -16.359375 L 6.484375 -16.359375 L 6.484375 -12.53125 L 10.046875 -12.53125 C 11.140625 -12.53125 11.796875 -12.5625 12.015625 -12.625 L 12.0625 -8.921875 C 11.582031 -8.972656 10.960938 -9 10.203125 -9 L 6.484375 -9 L 6.484375 -3.59375 Z M 12.609375 -3.59375 "/></g></g></g><g fill="#000000" fill-opacity="1"><g transform="translate(661.124838, 428.241063)"><g><path d="M 6.625 0.09375 C 6.144531 0.03125 5.222656 0 3.859375 0 L 2.65625 0 L 2.65625 -20 C 3.289062 -19.957031 3.992188 -19.9375 4.765625 -19.9375 C 5.535156 -19.9375 6.082031 -19.976562 6.40625 -20.0625 L 11.4375 -11.5 L 16.28125 -20.0625 C 16.601562 -19.976562 17.210938 -19.9375 18.109375 -19.9375 C 19.003906 -19.9375 19.773438 -19.957031 20.421875 -20 L 20.421875 0 L 19.21875 0 C 17.851562 0 16.929688 0.03125 16.453125 0.09375 L 16.453125 -13.34375 L 11.546875 -4.578125 L 6.625 -12.640625 Z M 6.625 0.09375 "/></g></g></g><g fill="#000000" fill-opacity="1"><g transform="translate(684.188355, 428.241063)"><g/></g></g><g fill="#000000" fill-opacity="1"><g transform="translate(694.36388, 428.241063)"><g><path d="M 12.609375 -3.59375 C 13.222656 -3.59375 13.648438 -3.65625 13.890625 -3.78125 L 13.953125 -3.765625 L 13.8125 0 L 2.578125 0 L 2.578125 -20.046875 C 2.847656 -20.023438 3.148438 -20.007812 3.484375 -20 L 4.53125 -19.96875 C 5.226562 -19.945312 5.988281 -19.9375 6.8125 -19.9375 C 9.09375 -19.9375 11.351562 -19.976562 13.59375 -20.0625 C 13.488281 -19.175781 13.4375 -18 13.4375 -16.53125 C 13.4375 -16.375 13.445312 -16.253906 13.46875 -16.171875 L 13.4375 -16.125 C 12.914062 -16.28125 12.175781 -16.359375 11.21875 -16.359375 L 6.484375 -16.359375 L 6.484375 -12.53125 L 10.046875 -12.53125 C 11.140625 -12.53125 11.796875 -12.5625 12.015625 -12.625 L 12.0625 -8.921875 C 11.582031 -8.972656 10.960938 -9 10.203125 -9 L 6.484375 -9 L 6.484375 -3.59375 Z M 12.609375 -3.59375 "/></g></g></g><g fill="#000000" fill-opacity="1"><g transform="translate(709.739555, 428.241063)"><g><path d="M 13.765625 0.09375 C 12.921875 0.28125 11.945312 0.375 10.84375 0.375 C 9.75 0.375 8.585938 0.132812 7.359375 -0.34375 C 6.140625 -0.820312 5.078125 -1.5 4.171875 -2.375 C 2.210938 -4.238281 1.234375 -6.628906 1.234375 -9.546875 C 1.234375 -12.503906 2.179688 -15.015625 4.078125 -17.078125 C 6.078125 -19.234375 8.625 -20.3125 11.71875 -20.3125 C 14.539062 -20.3125 16.878906 -19.421875 18.734375 -17.640625 C 20.703125 -15.742188 21.6875 -13.253906 21.6875 -10.171875 C 21.6875 -7.703125 20.988281 -5.546875 19.59375 -3.703125 C 19.15625 -3.117188 18.664062 -2.597656 18.125 -2.140625 C 18.488281 -2.046875 18.921875 -1.882812 19.421875 -1.65625 C 20.515625 -1.144531 21.546875 -0.878906 22.515625 -0.859375 L 22.8125 -0.859375 C 23.332031 -0.859375 23.679688 -0.925781 23.859375 -1.0625 L 23.90625 -1.015625 L 22.765625 1.84375 C 22.628906 2.269531 22.367188 2.484375 21.984375 2.484375 C 21.410156 2.484375 20.828125 2.363281 20.234375 2.125 C 19.648438 1.882812 19.125 1.660156 18.65625 1.453125 C 18.1875 1.242188 17.742188 1.054688 17.328125 0.890625 C 16.910156 0.734375 16.507812 0.601562 16.125 0.5 C 15.476562 0.3125 14.691406 0.175781 13.765625 0.09375 Z M 5.25 -9.71875 C 5.25 -8.789062 5.410156 -7.925781 5.734375 -7.125 C 6.054688 -6.332031 6.503906 -5.644531 7.078125 -5.0625 C 8.296875 -3.832031 9.820312 -3.21875 11.65625 -3.21875 C 13.414062 -3.21875 14.851562 -3.8125 15.96875 -5 C 17.113281 -6.226562 17.6875 -7.84375 17.6875 -9.84375 C 17.6875 -11.75 17.148438 -13.335938 16.078125 -14.609375 C 14.898438 -15.960938 13.347656 -16.640625 11.421875 -16.640625 C 9.546875 -16.640625 8.023438 -15.953125 6.859375 -14.578125 C 5.785156 -13.273438 5.25 -11.65625 5.25 -9.71875 Z M 5.25 -9.71875 "/></g></g></g><g fill="#000000" fill-opacity="1"><g transform="translate(732.743128, 428.241063)"><g><path d="M 13.9375 -20.015625 C 14.5625 -19.960938 15.078125 -19.9375 15.484375 -19.9375 L 16.734375 -19.9375 C 17.148438 -19.9375 17.585938 -19.976562 18.046875 -20.0625 L 18.046875 -7.65625 C 18.046875 -5.195312 17.300781 -3.222656 15.8125 -1.734375 C 14.40625 -0.328125 12.640625 0.375 10.515625 0.375 C 8.179688 0.375 6.296875 -0.226562 4.859375 -1.4375 C 3.242188 -2.800781 2.4375 -4.757812 2.4375 -7.3125 L 2.4375 -20.015625 C 3.269531 -19.960938 4.050781 -19.9375 4.78125 -19.9375 C 5.519531 -19.9375 6.128906 -19.976562 6.609375 -20.0625 L 6.609375 -7.125 C 6.609375 -5.863281 6.992188 -4.882812 7.765625 -4.1875 C 8.484375 -3.539062 9.382812 -3.21875 10.46875 -3.21875 C 12.0625 -3.21875 13.125 -4.039062 13.65625 -5.6875 C 13.84375 -6.269531 13.9375 -7 13.9375 -7.875 Z M 13.9375 -20.015625 "/></g></g></g><g fill="#000000" fill-opacity="1"><g transform="translate(753.244027, 428.241063)"><g><path d="M 3.046875 -20 C 4.046875 -19.957031 4.648438 -19.9375 4.859375 -19.9375 L 5.9375 -19.9375 C 6.46875 -19.9375 6.894531 -19.976562 7.21875 -20.0625 L 7.203125 0 L 3.046875 0 Z M 3.046875 -20 "/></g></g></g><g fill="#000000" fill-opacity="1"><g transform="translate(763.494477, 428.241063)"><g><path d="M 2.296875 -20.046875 C 3.679688 -20.222656 5.101562 -20.3125 6.5625 -20.3125 C 9.28125 -20.3125 11.347656 -19.671875 12.765625 -18.390625 C 14.179688 -17.117188 14.890625 -15.21875 14.890625 -12.6875 C 14.890625 -10.414062 14.113281 -8.617188 12.5625 -7.296875 C 11.113281 -6.054688 9.25 -5.4375 6.96875 -5.4375 C 6.707031 -5.4375 6.421875 -5.453125 6.109375 -5.484375 L 6.109375 0 L 2.296875 0 Z M 7.015625 -16.703125 C 6.710938 -16.703125 6.410156 -16.691406 6.109375 -16.671875 L 6.109375 -8.78125 C 6.429688 -8.738281 6.820312 -8.71875 7.28125 -8.71875 C 7.738281 -8.71875 8.21875 -8.816406 8.71875 -9.015625 C 9.21875 -9.210938 9.640625 -9.484375 9.984375 -9.828125 C 10.691406 -10.554688 11.046875 -11.519531 11.046875 -12.71875 C 11.046875 -15.375 9.703125 -16.703125 7.015625 -16.703125 Z M 7.015625 -16.703125 "/></g></g></g><g fill="#000000" fill-opacity="1"><g transform="translate(778.870151, 428.241063)"><g><path d="M 12.609375 -3.59375 C 13.222656 -3.59375 13.648438 -3.65625 13.890625 -3.78125 L 13.953125 -3.765625 L 13.8125 0 L 2.578125 0 L 2.578125 -20.046875 C 2.847656 -20.023438 3.148438 -20.007812 3.484375 -20 L 4.53125 -19.96875 C 5.226562 -19.945312 5.988281 -19.9375 6.8125 -19.9375 C 9.09375 -19.9375 11.351562 -19.976562 13.59375 -20.0625 C 13.488281 -19.175781 13.4375 -18 13.4375 -16.53125 C 13.4375 -16.375 13.445312 -16.253906 13.46875 -16.171875 L 13.4375 -16.125 C 12.914062 -16.28125 12.175781 -16.359375 11.21875 -16.359375 L 6.484375 -16.359375 L 6.484375 -12.53125 L 10.046875 -12.53125 C 11.140625 -12.53125 11.796875 -12.5625 12.015625 -12.625 L 12.0625 -8.921875 C 11.582031 -8.972656 10.960938 -9 10.203125 -9 L 6.484375 -9 L 6.484375 -3.59375 Z M 12.609375 -3.59375 "/></g></g></g><g fill="#000000" fill-opacity="1"><g transform="translate(838.325528, 388.563341)"><g><path d="M 14.625 -18.84375 L 14.34375 -14.421875 L 14.234375 -14.40625 C 13.492188 -15.507812 12.234375 -16.226562 10.453125 -16.5625 C 9.890625 -16.664062 9.347656 -16.71875 8.828125 -16.71875 C 8.316406 -16.71875 7.878906 -16.671875 7.515625 -16.578125 C 7.148438 -16.492188 6.835938 -16.367188 6.578125 -16.203125 C 6.035156 -15.835938 5.765625 -15.367188 5.765625 -14.796875 C 5.765625 -14.035156 6.003906 -13.460938 6.484375 -13.078125 C 7.078125 -12.617188 8.066406 -12.296875 9.453125 -12.109375 C 10.847656 -11.921875 11.960938 -11.664062 12.796875 -11.34375 C 13.640625 -11.03125 14.332031 -10.628906 14.875 -10.140625 C 15.894531 -9.222656 16.40625 -7.921875 16.40625 -6.234375 C 16.40625 -4.035156 15.578125 -2.34375 13.921875 -1.15625 C 12.503906 -0.132812 10.710938 0.375 8.546875 0.375 C 6.804688 0.375 5.085938 0.046875 3.390625 -0.609375 C 2.828125 -0.828125 2.335938 -1.082031 1.921875 -1.375 L 2.078125 -6.390625 L 2.140625 -6.4375 C 3.378906 -4.289062 5.414062 -3.21875 8.25 -3.21875 C 10.257812 -3.21875 11.585938 -3.707031 12.234375 -4.6875 C 12.453125 -5.007812 12.5625 -5.375 12.5625 -5.78125 C 12.5625 -6.1875 12.492188 -6.519531 12.359375 -6.78125 C 12.234375 -7.050781 12.023438 -7.28125 11.734375 -7.46875 C 11.148438 -7.851562 10.171875 -8.109375 8.796875 -8.234375 C 7.429688 -8.359375 6.3125 -8.601562 5.4375 -8.96875 C 4.570312 -9.332031 3.878906 -9.773438 3.359375 -10.296875 C 2.421875 -11.265625 1.953125 -12.609375 1.953125 -14.328125 C 1.953125 -16.109375 2.578125 -17.546875 3.828125 -18.640625 C 5.097656 -19.765625 6.804688 -20.328125 8.953125 -20.328125 C 11.109375 -20.328125 13 -19.832031 14.625 -18.84375 Z M 14.625 -18.84375 "/></g></g></g><g fill="#000000" fill-opacity="1"><g transform="translate(856.217529, 388.563341)"><g><path d="M 4.203125 -2.359375 C 3.296875 -3.234375 2.582031 -4.28125 2.0625 -5.5 C 1.539062 -6.71875 1.28125 -8.054688 1.28125 -9.515625 C 1.28125 -10.972656 1.523438 -12.347656 2.015625 -13.640625 C 2.503906 -14.941406 3.203125 -16.085938 4.109375 -17.078125 C 5.015625 -18.066406 6.113281 -18.851562 7.40625 -19.4375 C 8.695312 -20.03125 10.144531 -20.328125 11.75 -20.328125 C 14.507812 -20.328125 16.832031 -19.457031 18.71875 -17.71875 C 20.738281 -15.851562 21.75 -13.34375 21.75 -10.1875 C 21.75 -7.125 20.707031 -4.578125 18.625 -2.546875 C 17.34375 -1.296875 15.816406 -0.4375 14.046875 0.03125 C 13.179688 0.257812 12.164062 0.375 11 0.375 C 9.832031 0.375 8.632812 0.132812 7.40625 -0.34375 C 6.1875 -0.820312 5.117188 -1.492188 4.203125 -2.359375 Z M 5.4375 -9.71875 C 5.4375 -8.789062 5.59375 -7.9375 5.90625 -7.15625 C 6.21875 -6.375 6.648438 -5.703125 7.203125 -5.140625 C 8.367188 -3.960938 9.875 -3.375 11.71875 -3.375 C 13.46875 -3.375 14.867188 -3.9375 15.921875 -5.0625 C 17.003906 -6.238281 17.546875 -7.835938 17.546875 -9.859375 C 17.546875 -11.753906 17.03125 -13.335938 16 -14.609375 C 14.894531 -15.972656 13.375 -16.65625 11.4375 -16.65625 C 9.570312 -16.65625 8.085938 -15.960938 6.984375 -14.578125 C 5.953125 -13.285156 5.4375 -11.664062 5.4375 -9.71875 Z M 5.4375 -9.71875 "/></g></g></g><g fill="#000000" fill-opacity="1"><g transform="translate(879.238669, 388.563341)"><g><path d="M 5.5 0 C 4.03125 0 3.054688 0.03125 2.578125 0.09375 L 2.578125 -20.046875 C 2.816406 -19.984375 3.3125 -19.953125 4.0625 -19.953125 C 4.820312 -19.953125 5.703125 -19.972656 6.703125 -20.015625 L 6.703125 -3.59375 L 9.8125 -3.59375 C 10.707031 -3.59375 11.425781 -3.625 11.96875 -3.6875 C 11.894531 -1.351562 11.859375 -0.140625 11.859375 -0.046875 L 11.859375 0.109375 C 10.878906 0.0351562 9.238281 0 6.9375 0 Z M 5.5 0 "/></g></g></g><g fill="#000000" fill-opacity="1"><g transform="translate(892.061521, 388.563341)"><g><path d="M 3.046875 -20.015625 C 4.046875 -19.972656 4.648438 -19.953125 4.859375 -19.953125 L 5.9375 -19.953125 C 6.46875 -19.953125 6.894531 -19.988281 7.21875 -20.0625 L 7.203125 0 L 3.046875 0 Z M 3.046875 -20.015625 "/></g></g></g><g fill="#000000" fill-opacity="1"><g transform="translate(902.319799, 388.563341)"><g><path d="M 7.4375 0.375 C 5.820312 0.375 4.296875 0.242188 2.859375 -0.015625 L 2.859375 -20.078125 C 4.179688 -20.242188 5.710938 -20.328125 7.453125 -20.328125 C 9.203125 -20.328125 10.785156 -20.085938 12.203125 -19.609375 C 13.617188 -19.140625 14.800781 -18.460938 15.75 -17.578125 C 17.664062 -15.816406 18.625 -13.351562 18.625 -10.1875 C 18.625 -6.632812 17.554688 -3.9375 15.421875 -2.09375 C 13.503906 -0.445312 10.84375 0.375 7.4375 0.375 Z M 6.765625 -3.28125 C 7.410156 -3.164062 8.054688 -3.109375 8.703125 -3.109375 C 9.359375 -3.109375 10.0625 -3.234375 10.8125 -3.484375 C 11.5625 -3.742188 12.210938 -4.144531 12.765625 -4.6875 C 13.941406 -5.820312 14.53125 -7.476562 14.53125 -9.65625 C 14.53125 -13.238281 13.226562 -15.441406 10.625 -16.265625 C 9.757812 -16.535156 8.765625 -16.671875 7.640625 -16.671875 L 7.234375 -16.671875 C 7.078125 -16.671875 6.921875 -16.664062 6.765625 -16.65625 Z M 6.765625 -3.28125 "/></g></g></g><g fill="#000000" fill-opacity="1"><g transform="translate(922.776363, 388.563341)"><g><path d="M 4.03125 0.125 C 3.175781 0.0390625 2.171875 0 1.015625 0 L -0.171875 0 L 6.359375 -18.28125 C 6.648438 -19.101562 6.796875 -19.582031 6.796875 -19.71875 C 6.796875 -19.851562 6.789062 -19.9375 6.78125 -19.96875 L 6.796875 -20 C 7.441406 -19.96875 8.128906 -19.953125 8.859375 -19.953125 C 9.460938 -19.953125 10.1875 -19.960938 11.03125 -19.984375 L 11.046875 -19.953125 C 11.023438 -19.910156 11.015625 -19.851562 11.015625 -19.78125 C 11.015625 -19.59375 11.160156 -19.085938 11.453125 -18.265625 L 18.125 0.046875 C 17.914062 0.0351562 17.679688 0.03125 17.421875 0.03125 C 17.421875 0.03125 17.160156 0.0195312 16.640625 0 C 16.390625 0 16.160156 0 15.953125 0 L 13.640625 0 L 12.21875 -4.3125 L 5.4375 -4.3125 Z M 11.046875 -7.921875 L 8.796875 -14.890625 L 6.578125 -7.921875 Z M 11.046875 -7.921875 "/></g></g></g><g fill="#000000" fill-opacity="1"><g transform="translate(940.728354, 388.563341)"><g><path d="M 9.03125 -7.75 C 8.726562 -7.726562 8.40625 -7.71875 8.0625 -7.71875 C 7.726562 -7.71875 7.226562 -7.742188 6.5625 -7.796875 L 6.5625 0 L 2.578125 0 L 2.578125 -20.046875 C 3.984375 -20.234375 5.703125 -20.328125 7.734375 -20.328125 C 10.515625 -20.328125 12.585938 -19.8125 13.953125 -18.78125 C 15.316406 -17.757812 16 -16.179688 16 -14.046875 C 16 -12.378906 15.375 -10.957031 14.125 -9.78125 C 13.71875 -9.394531 13.25 -9.066406 12.71875 -8.796875 L 15.78125 -2.34375 C 16.375 -1.007812 16.832031 -0.21875 17.15625 0.03125 L 17.078125 0.109375 C 16.109375 -0.0546875 14.585938 -0.0507812 12.515625 0.125 Z M 8.03125 -16.78125 C 7.519531 -16.78125 7.03125 -16.753906 6.5625 -16.703125 L 6.5625 -10.984375 C 7.050781 -10.910156 7.625 -10.875 8.28125 -10.875 C 8.9375 -10.875 9.488281 -10.929688 9.9375 -11.046875 C 10.394531 -11.160156 10.785156 -11.335938 11.109375 -11.578125 C 11.816406 -12.109375 12.171875 -12.898438 12.171875 -13.953125 C 12.171875 -15.015625 11.800781 -15.765625 11.0625 -16.203125 C 10.375 -16.585938 9.363281 -16.78125 8.03125 -16.78125 Z M 8.03125 -16.78125 "/></g></g></g><g fill="#000000" fill-opacity="1"><g transform="translate(958.620355, 388.563341)"><g><path d="M 3.046875 -20.015625 C 4.046875 -19.972656 4.648438 -19.953125 4.859375 -19.953125 L 5.9375 -19.953125 C 6.46875 -19.953125 6.894531 -19.988281 7.21875 -20.0625 L 7.203125 0 L 3.046875 0 Z M 3.046875 -20.015625 "/></g></g></g><g fill="#000000" fill-opacity="1"><g transform="translate(968.878633, 388.563341)"><g><path d="M 12.609375 -3.59375 C 13.234375 -3.59375 13.664062 -3.65625 13.90625 -3.78125 L 13.96875 -3.765625 L 13.8125 0 L 2.578125 0 L 2.578125 -20.046875 C 2.847656 -20.035156 3.148438 -20.023438 3.484375 -20.015625 L 4.53125 -19.984375 C 5.226562 -19.960938 5.988281 -19.953125 6.8125 -19.953125 C 9.101562 -19.953125 11.367188 -19.988281 13.609375 -20.0625 C 13.492188 -19.1875 13.4375 -18.015625 13.4375 -16.546875 C 13.4375 -16.378906 13.445312 -16.257812 13.46875 -16.1875 L 13.4375 -16.140625 C 12.914062 -16.285156 12.175781 -16.359375 11.21875 -16.359375 L 6.5 -16.359375 L 6.5 -12.546875 L 10.046875 -12.546875 C 11.148438 -12.546875 11.8125 -12.570312 12.03125 -12.625 L 12.078125 -8.921875 C 11.597656 -8.972656 10.976562 -9 10.21875 -9 L 6.5 -9 L 6.5 -3.59375 Z M 12.609375 -3.59375 "/></g></g></g><g fill="#000000" fill-opacity="1"><g transform="translate(984.266049, 388.563341)"><g><path d="M 7.4375 0.375 C 5.820312 0.375 4.296875 0.242188 2.859375 -0.015625 L 2.859375 -20.078125 C 4.179688 -20.242188 5.710938 -20.328125 7.453125 -20.328125 C 9.203125 -20.328125 10.785156 -20.085938 12.203125 -19.609375 C 13.617188 -19.140625 14.800781 -18.460938 15.75 -17.578125 C 17.664062 -15.816406 18.625 -13.351562 18.625 -10.1875 C 18.625 -6.632812 17.554688 -3.9375 15.421875 -2.09375 C 13.503906 -0.445312 10.84375 0.375 7.4375 0.375 Z M 6.765625 -3.28125 C 7.410156 -3.164062 8.054688 -3.109375 8.703125 -3.109375 C 9.359375 -3.109375 10.0625 -3.234375 10.8125 -3.484375 C 11.5625 -3.742188 12.210938 -4.144531 12.765625 -4.6875 C 13.941406 -5.820312 14.53125 -7.476562 14.53125 -9.65625 C 14.53125 -13.238281 13.226562 -15.441406 10.625 -16.265625 C 9.757812 -16.535156 8.765625 -16.671875 7.640625 -16.671875 L 7.234375 -16.671875 C 7.078125 -16.671875 6.921875 -16.664062 6.765625 -16.65625 Z M 6.765625 -3.28125 "/></g></g></g><g fill="#000000" fill-opacity="1"><g transform="translate(1004.722614, 388.563341)"><g><path d="M 4.03125 0.125 C 3.175781 0.0390625 2.171875 0 1.015625 0 L -0.171875 0 L 6.359375 -18.28125 C 6.648438 -19.101562 6.796875 -19.582031 6.796875 -19.71875 C 6.796875 -19.851562 6.789062 -19.9375 6.78125 -19.96875 L 6.796875 -20 C 7.441406 -19.96875 8.128906 -19.953125 8.859375 -19.953125 C 9.460938 -19.953125 10.1875 -19.960938 11.03125 -19.984375 L 11.046875 -19.953125 C 11.023438 -19.910156 11.015625 -19.851562 11.015625 -19.78125 C 11.015625 -19.59375 11.160156 -19.085938 11.453125 -18.265625 L 18.125 0.046875 C 17.914062 0.0351562 17.679688 0.03125 17.421875 0.03125 C 17.421875 0.03125 17.160156 0.0195312 16.640625 0 C 16.390625 0 16.160156 0 15.953125 0 L 13.640625 0 L 12.21875 -4.3125 L 5.4375 -4.3125 Z M 11.046875 -7.921875 L 8.796875 -14.890625 L 6.578125 -7.921875 Z M 11.046875 -7.921875 "/></g></g></g><g fill="#000000" fill-opacity="1"><g transform="translate(1022.674605, 388.563341)"><g><path d="M 7.4375 0.375 C 5.820312 0.375 4.296875 0.242188 2.859375 -0.015625 L 2.859375 -20.078125 C 4.179688 -20.242188 5.710938 -20.328125 7.453125 -20.328125 C 9.203125 -20.328125 10.785156 -20.085938 12.203125 -19.609375 C 13.617188 -19.140625 14.800781 -18.460938 15.75 -17.578125 C 17.664062 -15.816406 18.625 -13.351562 18.625 -10.1875 C 18.625 -6.632812 17.554688 -3.9375 15.421875 -2.09375 C 13.503906 -0.445312 10.84375 0.375 7.4375 0.375 Z M 6.765625 -3.28125 C 7.410156 -3.164062 8.054688 -3.109375 8.703125 -3.109375 C 9.359375 -3.109375 10.0625 -3.234375 10.8125 -3.484375 C 11.5625 -3.742188 12.210938 -4.144531 12.765625 -4.6875 C 13.941406 -5.820312 14.53125 -7.476562 14.53125 -9.65625 C 14.53125 -13.238281 13.226562 -15.441406 10.625 -16.265625 C 9.757812 -16.535156 8.765625 -16.671875 7.640625 -16.671875 L 7.234375 -16.671875 C 7.078125 -16.671875 6.921875 -16.664062 6.765625 -16.65625 Z M 6.765625 -3.28125 "/></g></g></g><g fill="#000000" fill-opacity="1"><g transform="translate(1043.131181, 388.563341)"><g><path d="M 12.609375 -3.59375 C 13.234375 -3.59375 13.664062 -3.65625 13.90625 -3.78125 L 13.96875 -3.765625 L 13.8125 0 L 2.578125 0 L 2.578125 -20.046875 C 2.847656 -20.035156 3.148438 -20.023438 3.484375 -20.015625 L 4.53125 -19.984375 C 5.226562 -19.960938 5.988281 -19.953125 6.8125 -19.953125 C 9.101562 -19.953125 11.367188 -19.988281 13.609375 -20.0625 C 13.492188 -19.1875 13.4375 -18.015625 13.4375 -16.546875 C 13.4375 -16.378906 13.445312 -16.257812 13.46875 -16.1875 L 13.4375 -16.140625 C 12.914062 -16.285156 12.175781 -16.359375 11.21875 -16.359375 L 6.5 -16.359375 L 6.5 -12.546875 L 10.046875 -12.546875 C 11.148438 -12.546875 11.8125 -12.570312 12.03125 -12.625 L 12.078125 -8.921875 C 11.597656 -8.972656 10.976562 -9 10.21875 -9 L 6.5 -9 L 6.5 -3.59375 Z M 12.609375 -3.59375 "/></g></g></g><g clip-path="url(#205aec03a0)"><path fill="#000002" d="M 992.636719 332.574219 L 948.613281 321.132812 C 947.199219 320.660156 946.378906 319.246094 946.730469 317.828125 L 951.085938 301.316406 C 951.910156 298.011719 955.558594 299.664062 957.675781 300.253906 C 958.03125 298.367188 958.382812 296.480469 958.617188 294.589844 C 961.5625 277.371094 964.269531 261.210938 986.632812 255.195312 C 987.691406 254.484375 1000.640625 237.617188 1012.058594 234.90625 C 1013.941406 226.648438 1016.648438 211.433594 1027.714844 212.140625 C 1031.011719 204.355469 1036.542969 198.929688 1044.898438 202.46875 C 1046.078125 203.058594 1046.78125 204.238281 1046.546875 205.417969 C 1045.015625 213.671875 1043.957031 220.988281 1042.898438 227.59375 C 1038.308594 258.96875 1035.835938 276.308594 996.875 299.074219 L 994.167969 309.808594 C 996.519531 310.398438 1000.40625 310.871094 999.464844 314.054688 L 995.226562 330.566406 C 994.875 331.746094 993.8125 332.574219 992.636719 332.574219 Z M 946.140625 264.511719 C 945.554688 264.511719 944.964844 264.277344 944.375 263.804688 C 925.070312 247.054688 905.0625 229.597656 905.0625 211.667969 C 905.0625 201.050781 914.832031 192.324219 926.957031 192.324219 C 936.488281 192.324219 941.785156 196.214844 946.140625 202.46875 C 950.496094 196.214844 955.910156 192.324219 965.445312 192.324219 C 977.570312 192.324219 987.339844 201.050781 987.339844 211.667969 C 987.339844 229.597656 967.328125 247.054688 947.90625 263.804688 C 947.4375 264.277344 946.847656 264.511719 946.140625 264.511719 Z M 926.957031 197.632812 C 917.773438 197.632812 910.359375 204 910.359375 211.667969 C 910.359375 226.648438 928.25 242.691406 946.140625 258.261719 C 964.035156 242.691406 982.042969 226.648438 982.042969 211.667969 C 982.042969 204 974.507812 197.632812 965.445312 197.632812 C 950.144531 197.632812 950.851562 210.253906 946.140625 210.253906 C 941.550781 210.253906 942.257812 197.632812 926.957031 197.632812 Z M 898.234375 309.808594 L 895.410156 299.074219 C 856.566406 276.308594 853.976562 258.96875 849.382812 227.59375 C 848.441406 220.988281 847.382812 213.671875 845.851562 205.417969 C 845.148438 201.40625 853.152344 200.34375 857.269531 202.703125 C 860.449219 204.472656 862.804688 207.894531 864.6875 212.140625 C 875.75 211.433594 878.339844 226.648438 880.222656 234.90625 C 891.761719 237.617188 904.589844 254.484375 905.765625 255.195312 C 928.015625 261.210938 930.839844 277.371094 933.664062 294.589844 C 934.019531 296.480469 934.371094 298.367188 934.722656 300.253906 C 936.960938 299.664062 940.492188 298.128906 941.316406 301.316406 L 945.671875 317.828125 C 946.023438 319.246094 945.199219 320.660156 943.667969 321.132812 L 899.765625 332.574219 C 898.585938 332.574219 897.527344 331.746094 897.175781 330.566406 L 892.820312 314.054688 C 891.996094 310.75 896.117188 310.398438 898.234375 309.808594 Z M 866.570312 217.566406 C 868.453125 223.816406 869.394531 230.1875 870.335938 236.203125 C 871.75 235.378906 873.160156 234.90625 874.691406 234.550781 C 873.515625 229.125 871.394531 219.097656 866.570312 217.566406 Z M 933.429688 306.152344 C 933.3125 306.152344 933.3125 306.152344 933.195312 306.152344 L 898.703125 315.234375 L 901.648438 326.558594 L 939.785156 316.53125 L 936.84375 305.207031 Z M 929.542969 301.667969 C 926.011719 282.679688 925.894531 265.808594 903.765625 260.148438 C 900.234375 259.324219 883.285156 233.609375 872.457031 241.15625 L 891.289062 260.265625 C 893.761719 262.742188 889.996094 266.519531 887.523438 264.039062 C 885.167969 261.5625 866.6875 243.28125 866.21875 242.335938 C 864.570312 238.796875 862.566406 205.179688 851.503906 206.832031 C 852.917969 214.144531 853.859375 220.867188 854.683594 226.765625 C 859.390625 258.734375 861.507812 273.242188 899.058594 295.0625 C 899.765625 295.417969 900.117188 296.007812 900.351562 296.714844 L 903.414062 308.511719 Z M 962.855469 301.667969 L 988.988281 308.511719 L 992.046875 296.714844 C 992.167969 296.007812 992.636719 295.417969 993.226562 295.0625 C 1030.890625 273.242188 1033.011719 258.734375 1037.601562 226.765625 C 1038.542969 220.867188 1039.484375 214.144531 1040.78125 206.832031 C 1029.363281 205.0625 1028.304688 240.332031 1025.59375 243.042969 L 1004.878906 264.039062 C 1002.40625 266.519531 998.640625 262.742188 1001.113281 260.265625 L 1019.828125 241.15625 C 1009.117188 233.609375 992.046875 259.324219 988.636719 260.148438 C 966.386719 265.808594 966.386719 282.796875 962.855469 301.667969 Z M 1017.589844 234.550781 C 1019.121094 234.90625 1020.652344 235.378906 1021.945312 236.203125 C 1023.007812 230.304688 1023.949219 223.699219 1025.832031 217.566406 C 1020.886719 219.097656 1018.886719 229.125 1017.589844 234.550781 Z M 952.617188 316.53125 L 990.753906 326.558594 L 993.695312 315.234375 L 955.558594 305.207031 Z M 952.617188 316.53125 " fill-opacity="1" fill-rule="evenodd"/></g><g fill="#000000" fill-opacity="1"><g transform="translate(393.573267, 406.866064)"><g><path d="M 14.625 -18.84375 L 14.34375 -14.421875 L 14.234375 -14.40625 C 13.492188 -15.507812 12.234375 -16.226562 10.453125 -16.5625 C 9.890625 -16.664062 9.347656 -16.71875 8.828125 -16.71875 C 8.316406 -16.71875 7.878906 -16.671875 7.515625 -16.578125 C 7.148438 -16.492188 6.835938 -16.367188 6.578125 -16.203125 C 6.035156 -15.835938 5.765625 -15.367188 5.765625 -14.796875 C 5.765625 -14.035156 6.003906 -13.460938 6.484375 -13.078125 C 7.078125 -12.617188 8.066406 -12.296875 9.453125 -12.109375 C 10.847656 -11.921875 11.960938 -11.664062 12.796875 -11.34375 C 13.640625 -11.03125 14.332031 -10.628906 14.875 -10.140625 C 15.894531 -9.222656 16.40625 -7.921875 16.40625 -6.234375 C 16.40625 -4.035156 15.578125 -2.34375 13.921875 -1.15625 C 12.503906 -0.132812 10.710938 0.375 8.546875 0.375 C 6.804688 0.375 5.085938 0.046875 3.390625 -0.609375 C 2.828125 -0.828125 2.335938 -1.082031 1.921875 -1.375 L 2.078125 -6.390625 L 2.140625 -6.4375 C 3.378906 -4.289062 5.414062 -3.21875 8.25 -3.21875 C 10.257812 -3.21875 11.585938 -3.707031 12.234375 -4.6875 C 12.453125 -5.007812 12.5625 -5.375 12.5625 -5.78125 C 12.5625 -6.1875 12.492188 -6.519531 12.359375 -6.78125 C 12.234375 -7.050781 12.023438 -7.28125 11.734375 -7.46875 C 11.148438 -7.851562 10.171875 -8.109375 8.796875 -8.234375 C 7.429688 -8.359375 6.3125 -8.601562 5.4375 -8.96875 C 4.570312 -9.332031 3.878906 -9.773438 3.359375 -10.296875 C 2.421875 -11.265625 1.953125 -12.609375 1.953125 -14.328125 C 1.953125 -16.109375 2.578125 -17.546875 3.828125 -18.640625 C 5.097656 -19.765625 6.804688 -20.328125 8.953125 -20.328125 C 11.109375 -20.328125 13 -19.832031 14.625 -18.84375 Z M 14.625 -18.84375 "/></g></g></g><g fill="#000000" fill-opacity="1"><g transform="translate(411.465268, 406.866064)"><g><path d="M 4.203125 -2.359375 C 3.296875 -3.234375 2.582031 -4.28125 2.0625 -5.5 C 1.539062 -6.71875 1.28125 -8.054688 1.28125 -9.515625 C 1.28125 -10.972656 1.523438 -12.347656 2.015625 -13.640625 C 2.503906 -14.941406 3.203125 -16.085938 4.109375 -17.078125 C 5.015625 -18.066406 6.113281 -18.851562 7.40625 -19.4375 C 8.695312 -20.03125 10.144531 -20.328125 11.75 -20.328125 C 14.507812 -20.328125 16.832031 -19.457031 18.71875 -17.71875 C 20.738281 -15.851562 21.75 -13.34375 21.75 -10.1875 C 21.75 -7.125 20.707031 -4.578125 18.625 -2.546875 C 17.34375 -1.296875 15.816406 -0.4375 14.046875 0.03125 C 13.179688 0.257812 12.164062 0.375 11 0.375 C 9.832031 0.375 8.632812 0.132812 7.40625 -0.34375 C 6.1875 -0.820312 5.117188 -1.492188 4.203125 -2.359375 Z M 5.4375 -9.71875 C 5.4375 -8.789062 5.59375 -7.9375 5.90625 -7.15625 C 6.21875 -6.375 6.648438 -5.703125 7.203125 -5.140625 C 8.367188 -3.960938 9.875 -3.375 11.71875 -3.375 C 13.46875 -3.375 14.867188 -3.9375 15.921875 -5.0625 C 17.003906 -6.238281 17.546875 -7.835938 17.546875 -9.859375 C 17.546875 -11.753906 17.03125 -13.335938 16 -14.609375 C 14.894531 -15.972656 13.375 -16.65625 11.4375 -16.65625 C 9.570312 -16.65625 8.085938 -15.960938 6.984375 -14.578125 C 5.953125 -13.285156 5.4375 -11.664062 5.4375 -9.71875 Z M 5.4375 -9.71875 "/></g></g></g><g fill="#000000" fill-opacity="1"><g transform="translate(434.486408, 406.866064)"><g><path d="M 13.09375 -8.625 C 12.613281 -8.675781 11.992188 -8.703125 11.234375 -8.703125 L 6.6875 -8.703125 L 6.6875 0 L 2.578125 0 L 2.578125 -20.046875 C 2.847656 -20.035156 3.160156 -20.023438 3.515625 -20.015625 L 4.625 -19.984375 C 5.382812 -19.960938 6.171875 -19.953125 6.984375 -19.953125 C 9.441406 -19.953125 11.796875 -19.988281 14.046875 -20.0625 C 13.929688 -19.1875 13.875 -18.015625 13.875 -16.546875 C 13.875 -16.378906 13.882812 -16.257812 13.90625 -16.1875 L 13.875 -16.140625 C 13.34375 -16.285156 12.601562 -16.359375 11.65625 -16.359375 L 6.6875 -16.359375 L 6.6875 -12.234375 L 11.0625 -12.234375 C 12.164062 -12.234375 12.828125 -12.265625 13.046875 -12.328125 Z M 13.09375 -8.625 "/></g></g></g><g fill="#000000" fill-opacity="1"><g transform="translate(449.813834, 406.866064)"><g><path d="M 9.78125 0.09375 C 9.300781 0.03125 8.066406 0 6.078125 0 L 5.59375 0 L 5.59375 -16.59375 L 2.625 -16.59375 C 1.75 -16.59375 1.226562 -16.546875 1.0625 -16.453125 C 0.90625 -16.359375 0.78125 -16.28125 0.6875 -16.21875 L 0.640625 -16.234375 L 0.640625 -20.0625 L 0.6875 -20.109375 C 1.019531 -20.003906 1.910156 -19.953125 3.359375 -19.953125 L 12.765625 -19.953125 C 13.640625 -19.953125 14.15625 -19.992188 14.3125 -20.078125 C 14.476562 -20.171875 14.609375 -20.253906 14.703125 -20.328125 L 14.75 -20.3125 L 14.75 -16.46875 L 14.703125 -16.421875 C 14.367188 -16.535156 13.476562 -16.59375 12.03125 -16.59375 L 9.78125 -16.59375 Z M 9.78125 0.09375 "/></g></g></g><g fill="#000000" fill-opacity="1"><g transform="translate(465.20125, 406.866064)"><g/></g></g><g fill="#000000" fill-opacity="1"><g transform="translate(475.384546, 406.866064)"><g><path d="M 14.625 -18.84375 L 14.34375 -14.421875 L 14.234375 -14.40625 C 13.492188 -15.507812 12.234375 -16.226562 10.453125 -16.5625 C 9.890625 -16.664062 9.347656 -16.71875 8.828125 -16.71875 C 8.316406 -16.71875 7.878906 -16.671875 7.515625 -16.578125 C 7.148438 -16.492188 6.835938 -16.367188 6.578125 -16.203125 C 6.035156 -15.835938 5.765625 -15.367188 5.765625 -14.796875 C 5.765625 -14.035156 6.003906 -13.460938 6.484375 -13.078125 C 7.078125 -12.617188 8.066406 -12.296875 9.453125 -12.109375 C 10.847656 -11.921875 11.960938 -11.664062 12.796875 -11.34375 C 13.640625 -11.03125 14.332031 -10.628906 14.875 -10.140625 C 15.894531 -9.222656 16.40625 -7.921875 16.40625 -6.234375 C 16.40625 -4.035156 15.578125 -2.34375 13.921875 -1.15625 C 12.503906 -0.132812 10.710938 0.375 8.546875 0.375 C 6.804688 0.375 5.085938 0.046875 3.390625 -0.609375 C 2.828125 -0.828125 2.335938 -1.082031 1.921875 -1.375 L 2.078125 -6.390625 L 2.140625 -6.4375 C 3.378906 -4.289062 5.414062 -3.21875 8.25 -3.21875 C 10.257812 -3.21875 11.585938 -3.707031 12.234375 -4.6875 C 12.453125 -5.007812 12.5625 -5.375 12.5625 -5.78125 C 12.5625 -6.1875 12.492188 -6.519531 12.359375 -6.78125 C 12.234375 -7.050781 12.023438 -7.28125 11.734375 -7.46875 C 11.148438 -7.851562 10.171875 -8.109375 8.796875 -8.234375 C 7.429688 -8.359375 6.3125 -8.601562 5.4375 -8.96875 C 4.570312 -9.332031 3.878906 -9.773438 3.359375 -10.296875 C 2.421875 -11.265625 1.953125 -12.609375 1.953125 -14.328125 C 1.953125 -16.109375 2.578125 -17.546875 3.828125 -18.640625 C 5.097656 -19.765625 6.804688 -20.328125 8.953125 -20.328125 C 11.109375 -20.328125 13 -19.832031 14.625 -18.84375 Z M 14.625 -18.84375 "/></g></g></g><g fill="#000000" fill-opacity="1"><g transform="translate(493.276547, 406.866064)"><g><path d="M 6.40625 0.09375 C 5.71875 0.03125 4.835938 0 3.765625 0 L 2.578125 0 L 2.578125 -20.015625 L 3.1875 -19.984375 C 3.601562 -19.960938 3.914062 -19.953125 4.125 -19.953125 L 4.5625 -19.953125 C 5.4375 -19.953125 6.050781 -19.988281 6.40625 -20.0625 L 6.40625 -11.59375 L 12.484375 -20.015625 C 13.117188 -19.972656 13.65625 -19.953125 14.09375 -19.953125 L 14.921875 -19.953125 C 15.953125 -19.953125 16.6875 -19.988281 17.125 -20.0625 L 11.34375 -12.515625 L 17.046875 -1.203125 C 17.285156 -0.648438 17.507812 -0.25 17.71875 0 L 16.796875 0 C 14.691406 0 13.378906 0.0390625 12.859375 0.125 C 12.742188 -0.550781 12.59375 -1.140625 12.40625 -1.640625 L 8.578125 -8.921875 L 6.40625 -6.078125 Z M 6.40625 0.09375 "/></g></g></g><g fill="#000000" fill-opacity="1"><g transform="translate(511.168549, 406.866064)"><g><path d="M 3.046875 -20.015625 C 4.046875 -19.972656 4.648438 -19.953125 4.859375 -19.953125 L 5.9375 -19.953125 C 6.46875 -19.953125 6.894531 -19.988281 7.21875 -20.0625 L 7.203125 0 L 3.046875 0 Z M 3.046875 -20.015625 "/></g></g></g><g fill="#000000" fill-opacity="1"><g transform="translate(521.426826, 406.866064)"><g><path d="M 5.5 0 C 4.03125 0 3.054688 0.03125 2.578125 0.09375 L 2.578125 -20.046875 C 2.816406 -19.984375 3.3125 -19.953125 4.0625 -19.953125 C 4.820312 -19.953125 5.703125 -19.972656 6.703125 -20.015625 L 6.703125 -3.59375 L 9.8125 -3.59375 C 10.707031 -3.59375 11.425781 -3.625 11.96875 -3.6875 C 11.894531 -1.351562 11.859375 -0.140625 11.859375 -0.046875 L 11.859375 0.109375 C 10.878906 0.0351562 9.238281 0 6.9375 0 Z M 5.5 0 "/></g></g></g><g fill="#000000" fill-opacity="1"><g transform="translate(534.249678, 406.866064)"><g><path d="M 5.5 0 C 4.03125 0 3.054688 0.03125 2.578125 0.09375 L 2.578125 -20.046875 C 2.816406 -19.984375 3.3125 -19.953125 4.0625 -19.953125 C 4.820312 -19.953125 5.703125 -19.972656 6.703125 -20.015625 L 6.703125 -3.59375 L 9.8125 -3.59375 C 10.707031 -3.59375 11.425781 -3.625 11.96875 -3.6875 C 11.894531 -1.351562 11.859375 -0.140625 11.859375 -0.046875 L 11.859375 0.109375 C 10.878906 0.0351562 9.238281 0 6.9375 0 Z M 5.5 0 "/></g></g></g><g fill="#000000" fill-opacity="1"><g transform="translate(547.07253, 406.866064)"><g><path d="M 14.625 -18.84375 L 14.34375 -14.421875 L 14.234375 -14.40625 C 13.492188 -15.507812 12.234375 -16.226562 10.453125 -16.5625 C 9.890625 -16.664062 9.347656 -16.71875 8.828125 -16.71875 C 8.316406 -16.71875 7.878906 -16.671875 7.515625 -16.578125 C 7.148438 -16.492188 6.835938 -16.367188 6.578125 -16.203125 C 6.035156 -15.835938 5.765625 -15.367188 5.765625 -14.796875 C 5.765625 -14.035156 6.003906 -13.460938 6.484375 -13.078125 C 7.078125 -12.617188 8.066406 -12.296875 9.453125 -12.109375 C 10.847656 -11.921875 11.960938 -11.664062 12.796875 -11.34375 C 13.640625 -11.03125 14.332031 -10.628906 14.875 -10.140625 C 15.894531 -9.222656 16.40625 -7.921875 16.40625 -6.234375 C 16.40625 -4.035156 15.578125 -2.34375 13.921875 -1.15625 C 12.503906 -0.132812 10.710938 0.375 8.546875 0.375 C 6.804688 0.375 5.085938 0.046875 3.390625 -0.609375 C 2.828125 -0.828125 2.335938 -1.082031 1.921875 -1.375 L 2.078125 -6.390625 L 2.140625 -6.4375 C 3.378906 -4.289062 5.414062 -3.21875 8.25 -3.21875 C 10.257812 -3.21875 11.585938 -3.707031 12.234375 -4.6875 C 12.453125 -5.007812 12.5625 -5.375 12.5625 -5.78125 C 12.5625 -6.1875 12.492188 -6.519531 12.359375 -6.78125 C 12.234375 -7.050781 12.023438 -7.28125 11.734375 -7.46875 C 11.148438 -7.851562 10.171875 -8.109375 8.796875 -8.234375 C 7.429688 -8.359375 6.3125 -8.601562 5.4375 -8.96875 C 4.570312 -9.332031 3.878906 -9.773438 3.359375 -10.296875 C 2.421875 -11.265625 1.953125 -12.609375 1.953125 -14.328125 C 1.953125 -16.109375 2.578125 -17.546875 3.828125 -18.640625 C 5.097656 -19.765625 6.804688 -20.328125 8.953125 -20.328125 C 11.109375 -20.328125 13 -19.832031 14.625 -18.84375 Z M 14.625 -18.84375 "/></g></g></g></svg>